<svg xmlns="http://www.w3.org/2000/svg" xmlns:xlink="http://www.w3.org/1999/xlink" width="500" zoomAndPan="magnify" viewBox="0 0 375 374.999991" height="500" preserveAspectRatio="xMidYMid meet" version="1.0"><defs><clipPath id="2f39ce7fc3"><path d="M 14 14 L 361 14 L 361 361 L 14 361 Z M 14 14 " clip-rule="nonzero"/></clipPath><clipPath id="3e967e3e90"><path d="M 360.691406 187.5 C 360.691406 190.335938 360.621094 193.167969 360.480469 195.996094 C 360.34375 198.828125 360.132812 201.65625 359.855469 204.476562 C 359.578125 207.296875 359.230469 210.109375 358.816406 212.914062 C 358.398438 215.714844 357.914062 218.507812 357.363281 221.289062 C 356.808594 224.066406 356.1875 226.832031 355.5 229.582031 C 354.8125 232.332031 354.054688 235.0625 353.230469 237.773438 C 352.410156 240.488281 351.519531 243.175781 350.566406 245.847656 C 349.609375 248.515625 348.589844 251.15625 347.507812 253.777344 C 346.421875 256.394531 345.273438 258.984375 344.0625 261.546875 C 342.851562 264.109375 341.574219 266.640625 340.238281 269.140625 C 338.902344 271.640625 337.507812 274.105469 336.050781 276.539062 C 334.59375 278.96875 333.078125 281.363281 331.503906 283.71875 C 329.925781 286.074219 328.296875 288.390625 326.605469 290.667969 C 324.917969 292.945312 323.175781 295.179688 321.378906 297.371094 C 319.578125 299.5625 317.730469 301.707031 315.824219 303.808594 C 313.921875 305.90625 311.96875 307.960938 309.964844 309.964844 C 307.960938 311.96875 305.90625 313.921875 303.808594 315.824219 C 301.707031 317.730469 299.5625 319.578125 297.371094 321.378906 C 295.179688 323.175781 292.945312 324.917969 290.667969 326.605469 C 288.390625 328.296875 286.074219 329.925781 283.71875 331.503906 C 281.363281 333.078125 278.96875 334.59375 276.539062 336.050781 C 274.105469 337.507812 271.640625 338.902344 269.140625 340.238281 C 266.640625 341.574219 264.109375 342.851562 261.546875 344.0625 C 258.984375 345.273438 256.394531 346.421875 253.777344 347.507812 C 251.15625 348.589844 248.515625 349.609375 245.847656 350.566406 C 243.175781 351.519531 240.488281 352.410156 237.773438 353.230469 C 235.0625 354.054688 232.332031 354.8125 229.582031 355.5 C 226.832031 356.1875 224.066406 356.808594 221.289062 357.363281 C 218.507812 357.914062 215.714844 358.398438 212.914062 358.816406 C 210.109375 359.230469 207.296875 359.578125 204.476562 359.855469 C 201.65625 360.132812 198.828125 360.34375 195.996094 360.480469 C 193.167969 360.621094 190.335938 360.691406 187.5 360.691406 C 184.664062 360.691406 181.832031 360.621094 179.003906 360.480469 C 176.171875 360.34375 173.34375 360.132812 170.523438 359.855469 C 167.703125 359.578125 164.890625 359.230469 162.085938 358.816406 C 159.285156 358.398438 156.492188 357.914062 153.710938 357.363281 C 150.933594 356.808594 148.167969 356.1875 145.417969 355.5 C 142.667969 354.8125 139.9375 354.054688 137.226562 353.230469 C 134.511719 352.410156 131.824219 351.519531 129.152344 350.566406 C 126.484375 349.609375 123.839844 348.589844 121.222656 347.507812 C 118.605469 346.421875 116.015625 345.273438 113.453125 344.0625 C 110.890625 342.851562 108.359375 341.574219 105.859375 340.238281 C 103.359375 338.902344 100.894531 337.507812 98.460938 336.050781 C 96.03125 334.59375 93.636719 333.078125 91.28125 331.503906 C 88.925781 329.925781 86.609375 328.296875 84.332031 326.605469 C 82.054688 324.917969 79.820312 323.175781 77.628906 321.378906 C 75.4375 319.578125 73.292969 317.730469 71.191406 315.824219 C 69.09375 313.921875 67.039062 311.96875 65.035156 309.964844 C 63.03125 307.960938 61.078125 305.90625 59.175781 303.808594 C 57.269531 301.707031 55.421875 299.5625 53.621094 297.371094 C 51.824219 295.179688 50.082031 292.945312 48.394531 290.667969 C 46.703125 288.390625 45.074219 286.074219 43.496094 283.71875 C 41.921875 281.363281 40.40625 278.96875 38.949219 276.539062 C 37.492188 274.105469 36.097656 271.640625 34.761719 269.140625 C 33.425781 266.640625 32.148438 264.109375 30.9375 261.546875 C 29.726562 258.984375 28.578125 256.394531 27.492188 253.777344 C 26.410156 251.15625 25.390625 248.515625 24.433594 245.847656 C 23.480469 243.175781 22.589844 240.488281 21.769531 237.773438 C 20.945312 235.0625 20.1875 232.332031 19.5 229.582031 C 18.8125 226.832031 18.191406 224.066406 17.636719 221.289062 C 17.085938 218.507812 16.601562 215.714844 16.183594 212.914062 C 15.769531 210.109375 15.421875 207.296875 15.144531 204.476562 C 14.867188 201.65625 14.65625 198.828125 14.519531 195.996094 C 14.378906 193.167969 14.308594 190.335938 14.308594 187.5 C 14.308594 184.664062 14.378906 181.832031 14.519531 179.003906 C 14.65625 176.171875 14.867188 173.34375 15.144531 170.523438 C 15.421875 167.703125 15.769531 164.890625 16.183594 162.085938 C 16.601562 159.285156 17.085938 156.492188 17.636719 153.710938 C 18.191406 150.933594 18.8125 148.167969 19.5 145.417969 C 20.1875 142.667969 20.945312 139.9375 21.769531 137.226562 C 22.589844 134.511719 23.480469 131.824219 24.433594 129.152344 C 25.390625 126.484375 26.410156 123.839844 27.492188 121.222656 C 28.578125 118.605469 29.726562 116.015625 30.9375 113.453125 C 32.148438 110.890625 33.425781 108.359375 34.761719 105.859375 C 36.097656 103.359375 37.492188 100.894531 38.949219 98.460938 C 40.40625 96.03125 41.921875 93.636719 43.496094 91.28125 C 45.074219 88.925781 46.703125 86.609375 48.394531 84.332031 C 50.082031 82.054688 51.824219 79.820312 53.621094 77.628906 C 55.421875 75.4375 57.269531 73.292969 59.175781 71.191406 C 61.078125 69.09375 63.03125 67.039062 65.035156 65.035156 C 67.039062 63.03125 69.09375 61.078125 71.191406 59.175781 C 73.292969 57.269531 75.4375 55.421875 77.628906 53.621094 C 79.820312 51.824219 82.054688 50.082031 84.332031 48.394531 C 86.609375 46.703125 88.925781 45.074219 91.28125 43.496094 C 93.636719 41.921875 96.03125 40.40625 98.460938 38.949219 C 100.894531 37.492188 103.359375 36.097656 105.859375 34.761719 C 108.359375 33.425781 110.890625 32.148438 113.453125 30.9375 C 116.015625 29.726562 118.605469 28.578125 121.222656 27.492188 C 123.839844 26.410156 126.484375 25.390625 129.152344 24.433594 C 131.824219 23.480469 134.511719 22.589844 137.226562 21.769531 C 139.9375 20.945312 142.667969 20.1875 145.417969 19.5 C 148.167969 18.8125 150.933594 18.191406 153.710938 17.636719 C 156.492188 17.085938 159.285156 16.601562 162.085938 16.183594 C 164.890625 15.769531 167.703125 15.421875 170.523438 15.144531 C 173.34375 14.867188 176.171875 14.65625 179.003906 14.519531 C 181.832031 14.378906 184.664062 14.308594 187.5 14.308594 C 190.335938 14.308594 193.167969 14.378906 195.996094 14.519531 C 198.828125 14.65625 201.65625 14.867188 204.476562 15.144531 C 207.296875 15.421875 210.109375 15.769531 212.914062 16.183594 C 215.714844 16.601562 218.507812 17.085938 221.289062 17.636719 C 224.066406 18.191406 226.832031 18.8125 229.582031 19.5 C 232.332031 20.1875 235.0625 20.945312 237.773438 21.769531 C 240.488281 22.589844 243.175781 23.480469 245.847656 24.433594 C 248.515625 25.390625 251.15625 26.410156 253.777344 27.492188 C 256.394531 28.578125 258.984375 29.726562 261.546875 30.9375 C 264.109375 32.148438 266.640625 33.425781 269.140625 34.761719 C 271.640625 36.097656 274.105469 37.492188 276.539062 38.949219 C 278.96875 40.40625 281.363281 41.921875 283.71875 43.496094 C 286.074219 45.074219 288.390625 46.703125 290.667969 48.394531 C 292.945312 50.082031 295.179688 51.824219 297.371094 53.621094 C 299.5625 55.421875 301.707031 57.269531 303.808594 59.175781 C 305.90625 61.078125 307.960938 63.03125 309.964844 65.035156 C 311.96875 67.039062 313.921875 69.09375 315.824219 71.191406 C 317.730469 73.292969 319.578125 75.4375 321.378906 77.628906 C 323.175781 79.820312 324.917969 82.054688 326.605469 84.332031 C 328.296875 86.609375 329.925781 88.925781 331.503906 91.28125 C 333.078125 93.636719 334.59375 96.03125 336.050781 98.460938 C 337.507812 100.894531 338.902344 103.359375 340.238281 105.859375 C 341.574219 108.359375 342.851562 110.890625 344.0625 113.453125 C 345.273438 116.015625 346.421875 118.605469 347.507812 121.222656 C 348.589844 123.839844 349.609375 126.484375 350.566406 129.152344 C 351.519531 131.824219 352.410156 134.511719 353.230469 137.226562 C 354.054688 139.9375 354.8125 142.667969 355.5 145.417969 C 356.1875 148.167969 356.808594 150.933594 357.363281 153.710938 C 357.914062 156.492188 358.398438 159.285156 358.816406 162.085938 C 359.230469 164.890625 359.578125 167.703125 359.855469 170.523438 C 360.132812 173.34375 360.34375 176.171875 360.480469 179.003906 C 360.621094 181.832031 360.691406 184.664062 360.691406 187.5 Z M 360.691406 187.5 " clip-rule="nonzero"/></clipPath><linearGradient x1="5756.999781" gradientTransform="matrix(0.00900014, 0, 0, 0.00900014, -37.503592, -37.503599)" y1="25000" x2="44242.999203" gradientUnits="userSpaceOnUse" y2="25000" id="fd91a9fae4"><stop stop-opacity="1" stop-color="rgb(100%, 100%, 100%)" offset="0"/><stop stop-opacity="1" stop-color="rgb(99.845886%, 99.845886%, 99.845886%)" offset="0.03125"/><stop stop-opacity="1" stop-color="rgb(99.539185%, 99.539185%, 99.539185%)" offset="0.0625"/><stop stop-opacity="1" stop-color="rgb(99.232483%, 99.232483%, 99.232483%)" offset="0.09375"/><stop stop-opacity="1" stop-color="rgb(98.927307%, 98.927307%, 98.927307%)" offset="0.125"/><stop stop-opacity="1" stop-color="rgb(98.620605%, 98.620605%, 98.620605%)" offset="0.15625"/><stop stop-opacity="1" stop-color="rgb(98.313904%, 98.313904%, 98.313904%)" offset="0.1875"/><stop stop-opacity="1" stop-color="rgb(98.008728%, 98.008728%, 98.008728%)" offset="0.21875"/><stop stop-opacity="1" stop-color="rgb(97.702026%, 97.702026%, 97.702026%)" offset="0.25"/><stop stop-opacity="1" stop-color="rgb(97.395325%, 97.395325%, 97.395325%)" offset="0.28125"/><stop stop-opacity="1" stop-color="rgb(97.088623%, 97.088623%, 97.088623%)" offset="0.3125"/><stop stop-opacity="1" stop-color="rgb(96.783447%, 96.783447%, 96.783447%)" offset="0.34375"/><stop stop-opacity="1" stop-color="rgb(96.476746%, 96.476746%, 96.476746%)" offset="0.375"/><stop stop-opacity="1" stop-color="rgb(96.170044%, 96.170044%, 96.170044%)" offset="0.40625"/><stop stop-opacity="1" stop-color="rgb(95.864868%, 95.864868%, 95.864868%)" offset="0.4375"/><stop stop-opacity="1" stop-color="rgb(95.558167%, 95.558167%, 95.558167%)" offset="0.46875"/><stop stop-opacity="1" stop-color="rgb(95.251465%, 95.251465%, 95.251465%)" offset="0.5"/><stop stop-opacity="1" stop-color="rgb(94.946289%, 94.946289%, 94.946289%)" offset="0.53125"/><stop stop-opacity="1" stop-color="rgb(94.639587%, 94.639587%, 94.639587%)" offset="0.5625"/><stop stop-opacity="1" stop-color="rgb(94.332886%, 94.332886%, 94.332886%)" offset="0.59375"/><stop stop-opacity="1" stop-color="rgb(94.026184%, 94.026184%, 94.026184%)" offset="0.625"/><stop stop-opacity="1" stop-color="rgb(93.721008%, 93.721008%, 93.721008%)" offset="0.65625"/><stop stop-opacity="1" stop-color="rgb(93.414307%, 93.414307%, 93.414307%)" offset="0.6875"/><stop stop-opacity="1" stop-color="rgb(93.107605%, 93.107605%, 93.107605%)" offset="0.71875"/><stop stop-opacity="1" stop-color="rgb(92.802429%, 92.802429%, 92.802429%)" offset="0.75"/><stop stop-opacity="1" stop-color="rgb(92.495728%, 92.495728%, 92.495728%)" offset="0.78125"/><stop stop-opacity="1" stop-color="rgb(92.189026%, 92.189026%, 92.189026%)" offset="0.8125"/><stop stop-opacity="1" stop-color="rgb(91.882324%, 91.882324%, 91.882324%)" offset="0.84375"/><stop stop-opacity="1" stop-color="rgb(91.577148%, 91.577148%, 91.577148%)" offset="0.875"/><stop stop-opacity="1" stop-color="rgb(91.270447%, 91.270447%, 91.270447%)" offset="0.90625"/><stop stop-opacity="1" stop-color="rgb(90.963745%, 90.963745%, 90.963745%)" offset="0.9375"/><stop stop-opacity="1" stop-color="rgb(90.658569%, 90.658569%, 90.658569%)" offset="0.96875"/><stop stop-opacity="1" stop-color="rgb(90.351868%, 90.351868%, 90.351868%)" offset="1"/></linearGradient></defs><path fill="#0a3d91" d="M 375 187.5 C 375 190.570312 374.925781 193.636719 374.773438 196.699219 C 374.625 199.765625 374.398438 202.824219 374.097656 205.878906 C 373.796875 208.933594 373.421875 211.976562 372.96875 215.011719 C 372.519531 218.046875 371.996094 221.070312 371.398438 224.078125 C 370.796875 227.089844 370.125 230.082031 369.378906 233.058594 C 368.636719 236.035156 367.816406 238.992188 366.925781 241.929688 C 366.035156 244.863281 365.074219 247.777344 364.039062 250.667969 C 363.003906 253.554688 361.902344 256.417969 360.726562 259.253906 C 359.554688 262.089844 358.308594 264.894531 356.996094 267.667969 C 355.6875 270.441406 354.308594 273.179688 352.859375 275.886719 C 351.414062 278.59375 349.902344 281.261719 348.324219 283.894531 C 346.746094 286.527344 345.105469 289.117188 343.402344 291.667969 C 341.695312 294.222656 339.929688 296.730469 338.101562 299.195312 C 336.273438 301.660156 334.386719 304.078125 332.4375 306.449219 C 330.492188 308.820312 328.488281 311.144531 326.429688 313.417969 C 324.367188 315.691406 322.253906 317.914062 320.082031 320.082031 C 317.914062 322.253906 315.691406 324.367188 313.417969 326.429688 C 311.144531 328.488281 308.820312 330.492188 306.449219 332.4375 C 304.078125 334.386719 301.660156 336.273438 299.195312 338.101562 C 296.730469 339.929688 294.222656 341.695312 291.667969 343.402344 C 289.117188 345.105469 286.527344 346.746094 283.894531 348.324219 C 281.261719 349.902344 278.59375 351.414062 275.886719 352.859375 C 273.179688 354.308594 270.441406 355.6875 267.667969 356.996094 C 264.894531 358.308594 262.089844 359.554688 259.253906 360.726562 C 256.417969 361.902344 253.554688 363.003906 250.667969 364.039062 C 247.777344 365.074219 244.863281 366.035156 241.929688 366.925781 C 238.992188 367.816406 236.035156 368.636719 233.058594 369.378906 C 230.082031 370.125 227.089844 370.796875 224.078125 371.398438 C 221.070312 371.996094 218.046875 372.519531 215.011719 372.96875 C 211.976562 373.421875 208.933594 373.796875 205.878906 374.097656 C 202.824219 374.398438 199.765625 374.625 196.699219 374.773438 C 193.636719 374.925781 190.570312 375 187.5 375 C 184.429688 375 181.363281 374.925781 178.300781 374.773438 C 175.234375 374.625 172.175781 374.398438 169.121094 374.097656 C 166.066406 373.796875 163.023438 373.421875 159.988281 372.96875 C 156.953125 372.519531 153.929688 371.996094 150.921875 371.398438 C 147.910156 370.796875 144.917969 370.125 141.941406 369.378906 C 138.964844 368.636719 136.007812 367.816406 133.070312 366.925781 C 130.136719 366.035156 127.222656 365.074219 124.332031 364.039062 C 121.445312 363.003906 118.582031 361.902344 115.746094 360.726562 C 112.910156 359.554688 110.105469 358.308594 107.332031 356.996094 C 104.558594 355.6875 101.820312 354.308594 99.113281 352.859375 C 96.40625 351.414062 93.738281 349.902344 91.105469 348.324219 C 88.472656 346.746094 85.882812 345.105469 83.332031 343.402344 C 80.777344 341.695312 78.269531 339.929688 75.804688 338.101562 C 73.339844 336.273438 70.921875 334.386719 68.550781 332.4375 C 66.179688 330.492188 63.855469 328.488281 61.582031 326.429688 C 59.308594 324.367188 57.085938 322.253906 54.917969 320.082031 C 52.746094 317.914062 50.632812 315.691406 48.570312 313.417969 C 46.511719 311.144531 44.507812 308.820312 42.558594 306.449219 C 40.613281 304.078125 38.726562 301.660156 36.898438 299.195312 C 35.070312 296.730469 33.304688 294.222656 31.597656 291.667969 C 29.894531 289.117188 28.253906 286.527344 26.675781 283.894531 C 25.097656 281.261719 23.585938 278.59375 22.140625 275.886719 C 20.691406 273.179688 19.3125 270.441406 18.003906 267.667969 C 16.691406 264.894531 15.445312 262.089844 14.273438 259.253906 C 13.097656 256.417969 11.996094 253.554688 10.960938 250.667969 C 9.925781 247.777344 8.964844 244.863281 8.074219 241.929688 C 7.183594 238.992188 6.363281 236.035156 5.621094 233.058594 C 4.875 230.082031 4.203125 227.089844 3.601562 224.078125 C 3.003906 221.070312 2.480469 218.046875 2.03125 215.011719 C 1.578125 211.976562 1.203125 208.933594 0.902344 205.878906 C 0.601562 202.824219 0.375 199.765625 0.226562 196.699219 C 0.0742188 193.636719 0 190.570312 0 187.5 C 0 184.429688 0.0742188 181.363281 0.226562 178.300781 C 0.375 175.234375 0.601562 172.175781 0.902344 169.121094 C 1.203125 166.066406 1.578125 163.023438 2.03125 159.988281 C 2.480469 156.953125 3.003906 153.929688 3.601562 150.921875 C 4.203125 147.910156 4.875 144.917969 5.617188 141.941406 C 6.363281 138.964844 7.183594 136.007812 8.074219 133.070312 C 8.964844 130.136719 9.925781 127.222656 10.960938 124.332031 C 11.996094 121.445312 13.097656 118.582031 14.273438 115.746094 C 15.445312 112.910156 16.691406 110.105469 18.003906 107.332031 C 19.3125 104.558594 20.691406 101.820312 22.140625 99.113281 C 23.585938 96.40625 25.097656 93.738281 26.675781 91.105469 C 28.253906 88.472656 29.894531 85.882812 31.597656 83.332031 C 33.304688 80.777344 35.070312 78.269531 36.898438 75.804688 C 38.726562 73.339844 40.613281 70.921875 42.558594 68.550781 C 44.507812 66.179688 46.511719 63.855469 48.570312 61.582031 C 50.632812 59.308594 52.746094 57.085938 54.917969 54.917969 C 57.085938 52.746094 59.308594 50.632812 61.582031 48.570312 C 63.855469 46.511719 66.179688 44.507812 68.550781 42.558594 C 70.921875 40.613281 73.339844 38.726562 75.804688 36.898438 C 78.269531 35.070312 80.777344 33.304688 83.332031 31.597656 C 85.882812 29.894531 88.472656 28.253906 91.105469 26.675781 C 93.738281 25.097656 96.40625 23.585938 99.113281 22.140625 C 101.820312 20.691406 104.558594 19.3125 107.332031 18.003906 C 110.105469 16.691406 112.910156 15.445312 115.746094 14.273438 C 118.582031 13.097656 121.445312 11.996094 124.332031 10.960938 C 127.222656 9.925781 130.136719 8.964844 133.070312 8.074219 C 136.007812 7.183594 138.964844 6.363281 141.941406 5.621094 C 144.917969 4.875 147.910156 4.203125 150.921875 3.601562 C 153.929688 3.003906 156.953125 2.480469 159.988281 2.03125 C 163.023438 1.578125 166.066406 1.203125 169.121094 0.902344 C 172.175781 0.601562 175.234375 0.375 178.300781 0.226562 C 181.363281 0.0742188 184.429688 0 187.5 0 C 190.570312 0 193.636719 0.0742188 196.699219 0.226562 C 199.765625 0.375 202.824219 0.601562 205.878906 0.902344 C 208.933594 1.203125 211.976562 1.578125 215.011719 2.03125 C 218.046875 2.480469 221.070312 3.003906 224.078125 3.601562 C 227.089844 4.203125 230.082031 4.875 233.058594 5.621094 C 236.035156 6.363281 238.992188 7.183594 241.929688 8.074219 C 244.863281 8.964844 247.777344 9.925781 250.667969 10.960938 C 253.554688 11.996094 256.417969 13.097656 259.253906 14.273438 C 262.089844 15.445312 264.894531 16.691406 267.667969 18.003906 C 270.441406 19.3125 273.179688 20.691406 275.886719 22.140625 C 278.59375 23.585938 281.261719 25.097656 283.894531 26.675781 C 286.527344 28.253906 289.117188 29.894531 291.667969 31.597656 C 294.222656 33.304688 296.730469 35.070312 299.195312 36.898438 C 301.660156 38.726562 304.078125 40.613281 306.449219 42.558594 C 308.820312 44.507812 311.144531 46.511719 313.417969 48.570312 C 315.691406 50.632812 317.914062 52.746094 320.082031 54.917969 C 322.253906 57.085938 324.367188 59.308594 326.429688 61.582031 C 328.488281 63.855469 330.492188 66.179688 332.4375 68.550781 C 334.386719 70.921875 336.273438 73.339844 338.101562 75.804688 C 339.929688 78.269531 341.695312 80.777344 343.402344 83.332031 C 345.105469 85.882812 346.746094 88.472656 348.324219 91.105469 C 349.902344 93.738281 351.414062 96.40625 352.859375 99.113281 C 354.308594 101.820312 355.6875 104.558594 356.996094 107.332031 C 358.308594 110.105469 359.554688 112.910156 360.726562 115.746094 C 361.902344 118.582031 363.003906 121.445312 364.039062 124.332031 C 365.074219 127.222656 366.035156 130.136719 366.925781 133.070312 C 367.816406 136.007812 368.636719 138.964844 369.378906 141.941406 C 370.125 144.917969 370.796875 147.910156 371.398438 150.921875 C 371.996094 153.929688 372.519531 156.953125 372.96875 159.988281 C 373.421875 163.023438 373.796875 166.066406 374.097656 169.121094 C 374.398438 172.175781 374.625 175.234375 374.773438 178.300781 C 374.925781 181.363281 375 184.429688 375 187.5 Z M 375 187.5 " fill-opacity="1" fill-rule="nonzero"/><g clip-path="url(#2f39ce7fc3)"><g clip-path="url(#3e967e3e90)"><path fill="url(#fd91a9fae4)" d="M 14.308594 14.308594 L 14.308594 360.691406 L 360.691406 360.691406 L 360.691406 14.308594 Z M 14.308594 14.308594 " fill-rule="nonzero"/></g></g><path fill="#ffde02" d="M 152.253906 80.832031 L 222.753906 80.832031 C 224.128906 80.832031 225.246094 81.957031 225.246094 83.332031 L 225.246094 149.753906 L 291.667969 149.753906 C 293.042969 149.753906 294.167969 150.871094 294.167969 152.253906 L 294.167969 222.753906 C 294.167969 224.128906 293.042969 225.246094 291.667969 225.246094 L 225.246094 225.246094 L 225.246094 291.667969 C 225.246094 293.054688 224.128906 294.167969 222.753906 294.167969 L 152.253906 294.167969 C 150.871094 294.167969 149.753906 293.054688 149.753906 291.667969 L 149.753906 225.246094 L 83.332031 225.246094 C 81.957031 225.246094 80.832031 224.128906 80.832031 222.753906 L 80.832031 152.253906 C 80.832031 150.871094 81.957031 149.753906 83.332031 149.753906 L 149.753906 149.753906 L 149.753906 83.332031 C 149.753906 81.957031 150.871094 80.832031 152.253906 80.832031 Z M 152.253906 80.832031 " fill-opacity="1" fill-rule="nonzero"/></svg>