<svg xmlns="http://www.w3.org/2000/svg" xmlns:xlink="http://www.w3.org/1999/xlink" width="1366" zoomAndPan="magnify" viewBox="0 0 1024.5 576" height="768" preserveAspectRatio="xMidYMid meet" version="1.0"><defs><clipPath id="e95b52059e"><path d="M 137.191406 10.28125 L 906.316406 10.28125 L 906.316406 565.757812 L 137.191406 565.757812 Z M 137.191406 10.28125 " clip-rule="nonzero"/></clipPath><clipPath id="536fe8cdce"><path d="M 137.191406 53 L 906.316406 53 L 906.316406 523 L 137.191406 523 Z M 137.191406 53 " clip-rule="nonzero"/></clipPath><clipPath id="339891bf08"><path d="M 137.191406 10.28125 L 522 10.28125 L 522 310 L 137.191406 310 Z M 137.191406 10.28125 " clip-rule="nonzero"/></clipPath></defs><g clip-path="url(#e95b52059e)"><path fill="#b22334" d="M 894.460938 53.097656 C 879.65625 27.660156 852.414062 10.382812 820.859375 10.382812 L 521.753906 10.382812 L 521.753906 53.097656 Z M 137.191406 437.515625 L 906.316406 437.515625 L 906.316406 480.226562 L 137.191406 480.226562 Z M 521.753906 266.664062 L 906.316406 266.664062 L 906.316406 309.375 L 521.753906 309.375 Z M 521.753906 181.234375 L 906.316406 181.234375 L 906.316406 223.949219 L 521.753906 223.949219 Z M 137.191406 352.089844 L 906.316406 352.089844 L 906.316406 394.800781 L 137.191406 394.800781 Z M 222.652344 565.65625 L 820.859375 565.65625 C 852.414062 565.65625 879.65625 548.378906 894.460938 522.941406 L 149.050781 522.941406 C 163.855469 548.378906 191.09375 565.65625 222.652344 565.65625 Z M 521.753906 95.808594 L 906.316406 95.808594 L 906.316406 138.523438 L 521.753906 138.523438 Z M 521.753906 95.808594 " fill-opacity="1" fill-rule="nonzero"/></g><g clip-path="url(#536fe8cdce)"><path fill="#eeeeee" d="M 138.644531 494.730469 C 139.007812 496.714844 139.414062 498.703125 139.90625 500.644531 C 140.460938 502.800781 141.144531 504.875 141.871094 506.96875 C 143.773438 512.5 146.082031 517.835938 148.984375 522.835938 L 149.050781 522.941406 L 894.460938 522.941406 L 894.503906 522.855469 C 897.386719 517.878906 899.695312 512.539062 901.597656 507.03125 C 902.324219 504.917969 903.027344 502.800781 903.582031 500.601562 C 904.074219 498.679688 904.480469 496.714844 904.84375 494.730469 C 905.71875 490.03125 906.316406 485.203125 906.316406 480.226562 L 137.191406 480.226562 C 137.191406 485.203125 137.792969 490.007812 138.644531 494.730469 Z M 137.191406 394.800781 L 906.316406 394.800781 L 906.316406 437.515625 L 137.191406 437.515625 Z M 137.191406 309.375 L 137.191406 352.089844 L 906.316406 352.089844 L 906.316406 309.375 Z M 521.753906 223.949219 L 906.316406 223.949219 L 906.316406 266.664062 L 521.753906 266.664062 Z M 521.753906 138.523438 L 906.316406 138.523438 L 906.316406 181.234375 L 521.753906 181.234375 Z M 137.191406 95.808594 C 137.191406 90.832031 137.832031 86.050781 138.644531 81.308594 C 137.792969 86.027344 137.191406 90.832031 137.191406 95.808594 Z M 149.050781 53.097656 L 148.984375 53.203125 Z M 139.925781 75.390625 C 140.460938 73.214844 141.210938 71.140625 141.894531 69.050781 C 141.167969 71.140625 140.484375 73.234375 139.925781 75.390625 Z M 521.753906 95.808594 L 906.316406 95.808594 C 906.316406 90.832031 905.71875 86.007812 904.84375 81.285156 C 904.480469 79.320312 904.09375 77.355469 903.582031 75.433594 C 903.007812 73.234375 902.324219 71.101562 901.574219 68.984375 C 899.671875 63.476562 897.367188 58.15625 894.480469 53.179688 C 894.503906 53.160156 894.480469 53.117188 894.460938 53.097656 L 521.753906 53.097656 Z M 521.753906 95.808594 " fill-opacity="1" fill-rule="nonzero"/></g><g clip-path="url(#339891bf08)"><path fill="#3c3b6e" d="M 521.753906 10.382812 L 222.652344 10.382812 C 175.457031 10.382812 137.191406 48.632812 137.191406 95.808594 L 137.191406 309.375 L 521.753906 309.375 Z M 521.753906 10.382812 " fill-opacity="1" fill-rule="nonzero"/></g><path fill="#ffffff" d="M 179.941406 68.601562 L 193.148438 78.191406 L 188.105469 93.671875 L 201.285156 84.105469 L 214.488281 93.671875 L 209.449219 78.191406 L 222.652344 68.601562 L 206.328125 68.601562 L 201.285156 53.097656 L 196.265625 68.601562 Z M 222.671875 111.3125 L 235.875 120.902344 L 230.832031 136.386719 L 244.015625 126.820312 L 257.21875 136.386719 L 252.175781 120.902344 L 265.378906 111.3125 L 249.058594 111.3125 L 244.015625 95.808594 L 238.996094 111.3125 Z M 308.128906 111.3125 L 321.335938 120.902344 L 316.292969 136.386719 L 329.472656 126.820312 L 342.675781 136.386719 L 337.636719 120.902344 L 350.839844 111.3125 L 334.515625 111.3125 L 329.472656 95.808594 L 324.453125 111.3125 Z M 393.589844 111.3125 L 406.792969 120.902344 L 401.75 136.386719 L 414.933594 126.820312 L 428.136719 136.386719 L 423.09375 120.902344 L 436.296875 111.3125 L 419.972656 111.3125 L 414.933594 95.808594 L 409.910156 111.3125 Z M 222.671875 196.742188 L 235.875 206.328125 L 230.832031 221.8125 L 244.015625 212.246094 L 257.21875 221.8125 L 252.175781 206.328125 L 265.378906 196.742188 L 249.058594 196.742188 L 244.015625 181.234375 L 238.996094 196.742188 Z M 308.128906 196.742188 L 321.335938 206.328125 L 316.292969 221.8125 L 329.472656 212.246094 L 342.675781 221.8125 L 337.636719 206.328125 L 350.839844 196.742188 L 334.515625 196.742188 L 329.472656 181.234375 L 324.453125 196.742188 Z M 393.589844 196.742188 L 406.792969 206.328125 L 401.75 221.8125 L 414.933594 212.246094 L 428.136719 221.8125 L 423.09375 206.328125 L 436.296875 196.742188 L 419.972656 196.742188 L 414.933594 181.234375 L 409.910156 196.742188 Z M 265.402344 68.601562 L 278.605469 78.191406 L 273.5625 93.671875 L 286.746094 84.105469 L 299.949219 93.671875 L 294.90625 78.191406 L 308.109375 68.601562 L 291.785156 68.601562 L 286.746094 53.097656 L 281.722656 68.601562 Z M 350.859375 68.601562 L 364.0625 78.191406 L 359.019531 93.671875 L 372.203125 84.105469 L 385.40625 93.671875 L 380.363281 78.191406 L 393.566406 68.601562 L 377.246094 68.601562 L 372.203125 53.097656 L 367.183594 68.601562 Z M 436.316406 68.601562 L 449.523438 78.191406 L 444.480469 93.671875 L 457.660156 84.105469 L 470.863281 93.671875 L 465.824219 78.191406 L 479.027344 68.601562 L 462.703125 68.601562 L 457.660156 53.097656 L 452.640625 68.601562 Z M 179.941406 154.027344 L 193.148438 163.617188 L 188.105469 179.101562 L 201.285156 169.53125 L 214.488281 179.101562 L 209.449219 163.617188 L 222.652344 154.027344 L 206.328125 154.027344 L 201.285156 138.523438 L 196.265625 154.027344 Z M 273.5625 179.101562 L 286.746094 169.53125 L 299.949219 179.101562 L 294.90625 163.617188 L 308.109375 154.027344 L 291.785156 154.027344 L 286.746094 138.523438 L 281.722656 154.027344 L 265.402344 154.027344 L 278.605469 163.617188 Z M 350.859375 154.027344 L 364.0625 163.617188 L 359.019531 179.101562 L 372.203125 169.53125 L 385.40625 179.101562 L 380.363281 163.617188 L 393.566406 154.027344 L 377.246094 154.027344 L 372.203125 138.523438 L 367.183594 154.027344 Z M 436.316406 154.027344 L 449.523438 163.617188 L 444.480469 179.101562 L 457.660156 169.53125 L 470.863281 179.101562 L 465.824219 163.617188 L 479.027344 154.027344 L 462.703125 154.027344 L 457.660156 138.523438 L 452.640625 154.027344 Z M 179.941406 239.453125 L 193.148438 249.042969 L 188.105469 264.527344 L 201.285156 254.957031 L 214.488281 264.527344 L 209.449219 249.042969 L 222.652344 239.453125 L 206.328125 239.453125 L 201.285156 223.949219 L 196.265625 239.453125 Z M 273.5625 264.527344 L 286.746094 254.957031 L 299.949219 264.527344 L 294.90625 249.042969 L 308.109375 239.453125 L 291.785156 239.453125 L 286.746094 223.949219 L 281.722656 239.453125 L 265.402344 239.453125 L 278.605469 249.042969 Z M 350.859375 239.453125 L 364.0625 249.042969 L 359.019531 264.527344 L 372.203125 254.957031 L 385.40625 264.527344 L 380.363281 249.042969 L 393.566406 239.453125 L 377.246094 239.453125 L 372.203125 223.949219 L 367.183594 239.453125 Z M 436.316406 239.453125 L 449.523438 249.042969 L 444.480469 264.527344 L 457.660156 254.957031 L 470.863281 264.527344 L 465.824219 249.042969 L 479.027344 239.453125 L 462.703125 239.453125 L 457.660156 223.949219 L 452.640625 239.453125 Z M 436.316406 239.453125 " fill-opacity="1" fill-rule="nonzero"/></svg>