<svg xmlns="http://www.w3.org/2000/svg" xmlns:xlink="http://www.w3.org/1999/xlink" width="1366" zoomAndPan="magnify" viewBox="0 0 1024.5 576" height="768" preserveAspectRatio="xMidYMid meet" version="1.0"><defs><clipPath id="f8f3ef1be8"><path d="M 226.234375 19.933594 L 762.222656 19.933594 L 762.222656 555.921875 L 226.234375 555.921875 Z M 226.234375 19.933594 " clip-rule="nonzero"/></clipPath></defs><g clip-path="url(#f8f3ef1be8)"><path fill="#bfbdbc" d="M 762.21875 287.933594 C 762.21875 435.9375 642.238281 555.921875 494.230469 555.921875 C 346.226562 555.921875 226.246094 435.9375 226.246094 287.933594 C 226.246094 139.925781 346.226562 19.945312 494.230469 19.945312 C 642.238281 19.945312 762.21875 139.925781 762.21875 287.933594 " fill-opacity="1" fill-rule="nonzero"/></g><path fill="#ffffff" d="M 589.429688 203.214844 C 589.429688 255.976562 546.652344 298.75 493.890625 298.75 C 441.125 298.75 398.351562 255.976562 398.351562 203.214844 C 398.351562 150.449219 441.125 107.675781 493.890625 107.675781 C 546.652344 107.675781 589.429688 150.449219 589.429688 203.214844 " fill-opacity="1" fill-rule="nonzero"/><path fill="#ffffff" d="M 493.886719 543.199219 C 561.492188 543.199219 623.242188 518.152344 670.390625 476.847656 C 655.753906 381.285156 612.660156 314.964844 493.886719 314.964844 C 378.453125 314.964844 333.769531 381.566406 318.074219 477.460938 C 365.132812 518.402344 426.613281 543.199219 493.886719 543.199219 " fill-opacity="1" fill-rule="nonzero"/></svg>