<svg xmlns="http://www.w3.org/2000/svg" xmlns:xlink="http://www.w3.org/1999/xlink" width="500" zoomAndPan="magnify" viewBox="0 0 375 374.999991" height="500" preserveAspectRatio="xMidYMid meet" version="1.0"><defs><clipPath id="b9c794a48a"><path d="M 68.226562 136.4375 L 300.738281 136.4375 L 300.738281 368.25 L 68.226562 368.25 Z M 68.226562 136.4375 " clip-rule="nonzero"/></clipPath><clipPath id="d54802179f"><path d="M 300.402344 252.371094 C 300.402344 316.378906 248.472656 368.269531 184.410156 368.269531 C 120.351562 368.269531 68.417969 316.378906 68.417969 252.371094 C 68.417969 188.355469 120.351562 136.464844 184.410156 136.464844 C 248.472656 136.464844 300.402344 188.355469 300.402344 252.371094 " clip-rule="nonzero"/></clipPath><clipPath id="ab3a55e238"><path d="M 193 184.0625 L 300.738281 184.0625 L 300.738281 238 L 193 238 Z M 193 184.0625 " clip-rule="nonzero"/></clipPath><clipPath id="36a2fbeb55"><path d="M 300.402344 252.371094 C 300.402344 316.378906 248.472656 368.269531 184.410156 368.269531 C 120.351562 368.269531 68.417969 316.378906 68.417969 252.371094 C 68.417969 188.355469 120.351562 136.464844 184.410156 136.464844 C 248.472656 136.464844 300.402344 188.355469 300.402344 252.371094 " clip-rule="nonzero"/></clipPath><clipPath id="6d08c8d9b3"><path d="M 68.226562 211 L 156 211 L 156 241.339844 L 68.226562 241.339844 Z M 68.226562 211 " clip-rule="nonzero"/></clipPath><clipPath id="17f51e2d2f"><path d="M 300.402344 252.371094 C 300.402344 316.378906 248.472656 368.269531 184.410156 368.269531 C 120.351562 368.269531 68.417969 316.378906 68.417969 252.371094 C 68.417969 188.355469 120.351562 136.464844 184.410156 136.464844 C 248.472656 136.464844 300.402344 188.355469 300.402344 252.371094 " clip-rule="nonzero"/></clipPath><clipPath id="144e2cee33"><path d="M 68.226562 260.644531 L 200.90625 260.644531 L 200.90625 309.554688 L 68.226562 309.554688 Z M 68.226562 260.644531 " clip-rule="nonzero"/></clipPath><clipPath id="03acbbacd9"><path d="M 300.402344 252.371094 C 300.402344 316.378906 248.472656 368.269531 184.410156 368.269531 C 120.351562 368.269531 68.417969 316.378906 68.417969 252.371094 C 68.417969 188.355469 120.351562 136.464844 184.410156 136.464844 C 248.472656 136.464844 300.402344 188.355469 300.402344 252.371094 " clip-rule="nonzero"/></clipPath><clipPath id="ad3ce2a3e5"><path d="M 171.28125 306.339844 L 300.738281 306.339844 L 300.738281 347.527344 L 171.28125 347.527344 Z M 171.28125 306.339844 " clip-rule="nonzero"/></clipPath><clipPath id="cffa95ee4a"><path d="M 300.402344 252.371094 C 300.402344 316.378906 248.472656 368.269531 184.410156 368.269531 C 120.351562 368.269531 68.417969 316.378906 68.417969 252.371094 C 68.417969 188.355469 120.351562 136.464844 184.410156 136.464844 C 248.472656 136.464844 300.402344 188.355469 300.402344 252.371094 " clip-rule="nonzero"/></clipPath><clipPath id="a7dfa0bdbf"><path d="M 68.226562 151 L 174.5 151 L 174.5 191.785156 L 68.226562 191.785156 Z M 68.226562 151 " clip-rule="nonzero"/></clipPath><clipPath id="2f75428f2a"><path d="M 300.402344 252.371094 C 300.402344 316.378906 248.472656 368.269531 184.410156 368.269531 C 120.351562 368.269531 68.417969 316.378906 68.417969 252.371094 C 68.417969 188.355469 120.351562 136.464844 184.410156 136.464844 C 248.472656 136.464844 300.402344 188.355469 300.402344 252.371094 " clip-rule="nonzero"/></clipPath><clipPath id="8e724504a0"><path d="M 215.078125 274 L 260.808594 274 L 260.808594 289.605469 L 215.078125 289.605469 Z M 215.078125 274 " clip-rule="nonzero"/></clipPath><clipPath id="afd2f7ac7a"><path d="M 300.402344 252.371094 C 300.402344 316.378906 248.472656 368.269531 184.410156 368.269531 C 120.351562 368.269531 68.417969 316.378906 68.417969 252.371094 C 68.417969 188.355469 120.351562 136.464844 184.410156 136.464844 C 248.472656 136.464844 300.402344 188.355469 300.402344 252.371094 " clip-rule="nonzero"/></clipPath><clipPath id="d3ee38a3c1"><path d="M 175.144531 183.417969 L 207 183.417969 L 207 194.359375 L 175.144531 194.359375 Z M 175.144531 183.417969 " clip-rule="nonzero"/></clipPath><clipPath id="617d6ab9b7"><path d="M 300.402344 252.371094 C 300.402344 316.378906 248.472656 368.269531 184.410156 368.269531 C 120.351562 368.269531 68.417969 316.378906 68.417969 252.371094 C 68.417969 188.355469 120.351562 136.464844 184.410156 136.464844 C 248.472656 136.464844 300.402344 188.355469 300.402344 252.371094 " clip-rule="nonzero"/></clipPath><clipPath id="54db02d5e1"><path d="M 242.773438 250.347656 L 274 250.347656 L 274 261 L 242.773438 261 Z M 242.773438 250.347656 " clip-rule="nonzero"/></clipPath><clipPath id="a14fa43db4"><path d="M 300.402344 252.371094 C 300.402344 316.378906 248.472656 368.269531 184.410156 368.269531 C 120.351562 368.269531 68.417969 316.378906 68.417969 252.371094 C 68.417969 188.355469 120.351562 136.464844 184.410156 136.464844 C 248.472656 136.464844 300.402344 188.355469 300.402344 252.371094 " clip-rule="nonzero"/></clipPath><clipPath id="46ae955017"><path d="M 89.484375 293 L 121.6875 293 L 121.6875 303.765625 L 89.484375 303.765625 Z M 89.484375 293 " clip-rule="nonzero"/></clipPath><clipPath id="ce65b9e619"><path d="M 300.402344 252.371094 C 300.402344 316.378906 248.472656 368.269531 184.410156 368.269531 C 120.351562 368.269531 68.417969 316.378906 68.417969 252.371094 C 68.417969 188.355469 120.351562 136.464844 184.410156 136.464844 C 248.472656 136.464844 300.402344 188.355469 300.402344 252.371094 " clip-rule="nonzero"/></clipPath><clipPath id="103fb236bb"><path d="M 206.0625 222.03125 L 240.195312 222.03125 L 240.195312 233.617188 L 206.0625 233.617188 Z M 206.0625 222.03125 " clip-rule="nonzero"/></clipPath><clipPath id="ed17e0f812"><path d="M 300.402344 252.371094 C 300.402344 316.378906 248.472656 368.269531 184.410156 368.269531 C 120.351562 368.269531 68.417969 316.378906 68.417969 252.371094 C 68.417969 188.355469 120.351562 136.464844 184.410156 136.464844 C 248.472656 136.464844 300.402344 188.355469 300.402344 252.371094 " clip-rule="nonzero"/></clipPath><clipPath id="099169a91b"><path d="M 116.535156 234.902344 L 130.703125 234.902344 L 130.703125 239.40625 L 116.535156 239.40625 Z M 116.535156 234.902344 " clip-rule="nonzero"/></clipPath><clipPath id="22e780d71c"><path d="M 300.402344 252.371094 C 300.402344 316.378906 248.472656 368.269531 184.410156 368.269531 C 120.351562 368.269531 68.417969 316.378906 68.417969 252.371094 C 68.417969 188.355469 120.351562 136.464844 184.410156 136.464844 C 248.472656 136.464844 300.402344 188.355469 300.402344 252.371094 " clip-rule="nonzero"/></clipPath><clipPath id="f3853221e4"><path d="M 148.09375 157.03125 L 165.484375 157.03125 L 165.484375 162.824219 L 148.09375 162.824219 Z M 148.09375 157.03125 " clip-rule="nonzero"/></clipPath><clipPath id="173ebff8e0"><path d="M 300.402344 252.371094 C 300.402344 316.378906 248.472656 368.269531 184.410156 368.269531 C 120.351562 368.269531 68.417969 316.378906 68.417969 252.371094 C 68.417969 188.355469 120.351562 136.464844 184.410156 136.464844 C 248.472656 136.464844 300.402344 188.355469 300.402344 252.371094 " clip-rule="nonzero"/></clipPath><clipPath id="a342d7ee73"><path d="M 141.652344 339.804688 L 161.621094 339.804688 L 161.621094 346 L 141.652344 346 Z M 141.652344 339.804688 " clip-rule="nonzero"/></clipPath><clipPath id="dd7ef108d7"><path d="M 300.402344 252.371094 C 300.402344 316.378906 248.472656 368.269531 184.410156 368.269531 C 120.351562 368.269531 68.417969 316.378906 68.417969 252.371094 C 68.417969 188.355469 120.351562 136.464844 184.410156 136.464844 C 248.472656 136.464844 300.402344 188.355469 300.402344 252.371094 " clip-rule="nonzero"/></clipPath><clipPath id="e0d1bb03c7"><path d="M 205.417969 159.605469 L 225.382812 159.605469 L 225.382812 166 L 205.417969 166 Z M 205.417969 159.605469 " clip-rule="nonzero"/></clipPath><clipPath id="dd6d06bc40"><path d="M 300.402344 252.371094 C 300.402344 316.378906 248.472656 368.269531 184.410156 368.269531 C 120.351562 368.269531 68.417969 316.378906 68.417969 252.371094 C 68.417969 188.355469 120.351562 136.464844 184.410156 136.464844 C 248.472656 136.464844 300.402344 188.355469 300.402344 252.371094 " clip-rule="nonzero"/></clipPath><clipPath id="88451ce4b7"><path d="M 113 318 L 151.957031 318 L 151.957031 330.792969 L 113 330.792969 Z M 113 318 " clip-rule="nonzero"/></clipPath><clipPath id="8a8bae49d7"><path d="M 300.402344 252.371094 C 300.402344 316.378906 248.472656 368.269531 184.410156 368.269531 C 120.351562 368.269531 68.417969 316.378906 68.417969 252.371094 C 68.417969 188.355469 120.351562 136.464844 184.410156 136.464844 C 248.472656 136.464844 300.402344 188.355469 300.402344 252.371094 " clip-rule="nonzero"/></clipPath><clipPath id="bd0d373ddd"><path d="M 201.550781 311.488281 L 219.585938 311.488281 L 219.585938 317.28125 L 201.550781 317.28125 Z M 201.550781 311.488281 " clip-rule="nonzero"/></clipPath><clipPath id="02141075eb"><path d="M 300.402344 252.371094 C 300.402344 316.378906 248.472656 368.269531 184.410156 368.269531 C 120.351562 368.269531 68.417969 316.378906 68.417969 252.371094 C 68.417969 188.355469 120.351562 136.464844 184.410156 136.464844 C 248.472656 136.464844 300.402344 188.355469 300.402344 252.371094 " clip-rule="nonzero"/></clipPath><clipPath id="9cbe6886cc"><path d="M 222 311.488281 L 231.824219 311.488281 L 231.824219 317.28125 L 222 317.28125 Z M 222 311.488281 " clip-rule="nonzero"/></clipPath><clipPath id="99b80415b1"><path d="M 300.402344 252.371094 C 300.402344 316.378906 248.472656 368.269531 184.410156 368.269531 C 120.351562 368.269531 68.417969 316.378906 68.417969 252.371094 C 68.417969 188.355469 120.351562 136.464844 184.410156 136.464844 C 248.472656 136.464844 300.402344 188.355469 300.402344 252.371094 " clip-rule="nonzero"/></clipPath><clipPath id="c5d2abc210"><path d="M 107.515625 215 L 120.398438 215 L 120.398438 219.457031 L 107.515625 219.457031 Z M 107.515625 215 " clip-rule="nonzero"/></clipPath><clipPath id="fee4c4fd9d"><path d="M 300.402344 252.371094 C 300.402344 316.378906 248.472656 368.269531 184.410156 368.269531 C 120.351562 368.269531 68.417969 316.378906 68.417969 252.371094 C 68.417969 188.355469 120.351562 136.464844 184.410156 136.464844 C 248.472656 136.464844 300.402344 188.355469 300.402344 252.371094 " clip-rule="nonzero"/></clipPath><clipPath id="3682f6a270"><path d="M 99.144531 215 L 106.230469 215 L 106.230469 219.457031 L 99.144531 219.457031 Z M 99.144531 215 " clip-rule="nonzero"/></clipPath><clipPath id="6fba71b21c"><path d="M 300.402344 252.371094 C 300.402344 316.378906 248.472656 368.269531 184.410156 368.269531 C 120.351562 368.269531 68.417969 316.378906 68.417969 252.371094 C 68.417969 188.355469 120.351562 136.464844 184.410156 136.464844 C 248.472656 136.464844 300.402344 188.355469 300.402344 252.371094 " clip-rule="nonzero"/></clipPath><clipPath id="11f222474a"><path d="M 108.804688 183 L 126.839844 183 L 126.839844 189 L 108.804688 189 Z M 108.804688 183 " clip-rule="nonzero"/></clipPath><clipPath id="0a1c7b6684"><path d="M 300.402344 252.371094 C 300.402344 316.378906 248.472656 368.269531 184.410156 368.269531 C 120.351562 368.269531 68.417969 316.378906 68.417969 252.371094 C 68.417969 188.355469 120.351562 136.464844 184.410156 136.464844 C 248.472656 136.464844 300.402344 188.355469 300.402344 252.371094 " clip-rule="nonzero"/></clipPath><clipPath id="6222f0a196"><path d="M 129 183 L 139 183 L 139 189 L 129 189 Z M 129 183 " clip-rule="nonzero"/></clipPath><clipPath id="1fd994531b"><path d="M 300.402344 252.371094 C 300.402344 316.378906 248.472656 368.269531 184.410156 368.269531 C 120.351562 368.269531 68.417969 316.378906 68.417969 252.371094 C 68.417969 188.355469 120.351562 136.464844 184.410156 136.464844 C 248.472656 136.464844 300.402344 188.355469 300.402344 252.371094 " clip-rule="nonzero"/></clipPath><clipPath id="61cca2072a"><path d="M 161.621094 265.792969 L 179.652344 265.792969 L 179.652344 271.585938 L 161.621094 271.585938 Z M 161.621094 265.792969 " clip-rule="nonzero"/></clipPath><clipPath id="7738708d14"><path d="M 300.402344 252.371094 C 300.402344 316.378906 248.472656 368.269531 184.410156 368.269531 C 120.351562 368.269531 68.417969 316.378906 68.417969 252.371094 C 68.417969 188.355469 120.351562 136.464844 184.410156 136.464844 C 248.472656 136.464844 300.402344 188.355469 300.402344 252.371094 " clip-rule="nonzero"/></clipPath><clipPath id="09cf84a593"><path d="M 181.585938 265.792969 L 191.890625 265.792969 L 191.890625 271.585938 L 181.585938 271.585938 Z M 181.585938 265.792969 " clip-rule="nonzero"/></clipPath><clipPath id="f0bfcaaef7"><path d="M 300.402344 252.371094 C 300.402344 316.378906 248.472656 368.269531 184.410156 368.269531 C 120.351562 368.269531 68.417969 316.378906 68.417969 252.371094 C 68.417969 188.355469 120.351562 136.464844 184.410156 136.464844 C 248.472656 136.464844 300.402344 188.355469 300.402344 252.371094 " clip-rule="nonzero"/></clipPath><clipPath id="e405c6a962"><path d="M 87 207 L 300.738281 207 L 300.738281 368.25 L 87 368.25 Z M 87 207 " clip-rule="nonzero"/></clipPath><clipPath id="8fcbb010c7"><path d="M 300.402344 252.371094 C 300.402344 316.378906 248.472656 368.269531 184.410156 368.269531 C 120.351562 368.269531 68.417969 316.378906 68.417969 252.371094 C 68.417969 188.355469 120.351562 136.464844 184.410156 136.464844 C 248.472656 136.464844 300.402344 188.355469 300.402344 252.371094 " clip-rule="nonzero"/></clipPath><clipPath id="adac1705de"><path d="M 283.351562 196.289062 L 291.722656 196.289062 L 291.722656 236.832031 L 283.351562 236.832031 Z M 283.351562 196.289062 " clip-rule="nonzero"/></clipPath><clipPath id="afde085851"><path d="M 300.402344 252.371094 C 300.402344 316.378906 248.472656 368.269531 184.410156 368.269531 C 120.351562 368.269531 68.417969 316.378906 68.417969 252.371094 C 68.417969 188.355469 120.351562 136.464844 184.410156 136.464844 C 248.472656 136.464844 300.402344 188.355469 300.402344 252.371094 " clip-rule="nonzero"/></clipPath><clipPath id="4dcaa8a408"><path d="M 171.28125 306.339844 L 287 306.339844 L 287 347.527344 L 171.28125 347.527344 Z M 171.28125 306.339844 " clip-rule="nonzero"/></clipPath><clipPath id="868e9a448f"><path d="M 300.402344 252.371094 C 300.402344 316.378906 248.472656 368.269531 184.410156 368.269531 C 120.351562 368.269531 68.417969 316.378906 68.417969 252.371094 C 68.417969 188.355469 120.351562 136.464844 184.410156 136.464844 C 248.472656 136.464844 300.402344 188.355469 300.402344 252.371094 " clip-rule="nonzero"/></clipPath><clipPath id="2a9c5aeee8"><path d="M 256 283.171875 L 260.808594 283.171875 L 260.808594 288.960938 L 256 288.960938 Z M 256 283.171875 " clip-rule="nonzero"/></clipPath><clipPath id="b18951a416"><path d="M 300.402344 252.371094 C 300.402344 316.378906 248.472656 368.269531 184.410156 368.269531 C 120.351562 368.269531 68.417969 316.378906 68.417969 252.371094 C 68.417969 188.355469 120.351562 136.464844 184.410156 136.464844 C 248.472656 136.464844 300.402344 188.355469 300.402344 252.371094 " clip-rule="nonzero"/></clipPath><clipPath id="f417609cdc"><path d="M 141.652344 339.804688 L 161.621094 339.804688 L 161.621094 346 L 141.652344 346 Z M 141.652344 339.804688 " clip-rule="nonzero"/></clipPath><clipPath id="62716e38cd"><path d="M 300.402344 252.371094 C 300.402344 316.378906 248.472656 368.269531 184.410156 368.269531 C 120.351562 368.269531 68.417969 316.378906 68.417969 252.371094 C 68.417969 188.355469 120.351562 136.464844 184.410156 136.464844 C 248.472656 136.464844 300.402344 188.355469 300.402344 252.371094 " clip-rule="nonzero"/></clipPath><clipPath id="a16351e51e"><path d="M 115 328.863281 L 121 328.863281 L 121 330.792969 L 115 330.792969 Z M 115 328.863281 " clip-rule="nonzero"/></clipPath><clipPath id="c2ffaef8df"><path d="M 300.402344 252.371094 C 300.402344 316.378906 248.472656 368.269531 184.410156 368.269531 C 120.351562 368.269531 68.417969 316.378906 68.417969 252.371094 C 68.417969 188.355469 120.351562 136.464844 184.410156 136.464844 C 248.472656 136.464844 300.402344 188.355469 300.402344 252.371094 " clip-rule="nonzero"/></clipPath><clipPath id="4483e58999"><path d="M 223 312.128906 L 231.824219 312.128906 L 231.824219 317.28125 L 223 317.28125 Z M 223 312.128906 " clip-rule="nonzero"/></clipPath><clipPath id="cee027c741"><path d="M 300.402344 252.371094 C 300.402344 316.378906 248.472656 368.269531 184.410156 368.269531 C 120.351562 368.269531 68.417969 316.378906 68.417969 252.371094 C 68.417969 188.355469 120.351562 136.464844 184.410156 136.464844 C 248.472656 136.464844 300.402344 188.355469 300.402344 252.371094 " clip-rule="nonzero"/></clipPath><clipPath id="dc560f4470"><path d="M 349.046875 149.308594 L 375 149.308594 L 375 184 L 349.046875 184 Z M 349.046875 149.308594 " clip-rule="nonzero"/></clipPath></defs><g clip-path="url(#b9c794a48a)"><g clip-path="url(#d54802179f)"><path fill="#17a9cb" d="M 300.402344 252.371094 C 300.402344 316.378906 248.472656 368.269531 184.410156 368.269531 C 120.351562 368.269531 68.417969 316.378906 68.417969 252.371094 C 68.417969 188.355469 120.351562 136.464844 184.410156 136.464844 C 248.472656 136.464844 300.402344 188.355469 300.402344 252.371094 " fill-opacity="1" fill-rule="nonzero"/></g></g><g clip-path="url(#ab3a55e238)"><g clip-path="url(#36a2fbeb55)"><path fill="#ffffff" d="M 303.074219 184.570312 L 232.957031 184.570312 C 226.742188 184.570312 221.703125 189.605469 221.703125 195.8125 C 221.703125 202.023438 226.742188 207.054688 232.957031 207.054688 L 245.433594 207.054688 C 247.328125 207.054688 248.867188 208.59375 248.867188 210.488281 C 248.867188 212.386719 247.328125 213.921875 245.433594 213.921875 L 204.886719 213.921875 C 198.34375 213.921875 193.039062 219.21875 193.039062 225.757812 C 193.039062 232.292969 198.34375 237.59375 204.886719 237.59375 L 278.558594 237.59375 C 285.097656 237.59375 290.402344 232.292969 290.402344 225.757812 C 290.402344 219.21875 285.097656 213.921875 278.558594 213.921875 L 265.171875 213.921875 C 263.273438 213.921875 261.738281 212.386719 261.738281 210.488281 C 261.738281 208.59375 263.273438 207.054688 265.171875 207.054688 L 303.074219 207.054688 C 309.289062 207.054688 314.328125 202.023438 314.328125 195.8125 C 314.328125 189.605469 309.289062 184.570312 303.074219 184.570312 " fill-opacity="1" fill-rule="nonzero"/></g></g><g clip-path="url(#6d08c8d9b3)"><g clip-path="url(#17f51e2d2f)"><path fill="#ffffff" d="M 149.429688 228.796875 L 110.648438 228.796875 C 109.5625 228.796875 108.683594 227.917969 108.683594 226.832031 C 108.683594 225.746094 109.5625 224.867188 110.648438 224.867188 L 135.605469 224.867188 C 139.28125 224.867188 142.488281 222.097656 142.726562 218.429688 C 142.988281 214.417969 139.804688 211.082031 135.839844 211.082031 L 40.800781 211.082031 C 37.125 211.082031 33.917969 213.851562 33.679688 217.515625 C 33.421875 221.527344 36.601562 224.867188 40.5625 224.867188 L 100.894531 224.867188 C 101.980469 224.867188 102.859375 225.746094 102.859375 226.832031 C 102.859375 227.917969 101.980469 228.796875 100.894531 228.796875 L 95.632812 228.796875 C 92.210938 228.796875 89.222656 231.433594 89.121094 234.851562 C 89.015625 238.390625 91.851562 241.289062 95.371094 241.289062 L 149.691406 241.289062 C 153.207031 241.289062 156.046875 238.390625 155.941406 234.851562 C 155.835938 231.433594 152.855469 228.796875 149.429688 228.796875 " fill-opacity="1" fill-rule="nonzero"/></g></g><g clip-path="url(#144e2cee33)"><g clip-path="url(#03acbbacd9)"><path fill="#ffffff" d="M 191.378906 260.691406 L 46.585938 260.691406 C 41.535156 260.691406 37.203125 264.640625 37.109375 269.691406 C 37.015625 274.832031 41.160156 279.027344 46.28125 279.027344 L 101.15625 279.027344 C 103.21875 279.027344 104.894531 280.699219 104.894531 282.761719 C 104.894531 284.820312 103.21875 286.492188 101.15625 286.492188 L 37.640625 286.492188 C 31.550781 286.492188 26.308594 291.167969 26.023438 297.246094 C 25.71875 303.734375 30.894531 309.089844 37.320312 309.089844 L 136.863281 309.089844 C 142.953125 309.089844 148.191406 304.414062 148.480469 298.335938 C 148.785156 291.847656 143.609375 286.492188 137.183594 286.492188 L 125.269531 286.492188 C 123.207031 286.492188 121.535156 284.820312 121.535156 282.761719 C 121.535156 280.699219 123.207031 279.027344 125.269531 279.027344 L 191.074219 279.027344 C 196.128906 279.027344 200.460938 275.082031 200.554688 270.03125 C 200.648438 264.890625 196.503906 260.691406 191.378906 260.691406 " fill-opacity="1" fill-rule="nonzero"/></g></g><g clip-path="url(#ad3ce2a3e5)"><g clip-path="url(#cffa95ee4a)"><path fill="#ffffff" d="M 305.242188 306.824219 L 202.4375 306.824219 C 197.4375 306.824219 193.144531 310.734375 193.054688 315.730469 C 192.960938 320.820312 197.0625 324.976562 202.136719 324.976562 L 211.511719 324.976562 C 213.085938 324.976562 214.359375 326.25 214.359375 327.820312 C 214.359375 329.390625 213.085938 330.660156 211.511719 330.660156 L 179.898438 330.660156 C 175.285156 330.660156 171.546875 334.398438 171.546875 339.007812 C 171.546875 343.613281 175.285156 347.347656 179.898438 347.347656 L 230.03125 347.347656 C 234.644531 347.347656 238.378906 343.613281 238.378906 339.007812 C 238.378906 334.398438 234.644531 330.660156 230.03125 330.660156 L 223.363281 330.660156 C 221.796875 330.660156 220.519531 329.390625 220.519531 327.820312 C 220.519531 326.25 221.796875 324.976562 223.363281 324.976562 L 304.941406 324.976562 C 309.941406 324.976562 314.234375 321.066406 314.324219 316.070312 C 314.417969 310.980469 310.316406 306.824219 305.242188 306.824219 " fill-opacity="1" fill-rule="nonzero"/></g></g><g clip-path="url(#a7dfa0bdbf)"><g clip-path="url(#2f75428f2a)"><path fill="#ffffff" d="M 40.542969 191.679688 L 143.351562 191.679688 C 148.351562 191.679688 152.640625 187.769531 152.734375 182.769531 C 152.824219 177.679688 148.726562 173.523438 143.652344 173.523438 L 134.273438 173.523438 C 132.703125 173.523438 131.429688 172.253906 131.429688 170.679688 C 131.429688 169.113281 132.703125 167.839844 134.273438 167.839844 L 165.890625 167.839844 C 170.5 167.839844 174.238281 164.101562 174.238281 159.496094 C 174.238281 154.890625 170.5 151.152344 165.890625 151.152344 L 115.757812 151.152344 C 111.144531 151.152344 107.40625 154.890625 107.40625 159.496094 C 107.40625 164.101562 111.144531 167.839844 115.757812 167.839844 L 122.421875 167.839844 C 123.992188 167.839844 125.265625 169.113281 125.265625 170.679688 C 125.265625 172.253906 123.992188 173.523438 122.421875 173.523438 L 40.84375 173.523438 C 35.84375 173.523438 31.554688 177.433594 31.460938 182.429688 C 31.367188 187.523438 35.472656 191.679688 40.542969 191.679688 " fill-opacity="1" fill-rule="nonzero"/></g></g><g clip-path="url(#8e724504a0)"><g clip-path="url(#afd2f7ac7a)"><path fill="#ffffff" d="M 252.707031 289.378906 L 223.125 289.378906 C 218.882812 289.378906 215.449219 285.941406 215.449219 281.707031 C 215.449219 277.46875 218.882812 274.03125 223.125 274.03125 L 252.707031 274.03125 C 256.949219 274.03125 260.386719 277.46875 260.386719 281.707031 C 260.386719 285.941406 256.949219 289.378906 252.707031 289.378906 " fill-opacity="1" fill-rule="nonzero"/></g></g><g clip-path="url(#d3ee38a3c1)"><g clip-path="url(#617d6ab9b7)"><path fill="#ffffff" d="M 201.523438 194.28125 L 180.984375 194.28125 C 178.039062 194.28125 175.652344 191.898438 175.652344 188.953125 C 175.652344 186.007812 178.039062 183.625 180.984375 183.625 L 201.523438 183.625 C 204.46875 183.625 206.859375 186.007812 206.859375 188.953125 C 206.859375 191.898438 204.46875 194.28125 201.523438 194.28125 " fill-opacity="1" fill-rule="nonzero"/></g></g><g clip-path="url(#54db02d5e1)"><g clip-path="url(#a14fa43db4)"><path fill="#ffffff" d="M 268.988281 260.691406 L 247.824219 260.691406 C 245.125 260.691406 242.9375 258.507812 242.9375 255.8125 C 242.9375 253.117188 245.125 250.929688 247.824219 250.929688 L 268.988281 250.929688 C 271.6875 250.929688 273.871094 253.117188 273.871094 255.8125 C 273.871094 258.507812 271.6875 260.691406 268.988281 260.691406 " fill-opacity="1" fill-rule="nonzero"/></g></g><g clip-path="url(#46ae955017)"><g clip-path="url(#ce65b9e619)"><path fill="#e5e5e5" d="M 116.125 303.292969 L 94.5625 303.292969 C 91.816406 303.292969 89.585938 301.066406 89.585938 298.320312 C 89.585938 295.574219 91.816406 293.347656 94.5625 293.347656 L 116.125 293.347656 C 118.871094 293.347656 121.101562 295.574219 121.101562 298.320312 C 121.101562 301.066406 118.871094 303.292969 116.125 303.292969 " fill-opacity="1" fill-rule="nonzero"/></g></g><g clip-path="url(#103fb236bb)"><g clip-path="url(#ed17e0f812)"><path fill="#e5e5e5" d="M 234.859375 233.199219 L 211.742188 233.199219 C 208.800781 233.199219 206.410156 230.8125 206.410156 227.867188 C 206.410156 224.925781 208.800781 222.539062 211.742188 222.539062 L 234.859375 222.539062 C 237.804688 222.539062 240.191406 224.925781 240.191406 227.867188 C 240.191406 230.8125 237.804688 233.199219 234.859375 233.199219 " fill-opacity="1" fill-rule="nonzero"/></g></g><g clip-path="url(#099169a91b)"><g clip-path="url(#22e780d71c)"><path fill="#e5e5e5" d="M 128.207031 239.117188 L 119.070312 239.117188 C 117.90625 239.117188 116.960938 238.175781 116.960938 237.011719 C 116.960938 235.851562 117.90625 234.90625 119.070312 234.90625 L 128.207031 234.90625 C 129.371094 234.90625 130.3125 235.851562 130.3125 237.011719 C 130.3125 238.175781 129.371094 239.117188 128.207031 239.117188 " fill-opacity="1" fill-rule="nonzero"/></g></g><g clip-path="url(#f3853221e4)"><g clip-path="url(#173ebff8e0)"><path fill="#e5e5e5" d="M 162.46875 162.808594 L 151.148438 162.808594 C 149.707031 162.808594 148.535156 161.640625 148.535156 160.195312 C 148.535156 158.753906 149.707031 157.585938 151.148438 157.585938 L 162.46875 157.585938 C 163.910156 157.585938 165.078125 158.753906 165.078125 160.195312 C 165.078125 161.640625 163.910156 162.808594 162.46875 162.808594 " fill-opacity="1" fill-rule="nonzero"/></g></g><g clip-path="url(#a342d7ee73)"><g clip-path="url(#dd7ef108d7)"><path fill="#ffffff" d="M 158.003906 345.964844 L 144.765625 345.964844 C 143.078125 345.964844 141.710938 344.597656 141.710938 342.910156 C 141.710938 341.226562 143.078125 339.855469 144.765625 339.855469 L 158.003906 339.855469 C 159.691406 339.855469 161.058594 341.226562 161.058594 342.910156 C 161.058594 344.597656 159.691406 345.964844 158.003906 345.964844 " fill-opacity="1" fill-rule="nonzero"/></g></g><g clip-path="url(#e0d1bb03c7)"><g clip-path="url(#dd6d06bc40)"><path fill="#ffffff" d="M 222.066406 165.859375 L 208.828125 165.859375 C 207.140625 165.859375 205.773438 164.492188 205.773438 162.808594 C 205.773438 161.121094 207.140625 159.753906 208.828125 159.753906 L 222.066406 159.753906 C 223.753906 159.753906 225.121094 161.121094 225.121094 162.808594 C 225.121094 164.492188 223.753906 165.859375 222.066406 165.859375 " fill-opacity="1" fill-rule="nonzero"/></g></g><g clip-path="url(#88451ce4b7)"><g clip-path="url(#8a8bae49d7)"><path fill="#ffffff" d="M 145.367188 330.484375 L 119.300781 330.484375 C 115.976562 330.484375 113.285156 327.796875 113.285156 324.472656 C 113.285156 321.15625 115.976562 318.464844 119.300781 318.464844 L 145.367188 318.464844 C 148.691406 318.464844 151.382812 321.15625 151.382812 324.472656 C 151.382812 327.796875 148.691406 330.484375 145.367188 330.484375 " fill-opacity="1" fill-rule="nonzero"/></g></g><g clip-path="url(#bd0d373ddd)"><g clip-path="url(#02141075eb)"><path fill="#e5e5e5" d="M 216.75 317.253906 L 204.6875 317.253906 C 203.152344 317.253906 201.90625 316.011719 201.90625 314.472656 C 201.90625 312.941406 203.152344 311.695312 204.6875 311.695312 L 216.75 311.695312 C 218.285156 311.695312 219.53125 312.941406 219.53125 314.472656 C 219.53125 316.011719 218.285156 317.253906 216.75 317.253906 " fill-opacity="1" fill-rule="nonzero"/></g></g><g clip-path="url(#9cbe6886cc)"><g clip-path="url(#99b80415b1)"><path fill="#e5e5e5" d="M 228.742188 317.253906 L 224.886719 317.253906 C 223.351562 317.253906 222.105469 316.011719 222.105469 314.472656 C 222.105469 312.941406 223.351562 311.695312 224.886719 311.695312 L 228.742188 311.695312 C 230.277344 311.695312 231.523438 312.941406 231.523438 314.472656 C 231.523438 316.011719 230.277344 317.253906 228.742188 317.253906 " fill-opacity="1" fill-rule="nonzero"/></g></g><g clip-path="url(#c5d2abc210)"><g clip-path="url(#fee4c4fd9d)"><path fill="#e5e5e5" d="M 109.839844 215.292969 L 118.21875 215.292969 C 119.285156 215.292969 120.152344 216.160156 120.152344 217.222656 C 120.152344 218.292969 119.285156 219.15625 118.21875 219.15625 L 109.839844 219.15625 C 108.773438 219.15625 107.910156 218.292969 107.910156 217.222656 C 107.910156 216.160156 108.773438 215.292969 109.839844 215.292969 " fill-opacity="1" fill-rule="nonzero"/></g></g><g clip-path="url(#3682f6a270)"><g clip-path="url(#6fba71b21c)"><path fill="#e5e5e5" d="M 101.511719 215.292969 L 104.1875 215.292969 C 105.253906 215.292969 106.125 216.160156 106.125 217.222656 C 106.125 218.292969 105.253906 219.15625 104.1875 219.15625 L 101.511719 219.15625 C 100.445312 219.15625 99.578125 218.292969 99.578125 217.222656 C 99.578125 216.160156 100.445312 215.292969 101.511719 215.292969 " fill-opacity="1" fill-rule="nonzero"/></g></g><g clip-path="url(#11f222474a)"><g clip-path="url(#0a1c7b6684)"><path fill="#e5e5e5" d="M 123.835938 188.953125 L 111.777344 188.953125 C 110.238281 188.953125 108.992188 187.707031 108.992188 186.171875 C 108.992188 184.636719 110.238281 183.390625 111.777344 183.390625 L 123.835938 183.390625 C 125.371094 183.390625 126.617188 184.636719 126.617188 186.171875 C 126.617188 187.707031 125.371094 188.953125 123.835938 188.953125 " fill-opacity="1" fill-rule="nonzero"/></g></g><g clip-path="url(#6222f0a196)"><g clip-path="url(#1fd994531b)"><path fill="#e5e5e5" d="M 135.828125 188.953125 L 131.972656 188.953125 C 130.4375 188.953125 129.191406 187.707031 129.191406 186.171875 C 129.191406 184.636719 130.4375 183.390625 131.972656 183.390625 L 135.828125 183.390625 C 137.367188 183.390625 138.609375 184.636719 138.609375 186.171875 C 138.609375 187.707031 137.367188 188.953125 135.828125 188.953125 " fill-opacity="1" fill-rule="nonzero"/></g></g><g clip-path="url(#61cca2072a)"><g clip-path="url(#7738708d14)"><path fill="#e5e5e5" d="M 176.476562 271.484375 L 164.417969 271.484375 C 162.882812 271.484375 161.636719 270.234375 161.636719 268.699219 C 161.636719 267.167969 162.882812 265.917969 164.417969 265.917969 L 176.476562 265.917969 C 178.015625 265.917969 179.261719 267.167969 179.261719 268.699219 C 179.261719 270.234375 178.015625 271.484375 176.476562 271.484375 " fill-opacity="1" fill-rule="nonzero"/></g></g><g clip-path="url(#09cf84a593)"><g clip-path="url(#f0bfcaaef7)"><path fill="#e5e5e5" d="M 188.472656 271.484375 L 184.617188 271.484375 C 183.082031 271.484375 181.835938 270.234375 181.835938 268.699219 C 181.835938 267.167969 183.082031 265.917969 184.617188 265.917969 L 188.472656 265.917969 C 190.007812 265.917969 191.253906 267.167969 191.253906 268.699219 C 191.253906 270.234375 190.007812 271.484375 188.472656 271.484375 " fill-opacity="1" fill-rule="nonzero"/></g></g><g clip-path="url(#e405c6a962)"><g clip-path="url(#8fcbb010c7)"><path fill="#198da9" d="M 184.410156 368.269531 C 184.382812 368.269531 184.351562 368.269531 184.324219 368.269531 C 184.316406 368.269531 184.316406 368.269531 184.308594 368.269531 C 184.28125 368.269531 184.253906 368.269531 184.226562 368.269531 C 184.222656 368.269531 184.21875 368.269531 184.210938 368.269531 C 184.191406 368.269531 184.164062 368.269531 184.140625 368.269531 C 184.132812 368.269531 184.128906 368.269531 184.121094 368.269531 C 184.097656 368.269531 184.066406 368.269531 184.042969 368.269531 C 184.035156 368.269531 184.027344 368.265625 184.019531 368.265625 C 184 368.265625 183.972656 368.265625 183.949219 368.265625 C 183.945312 368.265625 183.941406 368.265625 183.9375 368.265625 C 183.910156 368.265625 183.886719 368.265625 183.859375 368.265625 C 183.851562 368.265625 183.84375 368.265625 183.835938 368.265625 C 183.808594 368.265625 183.785156 368.265625 183.757812 368.265625 C 183.75 368.265625 183.746094 368.265625 183.742188 368.265625 C 183.71875 368.265625 183.695312 368.265625 183.675781 368.265625 C 183.667969 368.265625 183.65625 368.265625 183.648438 368.265625 C 183.625 368.265625 183.597656 368.265625 183.574219 368.265625 C 183.566406 368.265625 183.5625 368.265625 183.554688 368.265625 C 183.53125 368.265625 183.507812 368.265625 183.484375 368.265625 C 183.480469 368.265625 183.472656 368.265625 183.46875 368.265625 C 183.441406 368.265625 183.417969 368.265625 183.390625 368.265625 C 183.382812 368.265625 183.371094 368.265625 183.363281 368.265625 C 183.339844 368.265625 183.320312 368.265625 183.300781 368.265625 C 183.292969 368.265625 183.285156 368.265625 183.277344 368.265625 C 183.253906 368.265625 183.230469 368.261719 183.207031 368.261719 C 183.199219 368.261719 183.1875 368.261719 183.179688 368.261719 C 183.152344 368.261719 183.128906 368.261719 183.101562 368.261719 C 183.09375 368.261719 183.085938 368.261719 183.082031 368.261719 C 183.066406 368.261719 183.039062 368.261719 183.023438 368.261719 C 183.011719 368.261719 183.003906 368.257812 182.996094 368.257812 C 182.96875 368.257812 182.945312 368.257812 182.921875 368.257812 C 182.910156 368.257812 182.898438 368.257812 182.890625 368.257812 C 182.875 368.257812 182.855469 368.257812 182.839844 368.257812 C 182.832031 368.257812 182.820312 368.257812 182.808594 368.257812 C 182.785156 368.257812 182.761719 368.257812 182.738281 368.257812 C 182.726562 368.257812 182.71875 368.257812 182.707031 368.257812 C 182.691406 368.257812 182.667969 368.257812 182.652344 368.253906 C 182.636719 368.253906 182.621094 368.253906 182.605469 368.253906 C 182.59375 368.253906 182.570312 368.253906 182.558594 368.253906 C 182.542969 368.253906 182.535156 368.253906 182.523438 368.253906 C 182.496094 368.253906 182.480469 368.253906 182.457031 368.253906 C 182.445312 368.253906 182.429688 368.253906 182.414062 368.253906 C 182.402344 368.253906 182.394531 368.253906 182.378906 368.253906 C 182.363281 368.253906 182.347656 368.253906 182.332031 368.25 C 182.308594 368.25 182.296875 368.25 182.273438 368.25 C 182.253906 368.25 182.246094 368.25 182.226562 368.25 C 182.214844 368.25 182.210938 368.25 182.199219 368.246094 C 182.171875 368.246094 182.144531 368.246094 182.117188 368.246094 C 182.109375 368.246094 182.101562 368.246094 182.09375 368.246094 C 182.078125 368.246094 182.058594 368.246094 182.046875 368.246094 C 182.035156 368.246094 182.03125 368.246094 182.023438 368.246094 C 181.992188 368.246094 181.964844 368.246094 181.933594 368.242188 C 181.929688 368.242188 181.917969 368.242188 181.914062 368.242188 C 181.859375 368.242188 181.804688 368.238281 181.75 368.238281 C 181.746094 368.238281 181.742188 368.238281 181.738281 368.238281 C 181.679688 368.238281 181.625 368.238281 181.566406 368.234375 C 142.195312 367.285156 107.691406 346.734375 87.441406 315.976562 C 96.078125 321.308594 105.386719 325.660156 115.210938 328.882812 C 116.285156 329.875 117.722656 330.484375 119.300781 330.484375 L 120.46875 330.484375 C 131.746094 333.664062 143.648438 335.363281 155.945312 335.363281 C 161.734375 335.363281 167.4375 334.984375 173.03125 334.257812 C 172.09375 335.605469 171.546875 337.238281 171.546875 339.007812 C 171.546875 343.613281 175.285156 347.347656 179.898438 347.347656 L 230.03125 347.347656 C 234.644531 347.347656 238.378906 343.613281 238.378906 339.007812 C 238.378906 334.398438 234.644531 330.660156 230.03125 330.660156 L 223.363281 330.660156 C 221.796875 330.660156 220.519531 329.390625 220.519531 327.820312 C 220.519531 326.25 221.796875 324.976562 223.363281 324.976562 L 274.824219 324.976562 C 253.5625 351.375 220.960938 368.269531 184.410156 368.269531 M 144.765625 339.855469 C 143.078125 339.855469 141.710938 341.226562 141.710938 342.910156 C 141.710938 344.597656 143.078125 345.964844 144.765625 345.964844 L 158.003906 345.964844 C 159.691406 345.964844 161.058594 344.597656 161.058594 342.910156 C 161.058594 341.226562 159.691406 339.855469 158.003906 339.855469 L 144.765625 339.855469 M 211.511719 330.660156 L 190.800781 330.660156 C 196.382812 329.121094 201.820312 327.21875 207.078125 324.976562 L 211.511719 324.976562 C 213.085938 324.976562 214.359375 326.25 214.359375 327.820312 C 214.359375 329.390625 213.085938 330.660156 211.511719 330.660156 M 286.828125 306.824219 L 237.449219 306.824219 C 244.261719 301.378906 250.511719 295.265625 256.105469 288.585938 C 258.132812 287.585938 259.65625 285.71875 260.183594 283.46875 C 260.1875 283.460938 260.191406 283.453125 260.199219 283.445312 C 272.253906 278.691406 278.46875 269.285156 280.824219 257.378906 C 283.253906 245.101562 283.171875 239.589844 283.691406 236.421875 C 287.660156 234.511719 290.402344 230.457031 290.402344 225.757812 C 290.402344 222.035156 288.679688 218.710938 285.992188 216.539062 C 286.269531 213.410156 286.433594 210.25 286.484375 207.054688 L 291.199219 207.054688 C 296.898438 220.449219 300.148438 235.128906 300.386719 250.539062 L 300.386719 250.550781 C 300.386719 250.605469 300.390625 250.65625 300.390625 250.710938 C 300.390625 250.71875 300.390625 250.726562 300.390625 250.734375 C 300.394531 250.761719 300.394531 250.792969 300.394531 250.820312 C 300.394531 250.828125 300.394531 250.835938 300.394531 250.84375 C 300.394531 250.859375 300.394531 250.875 300.394531 250.894531 C 300.394531 250.902344 300.394531 250.910156 300.394531 250.925781 C 300.394531 250.945312 300.394531 250.96875 300.394531 250.996094 C 300.394531 251.007812 300.394531 251.015625 300.394531 251.03125 C 300.394531 251.042969 300.394531 251.058594 300.394531 251.070312 C 300.394531 251.09375 300.394531 251.113281 300.394531 251.136719 C 300.394531 251.148438 300.394531 251.160156 300.394531 251.171875 C 300.398438 251.1875 300.398438 251.207031 300.398438 251.21875 C 300.398438 251.234375 300.398438 251.25 300.398438 251.261719 C 300.398438 251.28125 300.398438 251.300781 300.398438 251.320312 C 300.398438 251.332031 300.398438 251.34375 300.398438 251.355469 C 300.398438 251.382812 300.398438 251.398438 300.398438 251.425781 C 300.398438 251.433594 300.398438 251.4375 300.398438 251.445312 C 300.398438 251.472656 300.398438 251.484375 300.398438 251.507812 C 300.398438 251.515625 300.398438 251.523438 300.398438 251.535156 C 300.398438 251.558594 300.398438 251.585938 300.398438 251.609375 C 300.398438 251.617188 300.398438 251.625 300.398438 251.632812 C 300.398438 251.65625 300.398438 251.675781 300.398438 251.699219 C 300.398438 251.703125 300.398438 251.710938 300.398438 251.71875 C 300.398438 251.746094 300.398438 251.769531 300.398438 251.792969 C 300.398438 251.804688 300.398438 251.808594 300.398438 251.820312 C 300.398438 251.847656 300.398438 251.871094 300.398438 251.898438 C 300.398438 251.902344 300.398438 251.90625 300.398438 251.90625 C 300.398438 251.933594 300.402344 251.957031 300.402344 251.980469 C 300.402344 251.988281 300.402344 251.996094 300.402344 252.003906 C 300.402344 252.023438 300.402344 252.058594 300.402344 252.082031 C 300.402344 252.085938 300.402344 252.09375 300.402344 252.101562 C 300.402344 252.125 300.402344 252.144531 300.402344 252.167969 C 300.402344 252.175781 300.402344 252.179688 300.402344 252.1875 C 300.402344 252.214844 300.402344 252.238281 300.402344 252.265625 C 300.402344 252.273438 300.402344 252.277344 300.402344 252.285156 C 300.402344 252.3125 300.402344 252.34375 300.402344 252.371094 C 300.402344 272.050781 295.492188 290.589844 286.828125 306.824219 M 265.253906 276.273438 C 267.3125 274.667969 269.183594 272.738281 271 270.460938 C 271.316406 270.066406 271.597656 269.652344 271.871094 269.230469 L 269.554688 269.230469 L 271.871094 269.230469 C 272.316406 268.527344 272.71875 267.789062 273.066406 267.019531 C 274.570312 263.695312 275.257812 259.847656 275.996094 256.410156 C 276.015625 256.320312 276.035156 256.226562 276.054688 256.132812 C 276.054688 256.128906 276.054688 256.125 276.058594 256.121094 C 276.039062 256.214844 276.015625 256.3125 275.996094 256.410156 C 275.257812 259.847656 274.570312 263.695312 273.066406 267.019531 C 272.507812 268.253906 271.835938 269.417969 271 270.460938 C 269.183594 272.738281 267.3125 274.671875 265.253906 276.273438 " fill-opacity="1" fill-rule="nonzero"/></g></g><g clip-path="url(#adac1705de)"><g clip-path="url(#afde085851)"><path fill="#d3d2d2" d="M 283.691406 236.421875 C 283.910156 235.101562 284.230469 234.191406 284.882812 233.367188 C 287.097656 230.570312 288.453125 230.191406 288.453125 230.191406 L 288.453125 220.28125 C 288.453125 220.28125 288.136719 219.226562 285.816406 218.351562 C 285.878906 217.753906 285.9375 217.144531 285.992188 216.539062 C 288.679688 218.710938 290.402344 222.035156 290.402344 225.757812 C 290.402344 230.457031 287.660156 234.511719 283.691406 236.421875 M 291.199219 207.054688 L 286.484375 207.054688 C 286.496094 206.339844 286.503906 205.621094 286.503906 204.90625 C 286.503906 202.199219 286.410156 199.515625 286.25 196.84375 C 288.058594 200.15625 289.710938 203.5625 291.199219 207.054688 " fill-opacity="1" fill-rule="nonzero"/></g></g><g clip-path="url(#4dcaa8a408)"><g clip-path="url(#868e9a448f)"><path fill="#d3d2d2" d="M 230.03125 347.347656 L 179.898438 347.347656 C 175.285156 347.347656 171.546875 343.613281 171.546875 339.007812 C 171.546875 337.238281 172.09375 335.605469 173.03125 334.257812 C 179.09375 333.464844 185.023438 332.257812 190.800781 330.660156 L 211.511719 330.660156 C 213.085938 330.660156 214.359375 329.390625 214.359375 327.820312 C 214.359375 326.25 213.085938 324.976562 211.511719 324.976562 L 207.078125 324.976562 C 212.675781 322.59375 218.078125 319.828125 223.242188 316.71875 C 223.703125 317.054688 224.269531 317.253906 224.886719 317.253906 L 228.742188 317.253906 C 230.277344 317.253906 231.523438 316.011719 231.523438 314.472656 C 231.523438 313.511719 231.035156 312.660156 230.285156 312.160156 C 232.738281 310.460938 235.128906 308.683594 237.449219 306.824219 L 286.828125 306.824219 C 283.390625 313.261719 279.371094 319.335938 274.824219 324.976562 L 223.363281 324.976562 C 221.796875 324.976562 220.519531 326.25 220.519531 327.820312 C 220.519531 329.390625 221.796875 330.660156 223.363281 330.660156 L 230.03125 330.660156 C 234.644531 330.660156 238.378906 334.398438 238.378906 339.007812 C 238.378906 343.613281 234.644531 347.347656 230.03125 347.347656 " fill-opacity="1" fill-rule="nonzero"/></g></g><g clip-path="url(#2a9c5aeee8)"><g clip-path="url(#b18951a416)"><path fill="#d3d2d2" d="M 256.105469 288.585938 C 257.507812 286.917969 258.867188 285.210938 260.183594 283.46875 C 259.65625 285.71875 258.132812 287.585938 256.105469 288.585938 " fill-opacity="1" fill-rule="nonzero"/></g></g><g clip-path="url(#f417609cdc)"><g clip-path="url(#62716e38cd)"><path fill="#d3d2d2" d="M 158.003906 345.964844 L 144.765625 345.964844 C 143.078125 345.964844 141.710938 344.597656 141.710938 342.910156 C 141.710938 341.226562 143.078125 339.855469 144.765625 339.855469 L 158.003906 339.855469 C 159.691406 339.855469 161.058594 341.226562 161.058594 342.910156 C 161.058594 344.597656 159.691406 345.964844 158.003906 345.964844 " fill-opacity="1" fill-rule="nonzero"/></g></g><g clip-path="url(#a16351e51e)"><g clip-path="url(#c2ffaef8df)"><path fill="#d3d2d2" d="M 120.46875 330.484375 L 119.300781 330.484375 C 117.722656 330.484375 116.285156 329.875 115.210938 328.882812 C 116.949219 329.453125 118.699219 329.988281 120.46875 330.484375 " fill-opacity="1" fill-rule="nonzero"/></g></g><g clip-path="url(#4483e58999)"><g clip-path="url(#cee027c741)"><path fill="#bebdbe" d="M 228.742188 317.253906 L 224.886719 317.253906 C 224.269531 317.253906 223.703125 317.054688 223.242188 316.71875 C 225.640625 315.273438 227.992188 313.753906 230.285156 312.160156 C 231.035156 312.660156 231.523438 313.511719 231.523438 314.472656 C 231.523438 316.011719 230.277344 317.253906 228.742188 317.253906 " fill-opacity="1" fill-rule="nonzero"/></g></g><path fill="#414042" d="M 93.175781 223.601562 C 97.601562 218.457031 108.292969 218.023438 114.40625 217.308594 C 121.835938 216.441406 125.902344 216.421875 133.386719 216.355469 C 137.445312 216.320312 141.507812 216.472656 145.546875 216.828125 C 149.335938 217.164062 153.101562 217.734375 156.796875 218.652344 C 160.886719 219.664062 165.160156 220.960938 168.214844 223.96875 C 168.738281 224.484375 169.238281 225.039062 169.683594 225.664062 C 172.839844 230.097656 172.222656 235.5625 171.089844 240.617188 C 170.980469 241.113281 170.867188 241.609375 170.746094 242.097656 C 166.601562 259.21875 161.386719 281.253906 132.929688 282.386719 C 126.253906 282.652344 119.371094 282.679688 112.875 280.882812 C 106.425781 279.09375 101.996094 275.6875 97.816406 270.460938 C 96.984375 269.417969 96.3125 268.253906 95.753906 267.019531 C 94.246094 263.695312 93.5625 259.847656 92.824219 256.410156 C 91.585938 250.65625 90.726562 244.804688 90.347656 238.921875 C 90.007812 233.613281 89.441406 227.945312 93.175781 223.601562 M 197.726562 240.617188 C 196.597656 235.5625 195.980469 230.097656 199.136719 225.664062 C 199.582031 225.039062 200.082031 224.484375 200.605469 223.96875 C 203.660156 220.960938 207.933594 219.664062 212.027344 218.652344 C 215.71875 217.734375 219.484375 217.164062 223.273438 216.828125 C 227.3125 216.472656 231.375 216.320312 235.433594 216.355469 C 242.917969 216.421875 246.984375 216.441406 254.414062 217.308594 C 260.53125 218.023438 271.21875 218.457031 275.644531 223.601562 C 279.378906 227.945312 278.8125 233.613281 278.472656 238.921875 C 278.09375 244.804688 277.234375 250.65625 275.996094 256.410156 C 275.257812 259.847656 274.570312 263.695312 273.066406 267.019531 C 272.507812 268.253906 271.835938 269.417969 271 270.460938 C 266.824219 275.6875 262.394531 279.09375 255.945312 280.882812 C 249.449219 282.679688 242.5625 282.652344 235.890625 282.386719 C 207.433594 281.253906 202.214844 259.21875 198.074219 242.097656 C 197.953125 241.609375 197.839844 241.113281 197.726562 240.617188 M 80.371094 220.28125 L 80.371094 230.191406 C 80.371094 230.191406 81.722656 230.570312 83.933594 233.367188 C 86.148438 236.160156 84.550781 239.972656 87.996094 257.378906 C 91.441406 274.777344 103.125 286.847656 129.25 286.847656 C 145.234375 286.847656 158.09375 281.273438 166.816406 267.023438 C 170.949219 260.269531 173.40625 252.441406 175.339844 244.757812 C 175.835938 242.789062 176.289062 240.816406 176.640625 238.878906 C 180.832031 237.757812 184.410156 237.144531 184.410156 237.144531 C 184.410156 237.144531 187.984375 237.757812 192.175781 238.878906 C 192.53125 240.816406 192.984375 242.789062 193.476562 244.757812 C 195.414062 252.441406 197.871094 260.269531 202.003906 267.023438 C 210.726562 281.273438 223.585938 286.847656 239.566406 286.847656 C 265.695312 286.847656 277.382812 274.777344 280.824219 257.378906 C 284.269531 239.972656 282.667969 236.160156 284.882812 233.367188 C 287.097656 230.570312 288.453125 230.191406 288.453125 230.191406 L 288.453125 220.28125 C 288.453125 220.28125 287.957031 218.628906 283.652344 217.738281 C 257.332031 212.304688 230.582031 211.035156 204.128906 216.414062 C 198.800781 217.5 195.519531 219.757812 193.625 222.769531 C 190.078125 224.023438 186.15625 225.246094 184.410156 225.246094 C 182.664062 225.246094 178.742188 224.023438 175.191406 222.769531 C 173.304688 219.757812 170.015625 217.5 164.691406 216.414062 C 138.242188 211.035156 111.488281 212.304688 85.164062 217.738281 C 80.859375 218.628906 80.371094 220.28125 80.371094 220.28125 " fill-opacity="1" fill-rule="nonzero"/><path fill="#3f3f3f" d="M 131.113281 282.453125 L 123.757812 282.453125 C 126.210938 282.550781 128.671875 282.527344 131.113281 282.453125 " fill-opacity="1" fill-rule="nonzero"/><path fill="#ffffff" d="M 169.683594 225.664062 C 169.238281 225.039062 168.738281 224.484375 168.214844 223.96875 C 165.160156 220.960938 160.886719 219.664062 156.796875 218.648438 C 153.101562 217.734375 149.335938 217.164062 145.546875 216.828125 C 141.507812 216.472656 137.445312 216.320312 133.386719 216.355469 C 125.902344 216.421875 121.835938 216.441406 114.40625 217.308594 C 108.292969 218.023438 97.601562 218.457031 93.175781 223.601562 C 91.628906 225.402344 90.828125 227.433594 90.433594 229.570312 L 171.5 229.570312 C 171.136719 228.210938 170.5625 226.894531 169.683594 225.664062 " fill-opacity="1" fill-rule="nonzero"/><path fill="#f2ac4c" d="M 90.347656 238.921875 C 90.429688 240.214844 90.539062 241.503906 90.667969 242.792969 L 170.582031 242.792969 C 170.636719 242.558594 170.695312 242.328125 170.746094 242.101562 C 170.867188 241.609375 170.980469 241.113281 171.089844 240.617188 C 171.910156 236.96875 172.449219 233.105469 171.5 229.570312 L 90.433594 229.570312 C 89.878906 232.585938 90.148438 235.816406 90.347656 238.921875 " fill-opacity="1" fill-rule="nonzero"/><path fill="#f06c48" d="M 92.742188 256.007812 L 166.898438 256.007812 C 168.429688 251.582031 169.550781 247.050781 170.582031 242.792969 L 90.667969 242.792969 C 91.109375 247.230469 91.816406 251.648438 92.742188 256.007812 " fill-opacity="1" fill-rule="nonzero"/><path fill="#5d4a44" d="M 92.824219 256.410156 C 93.5625 259.847656 94.246094 263.695312 95.753906 267.019531 C 96.101562 267.789062 96.503906 268.527344 96.949219 269.230469 L 160.234375 269.230469 C 163.183594 265.253906 165.273438 260.695312 166.898438 256.007812 L 92.742188 256.007812 C 92.769531 256.144531 92.796875 256.277344 92.824219 256.410156 " fill-opacity="1" fill-rule="nonzero"/><path fill="#17a9cb" d="M 160.234375 269.230469 L 96.949219 269.230469 C 97.222656 269.652344 97.503906 270.066406 97.816406 270.460938 C 101.996094 275.6875 106.425781 279.09375 112.875 280.882812 C 116.417969 281.863281 120.078125 282.296875 123.757812 282.453125 L 131.113281 282.453125 C 131.71875 282.429688 132.328125 282.410156 132.929688 282.386719 C 146.542969 281.84375 154.828125 276.511719 160.234375 269.230469 " fill-opacity="1" fill-rule="nonzero"/><path fill="#3f3f3f" d="M 237.707031 282.453125 L 245.0625 282.453125 C 242.605469 282.550781 240.144531 282.527344 237.707031 282.453125 " fill-opacity="1" fill-rule="nonzero"/><path fill="#ffffff" d="M 199.132812 225.664062 C 199.582031 225.039062 200.082031 224.484375 200.605469 223.96875 C 203.660156 220.960938 207.929688 219.664062 212.023438 218.648438 C 215.71875 217.734375 219.484375 217.164062 223.273438 216.828125 C 227.3125 216.472656 231.375 216.320312 235.433594 216.355469 C 242.917969 216.421875 246.980469 216.441406 254.414062 217.308594 C 260.527344 218.023438 271.21875 218.457031 275.644531 223.601562 C 277.191406 225.402344 277.992188 227.433594 278.386719 229.570312 L 197.316406 229.570312 C 197.679688 228.210938 198.257812 226.894531 199.132812 225.664062 " fill-opacity="1" fill-rule="nonzero"/><path fill="#f2ac4c" d="M 278.472656 238.921875 C 278.386719 240.214844 278.28125 241.503906 278.152344 242.792969 L 198.238281 242.792969 C 198.183594 242.558594 198.128906 242.328125 198.074219 242.101562 C 197.953125 241.609375 197.839844 241.113281 197.726562 240.617188 C 196.910156 236.96875 196.371094 233.105469 197.316406 229.570312 L 278.386719 229.570312 C 278.9375 232.585938 278.671875 235.816406 278.472656 238.921875 " fill-opacity="1" fill-rule="nonzero"/><path fill="#f06c48" d="M 276.078125 256.007812 L 201.921875 256.007812 C 200.390625 251.582031 199.269531 247.050781 198.238281 242.792969 L 278.152344 242.792969 C 277.707031 247.230469 277.003906 251.648438 276.078125 256.007812 " fill-opacity="1" fill-rule="nonzero"/><path fill="#5d4a44" d="M 275.996094 256.410156 C 275.257812 259.847656 274.570312 263.695312 273.066406 267.019531 C 272.71875 267.789062 272.316406 268.527344 271.871094 269.230469 L 208.585938 269.230469 C 205.636719 265.253906 203.542969 260.695312 201.921875 256.007812 L 276.078125 256.007812 C 276.046875 256.144531 276.023438 256.277344 275.996094 256.410156 " fill-opacity="1" fill-rule="nonzero"/><path fill="#17a9cb" d="M 208.585938 269.230469 L 271.871094 269.230469 C 271.597656 269.652344 271.316406 270.066406 271 270.460938 C 266.824219 275.6875 262.390625 279.09375 255.945312 280.882812 C 252.398438 281.863281 248.742188 282.296875 245.0625 282.453125 L 237.707031 282.453125 C 237.097656 282.429688 236.492188 282.410156 235.890625 282.386719 C 222.277344 281.84375 213.992188 276.511719 208.585938 269.230469 " fill-opacity="1" fill-rule="nonzero"/><path fill="#ffffff" d="M 141.503906 216.539062 C 139.222656 216.414062 136.9375 216.351562 134.65625 216.351562 C 136.9375 216.351562 139.222656 216.414062 141.503906 216.539062 M 132.917969 216.359375 C 133.070312 216.355469 133.230469 216.355469 133.386719 216.355469 C 133.230469 216.355469 133.070312 216.355469 132.917969 216.359375 M 134.503906 216.351562 C 134.503906 216.351562 134.511719 216.351562 134.515625 216.351562 C 134.511719 216.351562 134.503906 216.351562 134.503906 216.351562 " fill-opacity="1" fill-rule="nonzero"/><path fill="#676668" d="M 145.546875 216.828125 C 144.203125 216.710938 142.851562 216.617188 141.503906 216.539062 C 139.222656 216.414062 136.9375 216.351562 134.65625 216.351562 C 134.609375 216.351562 134.5625 216.351562 134.515625 216.351562 C 134.511719 216.351562 134.503906 216.351562 134.503906 216.351562 C 134.1875 216.351562 133.871094 216.351562 133.558594 216.355469 C 133.875 216.351562 134.199219 216.351562 134.519531 216.351562 C 138.199219 216.351562 141.882812 216.503906 145.546875 216.828125 M 132.917969 216.359375 C 133.070312 216.355469 133.230469 216.355469 133.386719 216.355469 C 133.230469 216.355469 133.070312 216.355469 132.917969 216.359375 " fill-opacity="1" fill-rule="nonzero"/><path fill="#ffffff" d="M 150.996094 229.570312 L 117.066406 229.570312 L 130.261719 216.386719 C 131.105469 216.375 131.984375 216.367188 132.917969 216.359375 C 133.070312 216.355469 133.230469 216.355469 133.386719 216.355469 C 133.445312 216.355469 133.5 216.355469 133.558594 216.355469 C 133.871094 216.351562 134.1875 216.351562 134.503906 216.351562 C 134.503906 216.351562 134.511719 216.351562 134.515625 216.351562 C 134.5625 216.351562 134.609375 216.351562 134.65625 216.351562 C 136.9375 216.351562 139.222656 216.414062 141.503906 216.539062 C 142.851562 216.617188 144.203125 216.710938 145.546875 216.828125 C 149.335938 217.164062 153.101562 217.734375 156.796875 218.648438 C 158.125 218.980469 159.472656 219.339844 160.792969 219.78125 L 150.996094 229.570312 " fill-opacity="1" fill-rule="nonzero"/><path fill="#f5bd70" d="M 137.761719 242.792969 L 103.835938 242.792969 L 117.066406 229.570312 L 150.996094 229.570312 L 137.761719 242.792969 " fill-opacity="1" fill-rule="nonzero"/><path fill="#f3896d" d="M 124.53125 256.007812 L 92.742188 256.007812 C 92.613281 255.417969 92.503906 254.824219 92.386719 254.230469 L 103.835938 242.792969 L 137.761719 242.792969 L 124.53125 256.007812 " fill-opacity="1" fill-rule="nonzero"/><path fill="#7d6e69" d="M 111.300781 269.230469 L 96.949219 269.230469 C 96.503906 268.527344 96.101562 267.789062 95.753906 267.019531 C 94.246094 263.695312 93.5625 259.847656 92.824219 256.410156 C 92.796875 256.277344 92.769531 256.144531 92.742188 256.007812 L 124.53125 256.007812 L 111.300781 269.230469 " fill-opacity="1" fill-rule="nonzero"/><path fill="#45bad5" d="M 103.960938 276.566406 C 101.742188 274.90625 99.75 272.878906 97.816406 270.460938 C 97.503906 270.066406 97.222656 269.652344 96.949219 269.230469 L 111.300781 269.230469 L 103.960938 276.566406 " fill-opacity="1" fill-rule="nonzero"/><path fill="#ffffff" d="M 171.5 229.570312 L 161.097656 229.570312 L 167.421875 223.253906 C 167.691406 223.480469 167.960938 223.714844 168.214844 223.96875 C 168.738281 224.484375 169.238281 225.039062 169.683594 225.664062 C 170.5625 226.894531 171.136719 228.210938 171.5 229.570312 " fill-opacity="1" fill-rule="nonzero"/><path fill="#f5bd70" d="M 168.679688 242.792969 L 147.867188 242.792969 L 161.097656 229.570312 L 171.5 229.570312 C 172.421875 233.007812 171.933594 236.757812 171.15625 240.316406 L 168.679688 242.792969 " fill-opacity="1" fill-rule="nonzero"/><path fill="#f3896d" d="M 155.449219 256.007812 L 134.636719 256.007812 L 147.867188 242.792969 L 168.679688 242.792969 L 155.449219 256.007812 " fill-opacity="1" fill-rule="nonzero"/><path fill="#7d6e69" d="M 142.21875 269.230469 L 121.40625 269.230469 L 134.636719 256.007812 L 155.449219 256.007812 L 142.21875 269.230469 " fill-opacity="1" fill-rule="nonzero"/><path fill="#45bad5" d="M 128.992188 282.453125 L 123.757812 282.453125 C 120.152344 282.300781 116.5625 281.878906 113.085938 280.9375 C 113.066406 280.933594 113.046875 280.929688 113.027344 280.921875 C 113.015625 280.921875 113.003906 280.917969 112.992188 280.914062 C 112.988281 280.914062 112.980469 280.910156 112.972656 280.90625 C 112.964844 280.90625 112.953125 280.902344 112.941406 280.898438 C 112.9375 280.898438 112.929688 280.898438 112.925781 280.894531 C 112.910156 280.890625 112.894531 280.886719 112.875 280.882812 C 112.054688 280.652344 111.265625 280.398438 110.507812 280.121094 L 121.40625 269.230469 L 142.21875 269.230469 L 128.992188 282.453125 " fill-opacity="1" fill-rule="nonzero"/><path fill="#ffffff" d="M 111.003906 229.570312 L 102.660156 229.570312 L 114.996094 217.242188 C 118.503906 216.84375 121.277344 216.636719 124.0625 216.523438 L 111.003906 229.570312 " fill-opacity="1" fill-rule="nonzero"/><path fill="#f5bd70" d="M 97.773438 242.792969 L 90.667969 242.792969 C 90.628906 242.410156 90.601562 242.03125 90.566406 241.652344 L 102.660156 229.570312 L 111.003906 229.570312 L 97.773438 242.792969 " fill-opacity="1" fill-rule="nonzero"/><path fill="#f3896d" d="M 91.476562 249.082031 C 91.152344 246.996094 90.878906 244.894531 90.667969 242.792969 L 97.773438 242.792969 L 91.476562 249.082031 " fill-opacity="1" fill-rule="nonzero"/><path fill="#ffffff" d="M 259.746094 217.875 C 257.792969 217.648438 255.957031 217.488281 254.414062 217.308594 C 253.03125 217.148438 251.765625 217.011719 250.574219 216.90625 C 250.617188 216.910156 250.664062 216.914062 250.710938 216.917969 C 251.863281 217.027344 253.085938 217.152344 254.414062 217.308594 C 255.851562 217.476562 257.542969 217.625 259.347656 217.832031 C 259.480469 217.84375 259.613281 217.859375 259.746094 217.875 " fill-opacity="1" fill-rule="nonzero"/><path fill="#676668" d="M 259.347656 217.832031 C 257.542969 217.625 255.851562 217.476562 254.414062 217.308594 C 253.085938 217.152344 251.863281 217.027344 250.710938 216.917969 C 251.863281 217.027344 253.085938 217.152344 254.414062 217.308594 C 255.851562 217.476562 257.542969 217.625 259.347656 217.832031 " fill-opacity="1" fill-rule="nonzero"/><path fill="#ffffff" d="M 259.363281 229.570312 L 225.4375 229.570312 L 238.632812 216.386719 C 243 216.433594 246.328125 216.519531 250.574219 216.90625 C 251.765625 217.011719 253.03125 217.148438 254.414062 217.308594 C 255.957031 217.488281 257.792969 217.648438 259.746094 217.875 C 262.835938 218.234375 266.222656 218.746094 269.207031 219.734375 L 259.363281 229.570312 " fill-opacity="1" fill-rule="nonzero"/><path fill="#f5bd70" d="M 246.132812 242.792969 L 212.210938 242.792969 L 225.4375 229.570312 L 259.363281 229.570312 L 246.132812 242.792969 " fill-opacity="1" fill-rule="nonzero"/><path fill="#f3896d" d="M 232.902344 256.007812 L 201.921875 256.007812 C 201.667969 255.273438 201.429688 254.535156 201.195312 253.792969 L 212.210938 242.792969 L 246.132812 242.792969 L 232.902344 256.007812 " fill-opacity="1" fill-rule="nonzero"/><path fill="#7d6e69" d="M 219.671875 269.230469 L 208.585938 269.230469 C 205.636719 265.253906 203.542969 260.695312 201.921875 256.007812 L 232.902344 256.007812 L 219.671875 269.230469 " fill-opacity="1" fill-rule="nonzero"/><path fill="#45bad5" d="M 213.984375 274.914062 C 211.921875 273.226562 210.144531 271.324219 208.605469 269.253906 C 208.597656 269.246094 208.589844 269.238281 208.585938 269.230469 L 219.671875 269.230469 L 213.984375 274.914062 " fill-opacity="1" fill-rule="nonzero"/><path fill="#676668" d="M 236.074219 282.394531 C 236.015625 282.390625 235.953125 282.386719 235.890625 282.386719 C 235.703125 282.378906 235.519531 282.371094 235.335938 282.359375 C 235.519531 282.371094 235.703125 282.378906 235.890625 282.386719 C 235.953125 282.386719 236.015625 282.390625 236.074219 282.394531 M 235.316406 282.359375 C 235.3125 282.359375 235.304688 282.359375 235.300781 282.359375 C 235.304688 282.359375 235.3125 282.359375 235.316406 282.359375 " fill-opacity="1" fill-rule="nonzero"/><path fill="#ffffff" d="M 278.386719 229.570312 L 269.46875 229.570312 L 275.546875 223.496094 L 275.644531 223.601562 C 277.191406 225.402344 277.992188 227.433594 278.386719 229.570312 " fill-opacity="1" fill-rule="nonzero"/><path fill="#f5bd70" d="M 277.050781 242.792969 L 256.238281 242.792969 L 269.46875 229.570312 L 278.386719 229.570312 C 278.632812 230.902344 278.714844 232.273438 278.714844 233.65625 C 278.71875 235.414062 278.585938 237.1875 278.472656 238.921875 C 278.417969 239.808594 278.339844 240.695312 278.261719 241.582031 L 277.050781 242.792969 " fill-opacity="1" fill-rule="nonzero"/><path fill="#f3896d" d="M 263.820312 256.007812 L 243.007812 256.007812 L 256.238281 242.792969 L 277.050781 242.792969 L 263.820312 256.007812 " fill-opacity="1" fill-rule="nonzero"/><path fill="#7d6e69" d="M 250.589844 269.230469 L 229.777344 269.230469 L 243.007812 256.007812 L 263.820312 256.007812 L 250.589844 269.230469 " fill-opacity="1" fill-rule="nonzero"/><path fill="#45bad5" d="M 237.371094 282.4375 C 236.9375 282.421875 236.507812 282.410156 236.074219 282.394531 C 236.015625 282.390625 235.953125 282.386719 235.890625 282.386719 C 235.703125 282.378906 235.519531 282.371094 235.335938 282.359375 C 235.328125 282.359375 235.324219 282.359375 235.316406 282.359375 C 235.3125 282.359375 235.304688 282.359375 235.300781 282.359375 C 229.265625 282.054688 224.304688 280.785156 220.175781 278.824219 L 229.777344 269.230469 L 250.589844 269.230469 L 237.371094 282.4375 " fill-opacity="1" fill-rule="nonzero"/><path fill="#ffffff" d="M 219.378906 229.570312 L 211.03125 229.570312 L 223.820312 216.789062 C 226.738281 216.546875 229.664062 216.402344 232.59375 216.363281 L 219.378906 229.570312 " fill-opacity="1" fill-rule="nonzero"/><path fill="#f5bd70" d="M 206.144531 242.792969 L 198.238281 242.792969 C 198.210938 242.671875 198.179688 242.554688 198.152344 242.433594 L 211.03125 229.570312 L 219.378906 229.570312 L 206.144531 242.792969 " fill-opacity="1" fill-rule="nonzero"/><path fill="#f3896d" d="M 199.828125 249.101562 C 199.253906 246.960938 198.738281 244.84375 198.238281 242.792969 L 206.144531 242.792969 L 199.828125 249.101562 " fill-opacity="1" fill-rule="nonzero"/><path fill="#414042" d="M 240.25 298.851562 C 240.25 298.851562 240.789062 315.707031 231.277344 310.863281 C 221.765625 306.023438 216.5625 301.898438 210.457031 299.746094 C 204.355469 297.59375 189.976562 295.515625 186.054688 300.285156 C 185.40625 301.070312 184.839844 302.007812 184.410156 303.035156 C 183.976562 302.007812 183.414062 301.070312 182.765625 300.285156 C 178.84375 295.515625 164.460938 297.59375 158.359375 299.746094 C 152.257812 301.898438 147.054688 306.023438 137.542969 310.863281 C 128.03125 315.707031 128.570312 298.851562 128.570312 298.851562 C 122.109375 304.945312 124.441406 314.628906 128.570312 319.652344 C 132.699219 324.671875 146.515625 326.824219 154.59375 325.390625 C 162.207031 324.035156 171.820312 320.726562 171.820312 320.726562 C 179.089844 318.648438 182.855469 315.230469 184.410156 311.65625 C 185.964844 315.230469 189.730469 318.648438 197 320.726562 C 197 320.726562 206.613281 324.035156 214.230469 325.390625 C 222.304688 326.824219 236.125 324.671875 240.25 319.652344 C 244.378906 314.628906 246.710938 304.945312 240.25 298.851562 " fill-opacity="1" fill-rule="nonzero"/><path fill="#525153" d="M 151.929688 309.027344 L 145.777344 312.171875 C 145.21875 312.457031 144.535156 312.238281 144.246094 311.679688 C 143.960938 311.121094 144.183594 310.433594 144.742188 310.148438 L 150.890625 307.003906 C 151.449219 306.714844 152.136719 306.941406 152.421875 307.496094 C 152.707031 308.054688 152.488281 308.738281 151.929688 309.027344 " fill-opacity="1" fill-rule="nonzero"/><path fill="#525153" d="M 155.890625 307 L 154.910156 307.5 C 154.351562 307.785156 153.667969 307.566406 153.382812 307.007812 C 153.09375 306.445312 153.316406 305.761719 153.875 305.476562 L 154.851562 304.976562 C 155.414062 304.691406 156.097656 304.910156 156.382812 305.472656 C 156.671875 306.03125 156.449219 306.714844 155.890625 307 " fill-opacity="1" fill-rule="nonzero"/><path fill="#bcbec0" d="M 312.015625 226.65625 L 299.167969 226.65625 L 299.167969 210.042969 C 299.167969 146.8125 247.6875 95.375 184.410156 95.375 C 121.128906 95.375 69.648438 146.8125 69.648438 210.042969 L 69.648438 226.65625 L 56.804688 226.65625 L 56.804688 210.042969 C 56.804688 139.734375 114.046875 82.535156 184.410156 82.535156 C 254.773438 82.535156 312.015625 139.734375 312.015625 210.042969 L 312.015625 226.65625 " fill-opacity="1" fill-rule="nonzero"/><path fill="#f89d47" d="M 300.894531 211.324219 C 325.464844 211.324219 345.386719 231.230469 345.386719 255.78125 C 345.386719 280.335938 325.464844 300.238281 300.894531 300.238281 L 300.894531 211.324219 " fill-opacity="1" fill-rule="nonzero"/><path fill="#df8d40" d="M 339.144531 246.074219 C 339.144531 239.300781 337.625 232.886719 334.914062 227.140625 C 341.445312 234.878906 345.386719 244.867188 345.386719 255.78125 C 345.386719 280.335938 325.464844 300.238281 300.894531 300.238281 L 300.894531 290.089844 C 322.511719 287.054688 339.144531 268.511719 339.144531 246.074219 " fill-opacity="1" fill-rule="nonzero"/><path fill="#fbc18a" d="M 316.703125 227.140625 C 316.703125 229.269531 318.433594 231 320.5625 231 C 322.695312 231 324.421875 229.269531 324.421875 227.140625 C 324.421875 225.011719 322.695312 223.285156 320.5625 223.285156 C 318.433594 223.285156 316.703125 225.011719 316.703125 227.140625 " fill-opacity="1" fill-rule="nonzero"/><path fill="#414042" d="M 303.894531 304.585938 L 307.101562 304.585938 C 310.667969 304.585938 313.585938 301.667969 313.585938 298.105469 L 313.585938 213.457031 C 313.585938 209.894531 310.667969 206.980469 307.101562 206.980469 L 303.894531 206.980469 C 300.328125 206.980469 297.410156 209.894531 297.410156 213.457031 L 297.410156 298.105469 C 297.410156 301.667969 300.328125 304.585938 303.894531 304.585938 " fill-opacity="1" fill-rule="nonzero"/><path fill="#343335" d="M 299.289062 299.324219 L 302.5 299.324219 C 306.0625 299.324219 308.980469 296.40625 308.980469 292.84375 L 308.980469 208.195312 C 308.980469 207.871094 308.949219 207.554688 308.902344 207.242188 C 311.597656 208.027344 313.585938 210.519531 313.585938 213.457031 L 313.585938 298.105469 C 313.585938 301.667969 310.667969 304.585938 307.101562 304.585938 L 303.894531 304.585938 C 300.652344 304.585938 297.957031 302.171875 297.488281 299.0625 C 298.0625 299.226562 298.664062 299.324219 299.289062 299.324219 " fill-opacity="1" fill-rule="nonzero"/><path fill="#525153" d="M 300.265625 213.609375 C 300.265625 214.203125 300.746094 214.683594 301.339844 214.683594 C 301.933594 214.683594 302.414062 214.203125 302.414062 213.609375 C 302.414062 213.015625 301.933594 212.535156 301.339844 212.535156 C 300.746094 212.535156 300.265625 213.015625 300.265625 213.609375 " fill-opacity="1" fill-rule="nonzero"/><path fill="#525153" d="M 301.339844 222.425781 C 301.933594 222.425781 302.414062 221.945312 302.414062 221.351562 L 302.414062 216.457031 C 302.414062 215.863281 301.933594 215.382812 301.339844 215.382812 C 300.746094 215.382812 300.265625 215.863281 300.265625 216.457031 L 300.265625 221.351562 C 300.265625 221.945312 300.746094 222.425781 301.339844 222.425781 " fill-opacity="1" fill-rule="nonzero"/><path fill="#f89d47" d="M 67.925781 211.324219 C 43.351562 211.324219 23.433594 231.230469 23.433594 255.78125 C 23.433594 280.335938 43.351562 300.238281 67.925781 300.238281 L 67.925781 211.324219 " fill-opacity="1" fill-rule="nonzero"/><path fill="#df8d40" d="M 29.675781 246.074219 C 29.675781 239.300781 31.195312 232.886719 33.90625 227.140625 C 27.375 234.878906 23.433594 244.867188 23.433594 255.78125 C 23.433594 280.335938 43.351562 300.238281 67.925781 300.238281 L 67.925781 290.089844 C 46.308594 287.054688 29.675781 268.511719 29.675781 246.074219 " fill-opacity="1" fill-rule="nonzero"/><path fill="#fbc18a" d="M 52.117188 227.140625 C 52.117188 229.269531 50.386719 231 48.257812 231 C 46.125 231 44.398438 229.269531 44.398438 227.140625 C 44.398438 225.011719 46.125 223.285156 48.257812 223.285156 C 50.386719 223.285156 52.117188 225.011719 52.117188 227.140625 " fill-opacity="1" fill-rule="nonzero"/><path fill="#414042" d="M 64.925781 304.585938 L 61.71875 304.585938 C 58.152344 304.585938 55.234375 301.667969 55.234375 298.105469 L 55.234375 213.457031 C 55.234375 209.894531 58.152344 206.980469 61.71875 206.980469 L 64.925781 206.980469 C 68.492188 206.980469 71.410156 209.894531 71.410156 213.457031 L 71.410156 298.105469 C 71.410156 301.667969 68.492188 304.585938 64.925781 304.585938 " fill-opacity="1" fill-rule="nonzero"/><path fill="#343335" d="M 69.53125 299.324219 L 66.320312 299.324219 C 62.757812 299.324219 59.839844 296.40625 59.839844 292.84375 L 59.839844 208.195312 C 59.839844 207.871094 59.871094 207.554688 59.917969 207.242188 C 57.222656 208.027344 55.234375 210.519531 55.234375 213.457031 L 55.234375 298.105469 C 55.234375 301.667969 58.152344 304.585938 61.71875 304.585938 L 64.925781 304.585938 C 68.164062 304.585938 70.863281 302.171875 71.332031 299.0625 C 70.757812 299.226562 70.15625 299.324219 69.53125 299.324219 " fill-opacity="1" fill-rule="nonzero"/><path fill="#525153" d="M 68.554688 213.609375 C 68.554688 214.203125 68.074219 214.683594 67.480469 214.683594 C 66.886719 214.683594 66.40625 214.203125 66.40625 213.609375 C 66.40625 213.015625 66.886719 212.535156 67.480469 212.535156 C 68.074219 212.535156 68.554688 213.015625 68.554688 213.609375 " fill-opacity="1" fill-rule="nonzero"/><path fill="#525153" d="M 67.480469 222.425781 C 66.886719 222.425781 66.40625 221.945312 66.40625 221.351562 L 66.40625 216.457031 C 66.40625 215.863281 66.886719 215.382812 67.480469 215.382812 C 68.074219 215.382812 68.554688 215.863281 68.554688 216.457031 L 68.554688 221.351562 C 68.554688 221.945312 68.074219 222.425781 67.480469 222.425781 " fill-opacity="1" fill-rule="nonzero"/><path fill="#706f71" d="M 81.550781 147.589844 C 74.902344 143.878906 72.917969 135.214844 77.328125 129.011719 C 101.785156 94.59375 141.644531 73.722656 184.410156 73.722656 C 227.175781 73.722656 267.035156 94.59375 291.492188 129.011719 C 295.902344 135.214844 293.917969 143.878906 287.273438 147.589844 C 281.527344 150.796875 274.332031 149.105469 270.519531 143.746094 C 250.828125 116.105469 218.785156 99.339844 184.410156 99.339844 C 150.035156 99.339844 117.992188 116.105469 98.300781 143.746094 C 94.488281 149.105469 87.292969 150.796875 81.550781 147.589844 " fill-opacity="1" fill-rule="nonzero"/><path fill="#5a595a" d="M 276.5 140.40625 C 256.808594 112.761719 224.765625 96 190.390625 96 C 170.878906 96 152.125 101.40625 135.949219 111.128906 C 150.691406 103.515625 167.261719 99.34375 184.410156 99.34375 C 218.785156 99.34375 250.828125 116.105469 270.519531 143.746094 C 274.332031 149.105469 281.527344 150.796875 287.273438 147.589844 C 288.308594 147.011719 289.21875 146.300781 290.023438 145.507812 C 285.015625 146.71875 279.625 144.792969 276.5 140.40625 " fill-opacity="1" fill-rule="nonzero"/><path fill="#818082" d="M 85.011719 132.234375 C 85.011719 133.199219 84.226562 133.980469 83.261719 133.980469 C 82.292969 133.980469 81.511719 133.199219 81.511719 132.234375 C 81.511719 131.269531 82.292969 130.484375 83.261719 130.484375 C 84.226562 130.484375 85.011719 131.269531 85.011719 132.234375 " fill-opacity="1" fill-rule="nonzero"/><path fill="#818082" d="M 92.367188 123.847656 L 87.164062 129.503906 C 86.609375 130.105469 85.667969 130.148438 85.066406 129.589844 C 84.460938 129.035156 84.421875 128.09375 84.976562 127.492188 L 90.179688 121.835938 C 90.734375 121.230469 91.675781 121.191406 92.277344 121.746094 C 92.882812 122.304688 92.921875 123.242188 92.367188 123.847656 " fill-opacity="1" fill-rule="nonzero"/><path fill="#c5eaf2" d="M -3.570312 209.179688 C -6.40625 209.179688 -7.964844 207.777344 -8.609375 207.003906 C -9.230469 206.449219 -9.636719 205.660156 -9.667969 204.765625 C -9.734375 203.019531 -8.367188 201.550781 -6.621094 201.484375 C -6.582031 201.484375 -6.542969 201.484375 -6.503906 201.484375 C -4.808594 201.484375 -3.40625 202.824219 -3.34375 204.53125 C -3.296875 205.777344 -3.980469 206.867188 -5.007812 207.421875 C -4.878906 207.433594 -4.734375 207.441406 -4.574219 207.441406 C -3.929688 207.441406 -2.996094 207.335938 -1.5625 207.109375 C 2.683594 206.429688 1.582031 201.0625 1.582031 201.0625 L 0.242188 193.703125 C 0.242188 193.703125 -0.234375 194.128906 -3.59375 194.265625 C -3.710938 194.273438 -3.835938 194.273438 -3.957031 194.273438 C -7.265625 194.273438 -11.472656 192.488281 -14.242188 188.085938 C -16.714844 184.164062 -16.765625 178.171875 -14.476562 174.105469 C -12.425781 170.460938 -9.449219 167.207031 -6.582031 164.183594 C -9.6875 157.570312 -7.109375 149.765625 -7.109375 149.765625 C -7.109375 149.765625 -7.003906 146.234375 -3.476562 146.109375 C -3.433594 146.105469 -3.394531 146.105469 -3.351562 146.105469 C 0.0703125 146.105469 1.144531 151.253906 1.425781 156.671875 C 1.710938 162.152344 -4.191406 169.074219 -4.191406 169.074219 L -3.222656 175.339844 C -3.039062 175.332031 -2.847656 175.328125 -2.648438 175.328125 C 0.761719 175.328125 5.421875 176.496094 6.828125 182.929688 C 8.316406 189.730469 1.785156 193.195312 1.785156 193.195312 C 1.785156 193.195312 3.269531 200.070312 3.503906 201.949219 C 3.734375 203.824219 2.269531 208.554688 -2.472656 209.113281 C -2.855469 209.160156 -3.222656 209.179688 -3.570312 209.179688 M -5.042969 169.535156 C -7.699219 171.867188 -10.726562 174.230469 -11.980469 177.644531 C -12.929688 180.21875 -13.289062 183.859375 -12.351562 186.480469 C -11.027344 190.1875 -6.570312 191.410156 -2.757812 191.410156 C -1.945312 191.410156 -1.164062 191.355469 -0.449219 191.253906 C -1.457031 187.328125 -2.378906 183.371094 -3.46875 179.464844 L -3.476562 179.441406 C -5.226562 180.34375 -6.511719 181.675781 -6.617188 183.722656 C -6.722656 185.746094 -5.417969 187.90625 -3.292969 188.339844 C -3.613281 188.46875 -3.929688 188.527344 -4.246094 188.527344 C -5.886719 188.527344 -7.457031 186.972656 -8.164062 185.664062 C -9.964844 182.359375 -8.359375 179.449219 -6.105469 176.929688 C -5.523438 176.285156 -4.910156 175.84375 -4.179688 175.355469 C -4.542969 173.507812 -4.679688 171.386719 -5.042969 169.535156 M -1.902344 179.191406 C -2.296875 179.191406 -2.539062 179.234375 -2.539062 179.234375 L 0.507812 191.152344 C 0.507812 191.152344 4.695312 189.261719 3.363281 183.84375 C 2.34375 179.675781 -0.597656 179.191406 -1.902344 179.191406 M -3.097656 149.675781 C -3.097656 149.675781 -3.101562 149.675781 -3.101562 149.675781 C -4.539062 149.679688 -6.269531 155.675781 -5.988281 158.292969 C -5.710938 160.90625 -4.964844 162.738281 -4.964844 162.738281 C -4.964844 162.738281 -1.40625 157.339844 -1.414062 155.207031 C -1.421875 153.074219 -1.664062 149.675781 -3.097656 149.675781 " fill-opacity="1" fill-rule="nonzero"/><path fill="#c5eaf2" d="M 264.664062 63.910156 C 264.652344 63.910156 264.644531 63.910156 264.636719 63.910156 C 262.945312 63.898438 262.164062 63.003906 261.875 62.554688 C 261.617188 62.257812 261.472656 61.859375 261.507812 61.4375 C 261.578125 60.660156 262.234375 60.074219 263.003906 60.074219 C 263.046875 60.074219 263.089844 60.074219 263.136719 60.078125 C 263.960938 60.152344 264.570312 60.878906 264.496094 61.703125 C 264.445312 62.289062 264.058594 62.761719 263.542969 62.964844 C 263.75 63.011719 264.046875 63.035156 264.496094 63.035156 C 264.691406 63.035156 264.921875 63.03125 265.183594 63.023438 C 267.214844 62.953125 267.019531 60.367188 267.019531 60.367188 L 266.824219 56.828125 C 266.824219 56.828125 266.695312 56.917969 266.03125 56.917969 C 265.777344 56.917969 265.433594 56.902344 264.988281 56.867188 C 263.402344 56.730469 261.429688 55.644531 260.347656 53.332031 C 259.421875 51.339844 259.753906 48.523438 261.070312 46.746094 C 262.25 45.15625 263.839844 43.804688 265.371094 42.550781 C 264.300781 39.261719 265.976562 35.746094 265.976562 35.746094 C 265.976562 35.746094 266.214844 34.230469 267.691406 34.230469 C 267.757812 34.230469 267.828125 34.234375 267.898438 34.238281 C 269.5625 34.386719 269.769531 36.902344 269.578125 39.492188 C 269.386719 42.089844 266.203125 44.988281 266.203125 44.988281 L 266.285156 47.992188 C 267.910156 48.136719 270.265625 48.871094 270.558594 52.152344 C 270.855469 55.441406 267.578125 56.679688 267.578125 56.679688 C 267.578125 56.679688 267.871094 60 267.867188 60.894531 C 267.867188 61.789062 266.902344 63.910156 264.664062 63.910156 M 266.414062 49.863281 C 266.390625 49.863281 266.375 49.863281 266.375 49.863281 L 267.097656 55.644531 C 267.097656 55.644531 269.179688 55.003906 268.878906 52.378906 C 268.597656 49.960938 266.710938 49.863281 266.414062 49.863281 M 265.773438 45.15625 C 264.390625 46.09375 262.824219 47.027344 262.03125 48.558594 C 261.4375 49.710938 261.046875 51.398438 261.332031 52.6875 C 261.816406 54.863281 264.613281 55.636719 266.5625 55.636719 C 266.589844 55.636719 266.617188 55.636719 266.644531 55.636719 C 266.40625 53.734375 266.207031 51.816406 265.925781 49.917969 L 265.921875 49.90625 C 265.046875 50.226562 264.363281 50.777344 264.195312 51.730469 C 264.023438 52.675781 264.507812 53.769531 265.480469 54.097656 C 265.375 54.125 265.273438 54.136719 265.171875 54.136719 C 264.335938 54.136719 263.621094 53.25 263.351562 52.550781 C 262.703125 50.894531 263.628906 49.621094 264.835938 48.570312 C 265.148438 48.304688 265.464844 48.128906 265.832031 47.945312 C 265.773438 47.054688 265.835938 46.050781 265.773438 45.15625 M 267.835938 35.9375 C 267.15625 35.9375 266.019531 38.589844 265.996094 39.816406 C 265.972656 41.066406 266.214844 41.96875 266.214844 41.96875 C 266.214844 41.96875 268.207031 39.640625 268.328125 38.640625 C 268.453125 37.636719 268.542969 36.023438 267.867188 35.941406 C 267.855469 35.9375 267.84375 35.9375 267.835938 35.9375 " fill-opacity="1" fill-rule="nonzero"/><path fill="#c5eaf2" d="M 203.136719 137.96875 C 200.941406 137.613281 198.730469 137.320312 196.496094 137.089844 C 197.445312 136.789062 198.484375 136.636719 199.546875 136.558594 C 199.699219 136.550781 199.847656 136.542969 199.996094 136.542969 C 200.621094 136.542969 201.199219 136.636719 201.847656 136.753906 C 202.800781 135.285156 204.082031 133.78125 205.039062 132.3125 C 203.714844 132.246094 202.34375 132.144531 200.984375 132.144531 C 198.976562 132.144531 196.980469 132.367188 195.164062 133.238281 C 193.632812 133.976562 191.964844 135.203125 190.707031 136.636719 C 189.691406 136.578125 188.671875 136.539062 187.648438 136.511719 C 189.179688 133.179688 192.378906 130.28125 195.792969 129.269531 C 199.515625 128.164062 203.601562 127.914062 207.472656 127.75 C 209.679688 121.335938 216.445312 117.792969 216.445312 117.792969 C 216.445312 117.792969 217.519531 116.75 218.972656 116.75 C 219.667969 116.75 220.445312 116.988281 221.234375 117.699219 C 223.667969 119.890625 221.03125 124.070312 217.671875 127.910156 C 214.316406 131.75 205.90625 132.550781 205.90625 132.550781 L 202.496094 137.359375 C 202.710938 137.546875 202.921875 137.75 203.136719 137.96875 M 218.601562 120.144531 C 216.945312 120.144531 212.984375 122.535156 211.679688 124.203125 C 210.175781 126.125 209.484375 127.832031 209.484375 127.832031 C 209.484375 127.832031 215.347656 126.527344 216.726562 125.101562 C 218.101562 123.671875 220.140625 121.246094 219.179688 120.320312 C 219.050781 120.199219 218.851562 120.144531 218.601562 120.144531 " fill-opacity="1" fill-rule="nonzero"/><path fill="#17a9cb" d="M 184.820312 161.636719 C 183.628906 161.636719 182.359375 161.289062 181.152344 160.371094 C 178.519531 158.359375 178.34375 156.039062 178.421875 154.996094 C 178.367188 154.226562 178.605469 153.4375 179.164062 152.816406 C 179.742188 152.175781 180.546875 151.84375 181.351562 151.84375 C 182.050781 151.84375 182.753906 152.09375 183.316406 152.597656 C 184.523438 153.6875 184.621094 155.542969 183.535156 156.75 C 182.960938 157.390625 182.164062 157.710938 181.363281 157.710938 C 181.09375 157.710938 180.820312 157.675781 180.558594 157.601562 C 180.945312 158.058594 181.671875 158.648438 183.058594 159.617188 C 183.746094 160.101562 184.410156 160.292969 185.03125 160.292969 C 187.355469 160.292969 189.0625 157.617188 189.0625 157.617188 L 192.929688 151.84375 C 192.929688 151.84375 192.335938 151.820312 190.007812 149.742188 C 187.679688 147.660156 185.867188 143.644531 186.90625 138.738281 C 187.0625 137.988281 187.316406 137.238281 187.648438 136.511719 C 188.671875 136.539062 189.691406 136.578125 190.707031 136.636719 C 190.082031 137.347656 189.558594 138.109375 189.203125 138.894531 C 187.367188 142.925781 190.964844 147.5 194.050781 149.765625 C 195.917969 146.496094 197.867188 143.257812 199.664062 139.949219 L 199.675781 139.929688 C 199.019531 139.734375 198.371094 139.621094 197.742188 139.621094 C 196.6875 139.621094 195.683594 139.945312 194.808594 140.757812 C 193.429688 142.042969 192.90625 144.316406 194.042969 145.980469 C 192.222656 145.25 192.078125 142.640625 192.523438 141.050781 C 193.140625 138.828125 194.644531 137.675781 196.496094 137.089844 C 198.730469 137.320312 200.941406 137.613281 203.136719 137.96875 C 205.328125 140.203125 207.398438 143.90625 204.292969 148.914062 C 202.28125 152.15625 199.160156 152.820312 196.941406 152.820312 C 195.394531 152.820312 194.289062 152.5 194.289062 152.5 C 194.289062 152.5 190.828125 158.042969 189.773438 159.445312 C 189.078125 160.367188 187.09375 161.636719 184.820312 161.636719 M 200.433594 140.398438 L 194.757812 150.3125 C 194.757812 150.3125 195.375 150.535156 196.285156 150.535156 C 197.695312 150.535156 199.800781 150 201.390625 147.285156 C 204.011719 142.808594 200.433594 140.398438 200.433594 140.398438 " fill-opacity="1" fill-rule="nonzero"/><g clip-path="url(#dc560f4470)"><path fill="#c5eaf2" d="M 378.257812 183.511719 C 377.992188 183.511719 377.71875 183.492188 377.445312 183.460938 C 374.640625 183.136719 372.558594 181.21875 372.796875 179.179688 C 373.007812 177.339844 375.039062 176.027344 377.492188 176.027344 C 377.757812 176.027344 378.03125 176.042969 378.304688 176.074219 C 379.816406 176.25 381.113281 176.890625 381.957031 177.761719 L 389.230469 154.558594 L 367.355469 152.433594 L 359.445312 177.679688 L 359.433594 177.671875 C 359.0625 179.371094 357.117188 180.550781 354.785156 180.550781 C 354.519531 180.550781 354.25 180.535156 353.972656 180.507812 C 351.171875 180.179688 349.089844 178.261719 349.328125 176.222656 C 349.542969 174.382812 351.566406 173.070312 354.023438 173.070312 C 354.289062 173.070312 354.558594 173.085938 354.835938 173.117188 C 356.347656 173.292969 357.644531 173.933594 358.484375 174.804688 L 366.476562 149.316406 L 366.773438 149.410156 L 391.941406 151.855469 L 391.039062 154.734375 L 391.035156 154.734375 L 382.914062 180.632812 L 382.90625 180.632812 C 382.53125 182.324219 380.585938 183.511719 378.257812 183.511719 " fill-opacity="1" fill-rule="nonzero"/></g><path fill="#c5eaf2" d="M 179.410156 33.507812 C 178.378906 33.507812 177.226562 33.144531 176.191406 32.417969 C 174.066406 30.925781 173.222656 28.460938 174.308594 26.917969 C 174.867188 26.128906 175.820312 25.726562 176.902344 25.726562 C 177.9375 25.726562 179.089844 26.089844 180.128906 26.820312 C 181.273438 27.625 182.042969 28.710938 182.34375 29.78125 L 198.402344 14.203125 L 181.640625 2.90625 L 164.167969 19.855469 L 164.164062 19.847656 C 163.589844 20.507812 162.714844 20.839844 161.726562 20.839844 C 160.695312 20.839844 159.542969 20.476562 158.503906 19.746094 C 156.378906 18.257812 155.535156 15.789062 156.621094 14.246094 C 157.179688 13.453125 158.132812 13.058594 159.214844 13.058594 C 160.25 13.058594 161.402344 13.417969 162.441406 14.148438 C 163.585938 14.953125 164.355469 16.039062 164.65625 17.113281 L 182.296875 -0.00390625 L 182.5 0.203125 L 201.785156 13.203125 L 199.789062 15.136719 L 199.785156 15.132812 L 181.855469 32.523438 L 181.847656 32.519531 C 181.277344 33.175781 180.398438 33.507812 179.410156 33.507812 " fill-opacity="1" fill-rule="nonzero"/><path fill="#c5eaf2" d="M 316.679688 65.566406 L 316.675781 65.5625 L 316.679688 65.566406 " fill-opacity="1" fill-rule="nonzero"/><path fill="#c5eaf2" d="M 320.25 102.121094 C 318.566406 102.121094 317.121094 101.425781 316.503906 100.144531 C 315.519531 98.113281 316.988281 95.375 319.78125 94.027344 C 320.8125 93.527344 321.878906 93.292969 322.863281 93.292969 C 323.316406 93.292969 323.753906 93.34375 324.164062 93.441406 L 319.78125 77.121094 L 317.824219 69.84375 L 317.828125 69.84375 L 316.675781 65.5625 L 314.722656 58.28125 C 319.132812 60.917969 324.253906 62.898438 328.523438 65.644531 C 331.53125 67.578125 332.203125 70.824219 332.363281 73.949219 C 332.421875 75.128906 332.320312 76.335938 332.113281 77.546875 C 334.703125 79.503906 335.316406 82.558594 335.46875 85.507812 C 335.601562 88.160156 334.960938 90.925781 333.976562 93.582031 C 333.976562 93.582031 334.894531 86.109375 330.925781 81.863281 L 330.871094 82.023438 C 330.871094 82.023438 330.878906 81.953125 330.890625 81.828125 C 329.988281 80.875 328.84375 80.089844 327.382812 79.589844 C 324.800781 78.710938 323.105469 78.144531 321.972656 77.777344 L 326.746094 95.542969 L 326.734375 95.542969 C 327.460938 97.539062 326.007812 100.09375 323.339844 101.382812 C 322.304688 101.882812 321.238281 102.121094 320.25 102.121094 M 318.871094 66.21875 L 320.199219 71.167969 C 323.671875 73.011719 327.375 74.636719 330.675781 76.625 C 330.109375 73.328125 328.511719 69.472656 324.277344 68.03125 C 321.695312 67.148438 320 66.585938 318.871094 66.21875 " fill-opacity="1" fill-rule="nonzero"/><path fill="#c5eaf2" d="M 90.261719 184.65625 L 86.679688 173.746094 L 83.828125 165.046875 L 82.144531 159.921875 L 82.144531 159.925781 L 81.769531 158.777344 C 82.632812 157.058594 83.546875 155.355469 84.492188 153.683594 C 88.574219 155.46875 92.789062 157.113281 96.527344 159.238281 C 100.304688 161.386719 101.335938 165.277344 101.738281 169.058594 C 101.804688 169.691406 101.835938 170.328125 101.832031 170.976562 C 101.003906 171.8125 100.191406 172.664062 99.390625 173.523438 C 98.496094 174.484375 97.621094 175.464844 96.757812 176.457031 C 96.535156 176.375 96.304688 176.300781 96.070312 176.238281 C 92.875 175.34375 90.78125 174.769531 89.386719 174.398438 L 91.988281 182.324219 C 91.40625 183.09375 90.828125 183.871094 90.261719 184.65625 M 84.851562 160.574219 L 86.792969 166.492188 C 91.128906 168.5 95.730469 170.226562 99.871094 172.421875 C 98.964844 168.457031 96.769531 163.882812 91.535156 162.414062 C 88.339844 161.519531 86.246094 160.949219 84.851562 160.574219 " fill-opacity="1" fill-rule="nonzero"/><path fill="#17a9cb" d="M 88.515625 204.0625 C 86.636719 204.0625 85.015625 203.320312 84.230469 201.90625 C 82.90625 199.503906 84.507812 196.082031 87.808594 194.257812 C 89.160156 193.511719 90.585938 193.152344 91.894531 193.152344 C 92.304688 193.152344 92.703125 193.1875 93.085938 193.257812 L 92.566406 191.679688 L 95.058594 191.679688 L 96.355469 195.636719 L 96.34375 195.640625 C 97.359375 198.019531 95.765625 201.214844 92.613281 202.953125 C 91.257812 203.703125 89.824219 204.0625 88.515625 204.0625 M 105 192.785156 C 105 192.785156 105.027344 192.371094 105.023438 191.679688 L 105.324219 191.679688 C 105.222656 192.046875 105.113281 192.417969 105 192.785156 M 101.796875 173.523438 L 99.390625 173.523438 C 100.191406 172.664062 101.003906 171.8125 101.832031 170.976562 C 101.828125 171.789062 101.773438 172.613281 101.675781 173.441406 C 101.714844 173.46875 101.753906 173.496094 101.796875 173.523438 " fill-opacity="1" fill-rule="nonzero"/><path fill="#c5e9f2" d="M 105.324219 191.679688 L 105.023438 191.679688 C 105.007812 189.097656 104.539062 182.613281 100.523438 178.761719 C 100.503906 178.828125 100.484375 178.894531 100.464844 178.960938 C 100.464844 178.960938 100.46875 178.871094 100.476562 178.71875 C 99.472656 177.769531 98.25 176.980469 96.757812 176.457031 C 97.621094 175.464844 98.496094 174.484375 99.390625 173.523438 L 101.796875 173.523438 C 104.976562 175.738281 105.898438 179.355469 106.273438 182.882812 C 106.578125 185.734375 106.144531 188.738281 105.324219 191.679688 M 95.058594 191.679688 L 92.566406 191.679688 L 90.261719 184.65625 C 90.828125 183.871094 91.40625 183.09375 91.988281 182.324219 L 95.058594 191.679688 " fill-opacity="1" fill-rule="nonzero"/><path fill="#93b9c3" d="M 81.769531 158.777344 L 79.289062 151.222656 C 80.964844 152.101562 82.714844 152.90625 84.492188 153.683594 C 83.546875 155.355469 82.632812 157.058594 81.769531 158.777344 " fill-opacity="1" fill-rule="nonzero"/><path fill="#c5eaf2" d="M 86.683594 173.75 L 86.679688 173.746094 L 86.683594 173.75 " fill-opacity="1" fill-rule="nonzero"/><path fill="#c5eaf2" d="M 112.15625 84.9375 C 112.15625 84.9375 116.214844 82.179688 116.59375 78.417969 L 116.488281 78.457031 C 116.488281 78.457031 116.527344 78.429688 116.59375 78.382812 C 116.671875 77.535156 116.566406 76.636719 116.183594 75.707031 C 115.507812 74.066406 115.054688 72.996094 114.753906 72.285156 L 108.09375 82.242188 L 108.089844 82.234375 C 107.652344 83.027344 106.703125 83.464844 105.601562 83.464844 C 105.015625 83.464844 104.386719 83.34375 103.769531 83.082031 C 101.910156 82.292969 100.871094 80.558594 101.445312 79.203125 C 101.828125 78.300781 102.835938 77.796875 104.015625 77.796875 C 104.601562 77.796875 105.234375 77.921875 105.851562 78.183594 C 106.851562 78.609375 107.613281 79.308594 108.015625 80.078125 L 114.132812 70.929688 L 116.859375 66.851562 L 118.464844 64.449219 L 121.195312 60.371094 C 121.792969 63.660156 123.019531 67.015625 123.507812 70.28125 C 123.851562 72.582031 122.550781 74.300781 121.085938 75.722656 C 120.535156 76.261719 119.898438 76.726562 119.214844 77.144531 C 119.371094 79.253906 118.132812 80.859375 116.753906 82.199219 C 115.511719 83.40625 113.882812 84.28125 112.15625 84.9375 M 119.085938 65.808594 L 117.226562 68.582031 C 117.816406 71.070312 118.605469 73.578125 119.050781 76.046875 C 120.421875 74.355469 121.625 71.921875 120.515625 69.230469 C 119.839844 67.589844 119.386719 66.515625 119.085938 65.808594 " fill-opacity="1" fill-rule="nonzero"/><path fill="#c5eaf2" d="M 39.117188 103.664062 C 37.832031 103.664062 36.703125 103.191406 36.042969 102.253906 C 34.757812 100.421875 35.753906 97.503906 38.273438 95.730469 C 39.503906 94.867188 40.867188 94.441406 42.09375 94.441406 C 42.222656 94.441406 42.347656 94.445312 42.46875 94.453125 L 30.644531 68.347656 L 30.644531 68.355469 L 30.644531 68.347656 L 27.554688 61.535156 C 32.300781 63.40625 37.632812 64.523438 42.261719 66.523438 C 45.515625 67.933594 46.695312 71.003906 47.359375 74.039062 C 47.917969 76.617188 47.738281 79.429688 47.199219 82.191406 C 47.199219 82.191406 46.746094 70.921875 38.484375 69.546875 C 35.816406 69.097656 34.0625 68.820312 32.898438 68.640625 L 45.335938 96.097656 L 45.324219 96.101562 C 46.359375 97.941406 45.347656 100.675781 42.941406 102.363281 C 41.710938 103.234375 40.34375 103.664062 39.117188 103.664062 " fill-opacity="1" fill-rule="nonzero"/><path fill="#c5eaf2" d="M 289.613281 189.542969 C 287.742188 189.542969 286.183594 188.601562 285.914062 187.179688 C 285.589844 185.492188 287.210938 183.765625 289.535156 183.328125 C 289.894531 183.257812 290.25 183.222656 290.597656 183.222656 C 291.449219 183.222656 292.238281 183.425781 292.871094 183.773438 L 292.871094 172.558594 C 293.398438 174.070312 293.890625 175.597656 294.355469 177.140625 L 294.355469 185.816406 L 294.332031 185.816406 C 294.472656 187.425781 292.914062 189.019531 290.695312 189.441406 C 290.328125 189.511719 289.964844 189.542969 289.613281 189.542969 M 273.949219 178.6875 C 273.460938 178.09375 272.96875 177.507812 272.46875 176.925781 L 272.46875 167.691406 L 265.207031 169.210938 C 264.488281 168.511719 263.757812 167.824219 263.019531 167.140625 L 273.957031 164.847656 L 273.957031 164.855469 L 288.511719 161.800781 C 288.871094 162.570312 289.21875 163.335938 289.554688 164.109375 L 273.949219 167.378906 L 273.949219 178.6875 " fill-opacity="1" fill-rule="nonzero"/><path fill="#17a9cb" d="M 273.949219 184.570312 L 272.46875 184.570312 L 272.46875 176.925781 C 272.96875 177.507812 273.460938 178.09375 273.949219 178.6875 L 273.949219 184.570312 M 254.46875 184.570312 L 252.988281 184.570312 L 252.988281 169.191406 L 253.25 169.191406 L 263.019531 167.140625 C 263.757812 167.824219 264.488281 168.511719 265.207031 169.210938 L 254.46875 171.460938 L 254.46875 184.570312 " fill-opacity="1" fill-rule="nonzero"/><path fill="#c5e9f2" d="M 249.726562 197.320312 C 247.859375 197.320312 246.296875 196.382812 246.027344 194.960938 C 245.707031 193.273438 247.328125 191.546875 249.648438 191.105469 C 250.007812 191.035156 250.367188 191.003906 250.710938 191.003906 C 251.5625 191.003906 252.351562 191.203125 252.988281 191.550781 L 252.988281 184.570312 L 254.46875 184.570312 L 254.46875 193.59375 L 254.445312 193.59375 C 254.585938 195.203125 253.027344 196.796875 250.8125 197.21875 C 250.445312 197.289062 250.082031 197.320312 249.726562 197.320312 M 269.210938 193.816406 C 267.339844 193.816406 265.777344 192.875 265.507812 191.453125 C 265.1875 189.765625 266.808594 188.039062 269.128906 187.601562 C 269.492188 187.53125 269.847656 187.5 270.191406 187.5 C 271.046875 187.5 271.835938 187.699219 272.46875 188.046875 L 272.46875 184.570312 L 273.949219 184.570312 L 273.949219 190.089844 L 273.925781 190.089844 C 274.070312 191.699219 272.507812 193.292969 270.292969 193.714844 C 269.925781 193.785156 269.5625 193.816406 269.210938 193.816406 " fill-opacity="1" fill-rule="nonzero"/><path fill="#93b9c3" d="M 294.355469 177.140625 C 293.890625 175.597656 293.398438 174.070312 292.871094 172.558594 L 292.871094 163.417969 L 289.554688 164.109375 C 289.21875 163.335938 288.871094 162.570312 288.511719 161.800781 L 294.359375 160.574219 L 294.359375 163.105469 L 294.355469 163.105469 L 294.355469 177.140625 " fill-opacity="1" fill-rule="nonzero"/></svg>