<svg xmlns="http://www.w3.org/2000/svg" xmlns:xlink="http://www.w3.org/1999/xlink" width="500" zoomAndPan="magnify" viewBox="0 0 375 374.999991" height="500" preserveAspectRatio="xMidYMid meet" version="1.0"><defs><clipPath id="f9a592ff13"><path d="M 254 49.574219 L 375 49.574219 L 375 325.574219 L 254 325.574219 Z M 254 49.574219 " clip-rule="nonzero"/></clipPath><clipPath id="11505d055c"><path d="M 0 49.574219 L 128 49.574219 L 128 325.574219 L 0 325.574219 Z M 0 49.574219 " clip-rule="nonzero"/></clipPath><clipPath id="af7997869f"><path d="M 127 49.574219 L 255 49.574219 L 255 325.574219 L 127 325.574219 Z M 127 49.574219 " clip-rule="nonzero"/></clipPath></defs><g clip-path="url(#f9a592ff13)"><path fill="#ed2939" d="M 381.75 283.074219 C 381.75 306.515625 362.757812 325.519531 339.332031 325.519531 L 254.5 325.519531 L 254.5 49.625 L 339.332031 49.625 C 362.757812 49.625 381.75 68.632812 381.75 92.070312 Z M 381.75 283.074219 " fill-opacity="1" fill-rule="nonzero"/></g><g clip-path="url(#11505d055c)"><path fill="#002495" d="M 42.417969 49.625 C 18.992188 49.625 0 68.632812 0 92.070312 L 0 283.074219 C 0 306.515625 18.992188 325.519531 42.417969 325.519531 L 127.25 325.519531 L 127.25 49.625 Z M 42.417969 49.625 " fill-opacity="1" fill-rule="nonzero"/></g><g clip-path="url(#af7997869f)"><path fill="#eeeeee" d="M 127.25 49.625 L 254.5 49.625 L 254.5 325.519531 L 127.25 325.519531 Z M 127.25 49.625 " fill-opacity="1" fill-rule="nonzero"/></g></svg>