<svg xmlns="http://www.w3.org/2000/svg" xmlns:xlink="http://www.w3.org/1999/xlink" width="500" zoomAndPan="magnify" viewBox="0 0 375 374.999991" height="500" preserveAspectRatio="xMidYMid meet" version="1.0"><defs><clipPath id="cc51a289ea"><path d="M 51 10.234375 L 327 10.234375 L 327 218 L 51 218 Z M 51 10.234375 " clip-rule="nonzero"/></clipPath><clipPath id="085e90e1f6"><path d="M 81 176 L 296 176 L 296 352.984375 L 81 352.984375 Z M 81 176 " clip-rule="nonzero"/></clipPath></defs><g clip-path="url(#cc51a289ea)"><path fill="#ffde59" d="M 51.585938 217.992188 L 51.585938 147.746094 C 51.585938 109.96875 66.996094 75.507812 91.847656 50.65625 C 116.699219 25.804688 151.160156 10.230469 188.933594 10.230469 C 226.710938 10.230469 261.007812 25.804688 286.023438 50.65625 C 310.875 75.507812 326.28125 109.96875 326.28125 147.746094 L 326.28125 217.992188 L 313.691406 217.992188 L 313.691406 147.746094 C 313.691406 113.449219 299.773438 82.136719 277.078125 59.605469 C 254.542969 36.90625 223.230469 22.824219 188.933594 22.824219 C 154.640625 22.824219 123.328125 36.90625 100.792969 59.605469 C 78.097656 82.136719 64.011719 113.449219 64.011719 147.746094 L 64.011719 217.992188 Z M 51.585938 217.992188 " fill-opacity="1" fill-rule="nonzero"/></g><g clip-path="url(#085e90e1f6)"><path fill="#576d85" d="M 93.171875 176.242188 L 105.597656 176.242188 C 111.894531 176.242188 116.863281 181.214844 116.863281 187.507812 L 116.863281 341.425781 C 116.863281 347.722656 111.894531 352.691406 105.597656 352.691406 L 93.171875 352.691406 C 87.042969 352.691406 81.90625 347.722656 81.90625 341.425781 L 81.90625 187.507812 C 81.90625 181.214844 87.042969 176.242188 93.171875 176.242188 Z M 284.699219 176.242188 L 272.105469 176.242188 C 265.976562 176.242188 261.007812 181.214844 261.007812 187.507812 L 261.007812 341.425781 C 261.007812 347.722656 265.976562 352.691406 272.105469 352.691406 L 284.699219 352.691406 C 290.828125 352.691406 295.964844 347.722656 295.964844 341.425781 L 295.964844 187.507812 C 295.964844 181.214844 290.828125 176.242188 284.699219 176.242188 Z M 284.699219 176.242188 " fill-opacity="1" fill-rule="evenodd"/></g><path fill="#004aad" d="M 81.90625 187.507812 C 0.0625 187.507812 0.558594 341.425781 81.90625 341.425781 Z M 295.964844 187.507812 C 377.808594 187.507812 377.3125 341.425781 295.964844 341.425781 Z M 295.964844 187.507812 " fill-opacity="1" fill-rule="evenodd"/><path fill="#91a3be" d="M 81.90625 187.507812 C 79.585938 187.507812 77.433594 187.507812 75.28125 187.839844 L 75.28125 341.09375 C 77.433594 341.257812 79.585938 341.425781 81.90625 341.425781 Z M 302.589844 341.09375 L 302.589844 187.839844 C 300.4375 187.507812 298.117188 187.507812 295.964844 187.507812 L 295.964844 341.425781 C 298.117188 341.425781 300.4375 341.257812 302.589844 341.09375 Z M 302.589844 341.09375 " fill-opacity="1" fill-rule="evenodd"/><path fill="#91a3be" d="M 20.769531 266.207031 C 21.433594 304.144531 41.8125 341.425781 81.90625 341.425781 L 81.90625 300.832031 C 42.640625 300.832031 22.261719 283.933594 20.769531 266.371094 C 20.769531 266.207031 20.769531 266.207031 20.769531 266.207031 Z M 357.101562 265.378906 L 357.101562 265.542969 C 356.269531 283.269531 335.890625 300.832031 295.964844 300.832031 L 295.964844 341.425781 C 336.222656 341.425781 356.769531 303.648438 357.101562 265.378906 Z M 357.101562 265.378906 " fill-opacity="1" fill-rule="evenodd"/><path fill="#ffde59" d="M 153.976562 229.261719 C 155.964844 229.261719 157.457031 230.75 157.457031 232.738281 C 157.457031 268.195312 157.457031 260.738281 157.457031 296.195312 C 157.457031 298.183594 155.964844 299.671875 153.976562 299.671875 C 151.988281 299.671875 150.496094 298.183594 150.496094 296.195312 C 150.496094 260.738281 150.496094 268.195312 150.496094 232.738281 C 150.496094 230.75 151.988281 229.261719 153.976562 229.261719 Z M 136.414062 207.722656 C 138.402344 207.722656 140.058594 209.210938 140.058594 211.199219 C 140.058594 246.65625 140.058594 282.277344 140.058594 317.730469 C 140.058594 319.71875 138.402344 321.210938 136.414062 321.210938 C 134.59375 321.210938 132.9375 319.71875 132.9375 317.730469 C 132.9375 282.277344 132.9375 246.65625 132.9375 211.199219 C 132.9375 209.210938 134.59375 207.722656 136.414062 207.722656 Z M 241.457031 207.722656 C 243.277344 207.722656 244.933594 209.210938 244.933594 211.199219 C 244.933594 246.65625 244.933594 282.277344 244.933594 317.730469 C 244.933594 319.71875 243.277344 321.210938 241.457031 321.210938 C 239.46875 321.210938 237.8125 319.71875 237.8125 317.730469 C 237.8125 282.277344 237.8125 246.65625 237.8125 211.199219 C 237.8125 209.210938 239.46875 207.722656 241.457031 207.722656 Z M 223.894531 219.652344 C 225.882812 219.652344 227.371094 221.308594 227.371094 223.296875 C 227.371094 258.75 227.371094 270.183594 227.371094 305.636719 C 227.371094 307.625 225.882812 309.28125 223.894531 309.28125 C 221.90625 309.28125 220.414062 307.625 220.414062 305.636719 C 220.414062 270.183594 220.414062 258.75 220.414062 223.296875 C 220.414062 221.308594 221.90625 219.652344 223.894531 219.652344 Z M 206.496094 249.96875 C 208.320312 249.96875 209.976562 251.460938 209.976562 253.449219 C 209.976562 288.902344 209.976562 240.027344 209.976562 275.484375 C 209.976562 277.472656 208.320312 278.964844 206.496094 278.964844 C 204.507812 278.964844 202.851562 277.472656 202.851562 275.484375 C 202.851562 240.027344 202.851562 288.902344 202.851562 253.449219 C 202.851562 251.460938 204.507812 249.96875 206.496094 249.96875 Z M 188.933594 216.835938 C 190.925781 216.835938 192.414062 218.324219 192.414062 220.3125 C 192.414062 255.933594 192.414062 273 192.414062 308.621094 C 192.414062 310.609375 190.925781 312.101562 188.933594 312.101562 C 186.949219 312.101562 185.457031 310.609375 185.457031 308.621094 C 185.457031 273 185.457031 255.933594 185.457031 220.3125 C 185.457031 218.324219 186.949219 216.835938 188.933594 216.835938 Z M 171.375 239.863281 C 173.359375 239.863281 175.019531 241.355469 175.019531 243.34375 C 175.019531 278.796875 175.019531 250.136719 175.019531 285.589844 C 175.019531 287.578125 173.359375 289.070312 171.375 289.070312 C 169.550781 289.070312 167.894531 287.578125 167.894531 285.589844 C 167.894531 250.136719 167.894531 278.796875 167.894531 243.34375 C 167.894531 241.355469 169.550781 239.863281 171.375 239.863281 Z M 171.375 239.863281 " fill-opacity="1" fill-rule="evenodd"/></svg>