<svg xmlns="http://www.w3.org/2000/svg" xmlns:xlink="http://www.w3.org/1999/xlink" width="500" zoomAndPan="magnify" viewBox="0 0 375 374.999991" height="500" preserveAspectRatio="xMidYMid meet" version="1.0"><defs><clipPath id="be2897e8e1"><path d="M 0 272.8125 L 375 272.8125 L 375 289 L 0 289 Z M 0 272.8125 " clip-rule="nonzero"/></clipPath><clipPath id="57309a0064"><path d="M 156 311 L 220 311 L 220 374.8125 L 156 374.8125 Z M 156 311 " clip-rule="nonzero"/></clipPath></defs><g clip-path="url(#be2897e8e1)"><path fill="#000000" d="M 373.449219 279.496094 L 117.246094 279.496094 C 116.621094 275.792969 113.398438 272.972656 109.515625 272.972656 C 106.050781 272.972656 103.128906 275.207031 102.078125 278.300781 L 2.476562 278.300781 C 1.179688 278.300781 0.125 279.285156 -0.0078125 280.542969 C -0.0273438 280.628906 -0.0351562 280.71875 -0.0351562 280.804688 C -0.0351562 280.894531 -0.0273438 280.984375 -0.0078125 281.070312 C 0.125 282.328125 1.179688 283.3125 2.476562 283.3125 L 102.078125 283.3125 C 103.128906 286.40625 106.0625 288.640625 109.515625 288.640625 C 113.398438 288.640625 116.621094 285.820312 117.246094 282.117188 L 373.449219 282.117188 C 374.179688 282.117188 374.769531 281.527344 374.769531 280.796875 C 374.769531 280.09375 374.179688 279.496094 373.449219 279.496094 Z M 373.449219 279.496094 " fill-opacity="1" fill-rule="nonzero"/></g><path fill="#000000" d="M 87.226562 344.855469 L 107.636719 357.824219 C 108.878906 358.613281 110.5 357.726562 110.5 356.257812 L 110.5 329.511719 C 110.5 328.042969 108.878906 327.152344 107.636719 327.945312 L 87.226562 340.914062 C 85.78125 341.828125 85.78125 343.9375 87.226562 344.855469 Z M 87.226562 344.855469 " fill-opacity="1" fill-rule="nonzero"/><path fill="#000000" d="M 82.988281 356.46875 L 80.117188 356.46875 C 79.667969 356.46875 79.296875 356.101562 79.296875 355.652344 L 79.296875 330.117188 C 79.296875 329.667969 79.667969 329.300781 80.117188 329.300781 L 82.988281 329.300781 C 83.4375 329.300781 83.808594 329.667969 83.808594 330.117188 L 83.808594 355.652344 C 83.808594 356.101562 83.4375 356.46875 82.988281 356.46875 Z M 82.988281 356.46875 " fill-opacity="1" fill-rule="nonzero"/><path fill="#000000" d="M 288.769531 340.914062 L 268.359375 327.945312 C 267.117188 327.152344 265.496094 328.042969 265.496094 329.511719 L 265.496094 356.257812 C 265.496094 357.726562 267.117188 358.613281 268.359375 357.824219 L 288.769531 344.855469 C 290.214844 343.9375 290.214844 341.828125 288.769531 340.914062 Z M 288.769531 340.914062 " fill-opacity="1" fill-rule="nonzero"/><path fill="#000000" d="M 293.003906 329.300781 L 295.878906 329.300781 C 296.328125 329.300781 296.695312 329.667969 296.695312 330.117188 L 296.695312 355.652344 C 296.695312 356.101562 296.328125 356.46875 295.878906 356.46875 L 293.003906 356.46875 C 292.554688 356.46875 292.1875 356.101562 292.1875 355.652344 L 292.1875 330.117188 C 292.1875 329.667969 292.554688 329.300781 293.003906 329.300781 Z M 293.003906 329.300781 " fill-opacity="1" fill-rule="nonzero"/><g clip-path="url(#57309a0064)"><path fill="#000000" d="M 188.003906 311.035156 C 170.375 311.035156 156.097656 325.296875 156.097656 342.882812 C 156.097656 360.480469 170.382812 374.730469 188.003906 374.730469 C 205.628906 374.730469 219.910156 360.46875 219.910156 342.882812 C 219.910156 325.296875 205.621094 311.035156 188.003906 311.035156 Z M 184.160156 352.152344 C 184.160156 353.882812 182.742188 355.300781 181.007812 355.300781 C 179.273438 355.300781 177.855469 353.882812 177.855469 352.152344 L 177.855469 333.617188 C 177.855469 331.882812 179.273438 330.46875 181.007812 330.46875 C 182.742188 330.46875 184.160156 331.882812 184.160156 333.617188 Z M 198.148438 352.152344 C 198.148438 353.882812 196.730469 355.300781 194.996094 355.300781 C 193.261719 355.300781 191.84375 353.882812 191.84375 352.152344 L 191.84375 333.617188 C 191.84375 331.882812 193.253906 330.46875 194.996094 330.46875 C 196.730469 330.46875 198.148438 331.882812 198.148438 333.617188 Z M 198.148438 352.152344 " fill-opacity="1" fill-rule="nonzero"/></g><path fill="#000000" d="M 346.925781 337.195312 L 353.628906 337.195312 L 353.628906 339.453125 C 353.628906 339.894531 354.113281 340.160156 354.492188 339.929688 L 360.613281 336.035156 C 361.046875 335.761719 361.046875 335.128906 360.613281 334.847656 L 354.492188 330.953125 C 354.121094 330.714844 353.628906 330.980469 353.628906 331.425781 L 353.628906 333.6875 L 346.988281 333.6875 C 341.71875 333.6875 337.105469 337.582031 336.609375 342.824219 C 336.074219 348.546875 340.34375 353.425781 345.859375 353.867188 C 346.300781 353.902344 346.6875 353.566406 346.6875 353.117188 L 346.6875 351.089844 C 346.6875 350.71875 346.414062 350.382812 346.042969 350.347656 C 342.425781 349.996094 339.65625 346.71875 340.144531 342.917969 C 340.574219 339.59375 343.570312 337.195312 346.925781 337.195312 Z M 346.925781 337.195312 " fill-opacity="1" fill-rule="nonzero"/><path fill="#000000" d="M 364.316406 334.460938 L 364.316406 336.492188 C 364.316406 336.859375 364.585938 337.195312 364.957031 337.230469 C 368.578125 337.582031 371.34375 340.863281 370.859375 344.660156 C 370.4375 347.984375 367.441406 350.382812 364.085938 350.382812 L 357.382812 350.382812 L 357.382812 348.125 C 357.382812 347.683594 356.898438 347.421875 356.519531 347.648438 L 350.394531 351.546875 C 349.964844 351.816406 349.964844 352.449219 350.394531 352.730469 L 356.519531 356.628906 C 356.886719 356.863281 357.382812 356.601562 357.382812 356.152344 L 357.382812 353.894531 L 364.023438 353.894531 C 369.292969 353.894531 373.90625 349.996094 374.402344 344.757812 C 374.9375 339.03125 370.664062 334.152344 365.152344 333.703125 C 364.703125 333.679688 364.316406 334.011719 364.316406 334.460938 Z M 364.316406 334.460938 " fill-opacity="1" fill-rule="nonzero"/><path fill="#000000" d="M 27.589844 347.414062 C 27.21875 347.175781 26.726562 347.4375 26.726562 347.886719 L 26.726562 350.148438 L 22.640625 350.148438 C 20.992188 350.148438 19.46875 349.25 18.667969 347.808594 L 16.445312 343.796875 L 18.667969 339.789062 C 19.46875 338.347656 20.984375 337.449219 22.640625 337.449219 L 26.726562 337.449219 L 26.726562 339.710938 C 26.726562 340.148438 27.210938 340.414062 27.589844 340.183594 L 33.710938 336.289062 C 34.144531 336.015625 34.144531 335.382812 33.710938 335.101562 L 27.589844 331.207031 C 27.21875 330.96875 26.726562 331.234375 26.726562 331.683594 L 26.726562 333.941406 L 22.640625 333.941406 C 19.707031 333.941406 17 335.535156 15.582031 338.09375 L 14.429688 340.175781 L 13.011719 337.609375 C 11.59375 335.050781 8.886719 333.457031 5.953125 333.457031 L 1.039062 333.457031 C 0.625 333.457031 0.289062 333.792969 0.289062 334.207031 L 0.289062 336.226562 C 0.289062 336.640625 0.625 336.976562 1.039062 336.976562 L 5.953125 336.976562 C 7.601562 336.976562 9.125 337.871094 9.929688 339.3125 L 12.421875 343.808594 L 9.929688 348.300781 C 9.125 349.742188 7.609375 350.640625 5.953125 350.640625 L 1.039062 350.640625 C 0.625 350.640625 0.289062 350.972656 0.289062 351.386719 L 0.289062 353.410156 C 0.289062 353.824219 0.625 354.15625 1.039062 354.15625 L 5.953125 354.15625 C 8.886719 354.15625 11.59375 352.566406 13.011719 350.007812 L 14.429688 347.4375 L 15.582031 349.523438 C 17 352.082031 19.707031 353.671875 22.640625 353.671875 L 26.726562 353.671875 L 26.726562 355.933594 C 26.726562 356.371094 27.210938 356.636719 27.589844 356.40625 L 33.710938 352.511719 C 34.144531 352.238281 34.144531 351.605469 33.710938 351.324219 Z M 27.589844 347.414062 " fill-opacity="1" fill-rule="nonzero"/></svg>