<svg xmlns="http://www.w3.org/2000/svg" xmlns:xlink="http://www.w3.org/1999/xlink" width="500" zoomAndPan="magnify" viewBox="0 0 375 374.999991" height="500" preserveAspectRatio="xMidYMid meet" version="1.0"><defs><clipPath id="6b222ba562"><path d="M 0 40.957031 L 375 40.957031 L 375 311.707031 L 0 311.707031 Z M 0 40.957031 " clip-rule="nonzero"/></clipPath></defs><g clip-path="url(#6b222ba562)"><path fill="#c60a1d" d="M 374.894531 270.054688 C 374.894531 293.058594 356.246094 311.707031 333.25 311.707031 L 41.75 311.707031 C 18.753906 311.707031 0.105469 293.058594 0.105469 270.054688 L 0.105469 82.613281 C 0.105469 59.609375 18.753906 40.957031 41.75 40.957031 L 333.25 40.957031 C 356.246094 40.957031 374.894531 59.609375 374.894531 82.613281 Z M 374.894531 270.054688 " fill-opacity="1" fill-rule="nonzero"/></g><path fill="#ffc400" d="M 0.105469 113.851562 L 374.894531 113.851562 L 374.894531 238.8125 L 0.105469 238.8125 Z M 0.105469 113.851562 " fill-opacity="1" fill-rule="nonzero"/><path fill="#ea596e" d="M 93.804688 165.917969 L 93.804688 197.160156 C 93.804688 214.414062 107.785156 228.402344 125.035156 228.402344 C 142.285156 228.402344 156.269531 214.414062 156.269531 197.160156 L 156.269531 165.917969 Z M 93.804688 165.917969 " fill-opacity="1" fill-rule="nonzero"/><path fill="#f4a2b2" d="M 125.035156 155.507812 L 156.269531 155.507812 L 156.269531 186.746094 L 125.035156 186.746094 Z M 125.035156 155.507812 " fill-opacity="1" fill-rule="nonzero"/><path fill="#dd2e44" d="M 93.804688 155.507812 L 125.035156 155.507812 L 125.035156 186.746094 L 93.804688 186.746094 Z M 93.804688 155.507812 " fill-opacity="1" fill-rule="nonzero"/><path fill="#ea596e" d="M 156.269531 139.886719 C 156.269531 140.398438 156.21875 140.90625 156.117188 141.417969 C 156.015625 141.925781 155.867188 142.429688 155.667969 142.933594 C 155.46875 143.433594 155.21875 143.929688 154.921875 144.421875 C 154.625 144.910156 154.28125 145.390625 153.890625 145.863281 C 153.5 146.335938 153.0625 146.796875 152.578125 147.25 C 152.097656 147.699219 151.574219 148.140625 151.003906 148.5625 C 150.4375 148.988281 149.828125 149.398438 149.179688 149.796875 C 148.53125 150.191406 147.84375 150.570312 147.121094 150.929688 C 146.398438 151.292969 145.640625 151.636719 144.847656 151.960938 C 144.058594 152.285156 143.238281 152.589844 142.386719 152.875 C 141.535156 153.15625 140.660156 153.421875 139.757812 153.660156 C 138.855469 153.902344 137.933594 154.121094 136.988281 154.316406 C 136.042969 154.511719 135.082031 154.683594 134.101562 154.832031 C 133.121094 154.980469 132.132812 155.105469 131.128906 155.207031 C 130.125 155.304688 129.113281 155.378906 128.097656 155.429688 C 127.078125 155.480469 126.058594 155.507812 125.035156 155.507812 C 124.011719 155.507812 122.992188 155.480469 121.972656 155.429688 C 120.957031 155.378906 119.945312 155.304688 118.941406 155.207031 C 117.9375 155.105469 116.949219 154.980469 115.96875 154.832031 C 114.992188 154.683594 114.027344 154.511719 113.082031 154.316406 C 112.136719 154.121094 111.214844 153.902344 110.3125 153.660156 C 109.410156 153.421875 108.535156 153.15625 107.683594 152.875 C 106.832031 152.589844 106.011719 152.285156 105.222656 151.960938 C 104.429688 151.636719 103.675781 151.292969 102.949219 150.929688 C 102.226562 150.570312 101.542969 150.191406 100.890625 149.796875 C 100.242188 149.398438 99.636719 148.988281 99.066406 148.5625 C 98.5 148.140625 97.972656 147.699219 97.492188 147.25 C 97.007812 146.796875 96.570312 146.335938 96.179688 145.863281 C 95.789062 145.390625 95.445312 144.910156 95.148438 144.421875 C 94.851562 143.929688 94.601562 143.433594 94.402344 142.933594 C 94.203125 142.429688 94.054688 141.925781 93.953125 141.417969 C 93.851562 140.90625 93.804688 140.398438 93.804688 139.886719 C 93.804688 139.375 93.851562 138.863281 93.953125 138.355469 C 94.054688 137.847656 94.203125 137.339844 94.402344 136.839844 C 94.601562 136.335938 94.851562 135.839844 95.148438 135.351562 C 95.445312 134.863281 95.789062 134.382812 96.179688 133.910156 C 96.570312 133.4375 97.007812 132.972656 97.492188 132.523438 C 97.972656 132.070312 98.5 131.632812 99.066406 131.207031 C 99.636719 130.78125 100.242188 130.371094 100.890625 129.976562 C 101.542969 129.582031 102.226562 129.203125 102.949219 128.839844 C 103.675781 128.480469 104.429688 128.136719 105.222656 127.8125 C 106.011719 127.488281 106.832031 127.183594 107.683594 126.898438 C 108.535156 126.613281 109.410156 126.351562 110.3125 126.109375 C 111.214844 125.867188 112.136719 125.652344 113.082031 125.453125 C 114.027344 125.257812 114.992188 125.085938 115.96875 124.9375 C 116.949219 124.789062 117.9375 124.664062 118.941406 124.566406 C 119.945312 124.464844 120.957031 124.390625 121.972656 124.339844 C 122.992188 124.289062 124.011719 124.265625 125.035156 124.265625 C 126.058594 124.265625 127.078125 124.289062 128.097656 124.339844 C 129.113281 124.390625 130.125 124.464844 131.128906 124.566406 C 132.132812 124.664062 133.121094 124.789062 134.101562 124.9375 C 135.082031 125.085938 136.042969 125.257812 136.988281 125.453125 C 137.933594 125.652344 138.855469 125.867188 139.757812 126.109375 C 140.660156 126.351562 141.535156 126.613281 142.386719 126.898438 C 143.238281 127.183594 144.058594 127.488281 144.847656 127.8125 C 145.640625 128.136719 146.398438 128.480469 147.121094 128.839844 C 147.84375 129.203125 148.53125 129.582031 149.179688 129.976562 C 149.828125 130.371094 150.4375 130.78125 151.003906 131.207031 C 151.574219 131.632812 152.097656 132.070312 152.578125 132.523438 C 153.0625 132.972656 153.5 133.4375 153.890625 133.910156 C 154.28125 134.382812 154.625 134.863281 154.921875 135.351562 C 155.21875 135.839844 155.46875 136.335938 155.667969 136.839844 C 155.867188 137.339844 156.015625 137.847656 156.117188 138.355469 C 156.21875 138.863281 156.269531 139.375 156.269531 139.886719 Z M 156.269531 139.886719 " fill-opacity="1" fill-rule="nonzero"/><path fill="#ffac33" d="M 156.269531 132.074219 C 156.269531 132.332031 156.21875 132.585938 156.117188 132.839844 C 156.015625 133.097656 155.867188 133.347656 155.667969 133.597656 C 155.46875 133.851562 155.21875 134.097656 154.921875 134.34375 C 154.625 134.585938 154.28125 134.828125 153.890625 135.066406 C 153.5 135.300781 153.0625 135.53125 152.578125 135.757812 C 152.097656 135.984375 151.574219 136.203125 151.003906 136.414062 C 150.4375 136.628906 149.828125 136.832031 149.179688 137.03125 C 148.53125 137.226562 147.84375 137.417969 147.121094 137.597656 C 146.398438 137.78125 145.640625 137.949219 144.847656 138.113281 C 144.058594 138.277344 143.238281 138.425781 142.386719 138.570312 C 141.535156 138.710938 140.660156 138.84375 139.757812 138.964844 C 138.855469 139.085938 137.933594 139.195312 136.988281 139.292969 C 136.042969 139.390625 135.082031 139.476562 134.101562 139.550781 C 133.121094 139.625 132.132812 139.6875 131.128906 139.734375 C 130.125 139.785156 129.113281 139.824219 128.097656 139.847656 C 127.078125 139.875 126.058594 139.886719 125.035156 139.886719 C 124.011719 139.886719 122.992188 139.875 121.972656 139.847656 C 120.957031 139.824219 119.945312 139.785156 118.941406 139.734375 C 117.9375 139.6875 116.949219 139.625 115.96875 139.550781 C 114.992188 139.476562 114.027344 139.390625 113.082031 139.292969 C 112.136719 139.195312 111.214844 139.085938 110.3125 138.964844 C 109.410156 138.84375 108.535156 138.710938 107.683594 138.570312 C 106.832031 138.425781 106.011719 138.277344 105.222656 138.113281 C 104.429688 137.949219 103.675781 137.78125 102.949219 137.597656 C 102.226562 137.417969 101.542969 137.226562 100.890625 137.03125 C 100.242188 136.832031 99.636719 136.628906 99.066406 136.414062 C 98.5 136.203125 97.972656 135.984375 97.492188 135.757812 C 97.007812 135.53125 96.570312 135.300781 96.179688 135.066406 C 95.789062 134.828125 95.445312 134.585938 95.148438 134.34375 C 94.851562 134.097656 94.601562 133.851562 94.402344 133.597656 C 94.203125 133.347656 94.054688 133.097656 93.953125 132.839844 C 93.851562 132.585938 93.804688 132.332031 93.804688 132.074219 C 93.804688 131.820312 93.851562 131.566406 93.953125 131.308594 C 94.054688 131.054688 94.203125 130.804688 94.402344 130.550781 C 94.601562 130.300781 94.851562 130.054688 95.148438 129.808594 C 95.445312 129.5625 95.789062 129.324219 96.179688 129.085938 C 96.570312 128.851562 97.007812 128.621094 97.492188 128.394531 C 97.972656 128.167969 98.5 127.949219 99.066406 127.738281 C 99.636719 127.523438 100.242188 127.320312 100.890625 127.121094 C 101.542969 126.921875 102.226562 126.734375 102.949219 126.554688 C 103.675781 126.371094 104.429688 126.199219 105.222656 126.039062 C 106.011719 125.875 106.832031 125.722656 107.683594 125.582031 C 108.535156 125.441406 109.410156 125.308594 110.3125 125.1875 C 111.214844 125.066406 112.136719 124.957031 113.082031 124.859375 C 114.027344 124.761719 114.992188 124.675781 115.96875 124.601562 C 116.949219 124.527344 117.9375 124.464844 118.941406 124.414062 C 119.945312 124.367188 120.957031 124.328125 121.972656 124.304688 C 122.992188 124.277344 124.011719 124.265625 125.035156 124.265625 C 126.058594 124.265625 127.078125 124.277344 128.097656 124.304688 C 129.113281 124.328125 130.125 124.367188 131.128906 124.414062 C 132.132812 124.464844 133.121094 124.527344 134.101562 124.601562 C 135.082031 124.675781 136.042969 124.761719 136.988281 124.859375 C 137.933594 124.957031 138.855469 125.066406 139.757812 125.1875 C 140.660156 125.308594 141.535156 125.441406 142.386719 125.582031 C 143.238281 125.722656 144.058594 125.875 144.847656 126.039062 C 145.640625 126.199219 146.398438 126.371094 147.121094 126.554688 C 147.84375 126.734375 148.53125 126.921875 149.179688 127.121094 C 149.828125 127.320312 150.4375 127.523438 151.003906 127.738281 C 151.574219 127.949219 152.097656 128.167969 152.578125 128.394531 C 153.0625 128.621094 153.5 128.851562 153.890625 129.085938 C 154.28125 129.324219 154.625 129.5625 154.921875 129.808594 C 155.21875 130.054688 155.46875 130.300781 155.667969 130.550781 C 155.867188 130.804688 156.015625 131.054688 156.117188 131.308594 C 156.21875 131.566406 156.269531 131.820312 156.269531 132.074219 Z M 156.269531 132.074219 " fill-opacity="1" fill-rule="nonzero"/><path fill="#99aab5" d="M 72.980469 155.507812 L 83.390625 155.507812 L 83.390625 228.402344 L 72.980469 228.402344 Z M 166.679688 155.507812 L 177.089844 155.507812 L 177.089844 228.402344 L 166.679688 228.402344 Z M 166.679688 155.507812 " fill-opacity="1" fill-rule="nonzero"/><path fill="#66757f" d="M 62.570312 217.988281 L 93.804688 217.988281 L 93.804688 228.402344 L 62.570312 228.402344 Z M 156.269531 217.988281 L 187.5 217.988281 L 187.5 228.402344 L 156.269531 228.402344 Z M 72.980469 145.09375 L 83.390625 145.09375 L 83.390625 155.507812 L 72.980469 155.507812 Z M 166.679688 145.09375 L 177.089844 145.09375 L 177.089844 155.507812 L 166.679688 155.507812 Z M 166.679688 145.09375 " fill-opacity="1" fill-rule="nonzero"/></svg>