<svg xmlns="http://www.w3.org/2000/svg" xmlns:xlink="http://www.w3.org/1999/xlink" width="500" zoomAndPan="magnify" viewBox="0 0 375 374.999991" height="500" preserveAspectRatio="xMidYMid meet" version="1.0"><defs><clipPath id="ce9e2b283a"><path d="M 57.046875 116.371094 L 368.605469 116.371094 L 368.605469 374.640625 L 57.046875 374.640625 Z M 57.046875 116.371094 " clip-rule="nonzero"/></clipPath><clipPath id="8aae83b1b7"><path d="M 311.433594 182.117188 L 368.605469 182.117188 L 368.605469 188.722656 L 311.433594 188.722656 Z M 311.433594 182.117188 " clip-rule="nonzero"/></clipPath><clipPath id="091408b91f"><path d="M 59 7.890625 L 126 7.890625 L 126 158 L 59 158 Z M 59 7.890625 " clip-rule="nonzero"/></clipPath><clipPath id="da579dcdf2"><path d="M 6.355469 132 L 53 132 L 53 140 L 6.355469 140 Z M 6.355469 132 " clip-rule="nonzero"/></clipPath><clipPath id="ad6bacbcb7"><path d="M 6.355469 66 L 318 66 L 318 326 L 6.355469 326 Z M 6.355469 66 " clip-rule="nonzero"/></clipPath></defs><path fill="#ffffff" d="M 316.171875 121.199219 L 355.425781 120.671875 L 363.910156 128.042969 L 364.441406 367.027344 L 358.074219 371.761719 L 66.875 371.761719 L 59.449219 363.339844 L 58.917969 322.28125 L 298.140625 321.753906 C 298.140625 321.753906 308.539062 321.375 310.871094 319.125 C 314.972656 315.164062 316.171875 297.015625 316.171875 297.015625 L 316.171875 121.199219 " fill-opacity="1" fill-rule="nonzero"/><g clip-path="url(#ce9e2b283a)"><path fill="#17407a" d="M 354.636719 374.960938 L 71.089844 374.960938 C 63.371094 374.960938 57.089844 368.683594 57.089844 360.960938 L 57.089844 335.773438 C 57.089844 333.996094 58.53125 332.554688 60.308594 332.554688 C 62.085938 332.554688 63.527344 333.996094 63.527344 335.773438 L 63.527344 360.960938 C 63.527344 365.128906 66.921875 368.523438 71.089844 368.523438 L 354.636719 368.523438 C 358.804688 368.523438 362.199219 365.128906 362.199219 360.960938 L 362.199219 130.464844 C 362.199219 126.296875 358.804688 122.90625 354.636719 122.90625 L 327.191406 122.90625 C 325.414062 122.90625 323.972656 121.464844 323.972656 119.6875 C 323.972656 117.90625 325.414062 116.464844 327.191406 116.464844 L 354.636719 116.464844 C 362.359375 116.464844 368.636719 122.746094 368.636719 130.464844 L 368.636719 360.960938 C 368.636719 368.683594 362.359375 374.960938 354.636719 374.960938 " fill-opacity="1" fill-rule="nonzero"/></g><g clip-path="url(#8aae83b1b7)"><path fill="#17407a" d="M 365.417969 188.582031 L 314.679688 188.582031 C 312.902344 188.582031 311.460938 187.140625 311.460938 185.363281 C 311.460938 183.585938 312.902344 182.144531 314.679688 182.144531 L 365.417969 182.144531 C 367.195312 182.144531 368.636719 183.585938 368.636719 185.363281 C 368.636719 187.140625 367.195312 188.582031 365.417969 188.582031 " fill-opacity="1" fill-rule="nonzero"/></g><path fill="#17407a" d="M 338.933594 238.105469 L 314.679688 238.105469 C 312.902344 238.105469 311.460938 236.664062 311.460938 234.886719 C 311.460938 233.109375 312.902344 231.664062 314.679688 231.664062 L 338.933594 231.664062 C 340.714844 231.664062 342.15625 233.109375 342.15625 234.886719 C 342.15625 236.664062 340.714844 238.105469 338.933594 238.105469 " fill-opacity="1" fill-rule="nonzero"/><path fill="#17407a" d="M 338.933594 281.773438 L 314.679688 281.773438 C 312.902344 281.773438 311.460938 280.332031 311.460938 278.554688 C 311.460938 276.777344 312.902344 275.332031 314.679688 275.332031 L 338.933594 275.332031 C 340.714844 275.332031 342.15625 276.777344 342.15625 278.554688 C 342.15625 280.332031 340.714844 281.773438 338.933594 281.773438 " fill-opacity="1" fill-rule="nonzero"/><path fill="#17407a" d="M 338.933594 325.441406 L 303.902344 325.441406 C 302.121094 325.441406 300.679688 324 300.679688 322.222656 C 300.679688 320.445312 302.121094 319 303.902344 319 L 338.933594 319 C 340.714844 319 342.15625 320.445312 342.15625 322.222656 C 342.15625 324 340.714844 325.441406 338.933594 325.441406 " fill-opacity="1" fill-rule="nonzero"/><path fill="#ffffff" d="M 7.597656 140.242188 L 309.40625 140.242188 L 309.40625 70.019531 C 309.40625 70.019531 217.503906 66.085938 134.917969 69.492188 C 83.738281 71.605469 29.917969 68.964844 14.089844 73.714844 C 6.84375 75.886719 10.351562 93.253906 9.871094 106.425781 C 9.234375 123.816406 7.597656 140.242188 7.597656 140.242188 " fill-opacity="1" fill-rule="nonzero"/><path fill="#ffffff" d="M 13.402344 138.65625 L 313.101562 136.503906 L 315.738281 314.65625 L 309.65625 321.617188 L 22.003906 323.289062 L 10.761719 317.882812 L 13.6875 140.730469 L 13.402344 138.65625 " fill-opacity="1" fill-rule="nonzero"/><path fill="#38b6ff" d="M 33.101562 137.910156 L 312.710938 136.667969 L 312.710938 93.15625 C 312.710938 93.15625 188.953125 90.484375 100.539062 92.265625 C 70.113281 92.875 44.890625 90.042969 35.007812 96.710938 C 30.570312 99.707031 33.101562 137.910156 33.101562 137.910156 " fill-opacity="1" fill-rule="nonzero"/><path fill="#ffce54" d="M 32.792969 136.824219 L 312.324219 136.203125 L 313.859375 310.304688 L 309.875 319.75 L 38.710938 320.417969 C 38.710938 320.417969 32.121094 316.234375 31.988281 313.058594 C 29.691406 257.644531 33.050781 138.851562 33.050781 138.851562 L 32.792969 136.824219 " fill-opacity="1" fill-rule="nonzero"/><g clip-path="url(#091408b91f)"><path fill="#17407a" d="M 85.097656 157.847656 C 70.941406 157.847656 59.425781 146.332031 59.425781 132.179688 L 59.425781 40.722656 C 59.425781 22.632812 74.140625 7.917969 92.230469 7.917969 C 110.320312 7.917969 125.035156 22.632812 125.035156 40.722656 L 125.035156 70.164062 C 125.035156 71.941406 123.597656 73.386719 121.816406 73.386719 C 120.039062 73.386719 118.597656 71.941406 118.597656 70.164062 L 118.597656 40.722656 C 118.597656 26.183594 106.769531 14.355469 92.230469 14.355469 C 77.691406 14.355469 65.863281 26.183594 65.863281 40.722656 L 65.863281 132.179688 C 65.863281 142.78125 74.492188 151.410156 85.09375 151.410156 C 95.699219 151.410156 104.328125 142.78125 104.328125 132.179688 L 104.328125 53.046875 C 104.328125 51.269531 105.769531 49.828125 107.546875 49.828125 C 109.324219 49.828125 110.765625 51.269531 110.765625 53.046875 L 110.765625 132.179688 C 110.765625 146.332031 99.25 157.847656 85.097656 157.847656 " fill-opacity="1" fill-rule="nonzero"/></g><path fill="#17407a" d="M 288.195312 188.582031 L 36.058594 188.582031 C 34.28125 188.582031 32.839844 187.140625 32.839844 185.363281 C 32.839844 183.585938 34.28125 182.144531 36.058594 182.144531 L 288.195312 182.144531 C 289.972656 182.144531 291.414062 183.585938 291.414062 185.363281 C 291.414062 187.140625 289.972656 188.582031 288.195312 188.582031 " fill-opacity="1" fill-rule="nonzero"/><path fill="#17407a" d="M 288.195312 232.25 L 36.058594 232.25 C 34.28125 232.25 32.839844 230.808594 32.839844 229.03125 C 32.839844 227.253906 34.28125 225.8125 36.058594 225.8125 L 288.195312 225.8125 C 289.972656 225.8125 291.414062 227.253906 291.414062 229.03125 C 291.414062 230.808594 289.972656 232.25 288.195312 232.25 " fill-opacity="1" fill-rule="nonzero"/><path fill="#17407a" d="M 288.195312 275.917969 L 36.058594 275.917969 C 34.28125 275.917969 32.839844 274.476562 32.839844 272.699219 C 32.839844 270.921875 34.28125 269.480469 36.058594 269.480469 L 288.195312 269.480469 C 289.972656 269.480469 291.414062 270.921875 291.414062 272.699219 C 291.414062 274.476562 289.972656 275.917969 288.195312 275.917969 " fill-opacity="1" fill-rule="nonzero"/><g clip-path="url(#da579dcdf2)"><path fill="#17407a" d="M 49.503906 139.0625 L 9.574219 139.0625 C 7.796875 139.0625 6.355469 137.621094 6.355469 135.84375 C 6.355469 134.066406 7.796875 132.625 9.574219 132.625 L 49.503906 132.625 C 51.28125 132.625 52.722656 134.066406 52.722656 135.84375 C 52.722656 137.621094 51.28125 139.0625 49.503906 139.0625 " fill-opacity="1" fill-rule="nonzero"/></g><path fill="#17407a" d="M 92.230469 139.0625 L 77.984375 139.0625 C 76.207031 139.0625 74.765625 137.621094 74.765625 135.84375 C 74.765625 134.066406 76.207031 132.625 77.984375 132.625 L 92.230469 132.625 C 94.007812 132.625 95.449219 134.066406 95.449219 135.84375 C 95.449219 137.621094 94.007812 139.0625 92.230469 139.0625 " fill-opacity="1" fill-rule="nonzero"/><path fill="#17407a" d="M 314.679688 139.0625 L 121.902344 139.0625 C 120.125 139.0625 118.683594 137.621094 118.683594 135.84375 C 118.683594 134.066406 120.125 132.625 121.902344 132.625 L 314.679688 132.625 C 316.457031 132.625 317.898438 134.066406 317.898438 135.84375 C 317.898438 137.621094 316.457031 139.0625 314.679688 139.0625 " fill-opacity="1" fill-rule="nonzero"/><g clip-path="url(#ad6bacbcb7)"><path fill="#17407a" d="M 303.902344 325.441406 L 20.355469 325.441406 C 12.632812 325.441406 6.355469 319.160156 6.355469 311.441406 L 6.355469 80.945312 C 6.355469 73.226562 12.632812 66.945312 20.355469 66.945312 L 49.503906 66.945312 C 51.28125 66.945312 52.722656 68.390625 52.722656 70.167969 C 52.722656 71.945312 51.28125 73.386719 49.503906 73.386719 L 20.355469 73.386719 C 16.183594 73.386719 12.792969 76.777344 12.792969 80.945312 L 12.792969 311.441406 C 12.792969 315.609375 16.183594 319 20.355469 319 L 303.902344 319 C 308.070312 319 311.460938 315.609375 311.460938 311.441406 L 311.460938 80.945312 C 311.460938 76.777344 308.070312 73.386719 303.902344 73.386719 L 133.371094 73.386719 C 131.59375 73.386719 130.152344 71.945312 130.152344 70.167969 C 130.152344 68.390625 131.59375 66.945312 133.371094 66.945312 L 303.902344 66.945312 C 311.621094 66.945312 317.898438 73.226562 317.898438 80.945312 L 317.898438 311.441406 C 317.898438 319.160156 311.621094 325.441406 303.902344 325.441406 " fill-opacity="1" fill-rule="nonzero"/></g><path fill="#17407a" d="M 94.316406 73.386719 L 75.253906 73.386719 C 73.472656 73.386719 72.03125 71.945312 72.03125 70.167969 C 72.03125 68.386719 73.472656 66.945312 75.253906 66.945312 L 94.316406 66.945312 C 96.09375 66.945312 97.535156 68.386719 97.535156 70.167969 C 97.535156 71.945312 96.09375 73.386719 94.316406 73.386719 " fill-opacity="1" fill-rule="nonzero"/></svg>