<svg xmlns="http://www.w3.org/2000/svg" xmlns:xlink="http://www.w3.org/1999/xlink" width="1366" zoomAndPan="magnify" viewBox="0 0 1024.5 576" height="768" preserveAspectRatio="xMidYMid meet" version="1.0"><defs><clipPath id="5ce73057b6"><path d="M 339.761719 132 L 692.28125 132 L 692.28125 424.535156 L 339.761719 424.535156 Z M 339.761719 132 " clip-rule="nonzero"/></clipPath><clipPath id="2ec7d0a867"><path d="M 627.5625 206.359375 L 692.28125 206.359375 L 692.28125 213.832031 L 627.5625 213.832031 Z M 627.5625 206.359375 " clip-rule="nonzero"/></clipPath><clipPath id="4b1dcb8009"><path d="M 342 9.277344 L 417 9.277344 L 417 179 L 342 179 Z M 342 9.277344 " clip-rule="nonzero"/></clipPath><clipPath id="1ffab929bf"><path d="M 282.308594 150 L 335 150 L 335 158 L 282.308594 158 Z M 282.308594 150 " clip-rule="nonzero"/></clipPath><clipPath id="435d389d4a"><path d="M 282.308594 76 L 635 76 L 635 369 L 282.308594 369 Z M 282.308594 76 " clip-rule="nonzero"/></clipPath></defs><path fill="#ffffff" d="M 632.925781 137.4375 L 677.332031 136.84375 L 686.933594 145.179688 L 687.535156 415.554688 L 680.332031 420.914062 L 350.878906 420.914062 L 342.476562 411.386719 L 341.878906 364.933594 L 612.523438 364.339844 C 612.523438 364.339844 624.289062 363.90625 626.925781 361.363281 C 631.570312 356.882812 632.925781 336.347656 632.925781 336.347656 L 632.925781 137.4375 " fill-opacity="1" fill-rule="nonzero"/><g clip-path="url(#5ce73057b6)"><path fill="#17407a" d="M 676.445312 424.535156 L 355.648438 424.535156 C 346.914062 424.535156 339.808594 417.429688 339.808594 408.695312 L 339.808594 380.199219 C 339.808594 378.1875 341.441406 376.558594 343.453125 376.558594 C 345.464844 376.558594 347.09375 378.1875 347.09375 380.199219 L 347.09375 408.695312 C 347.09375 413.410156 350.933594 417.25 355.648438 417.25 L 676.445312 417.25 C 681.160156 417.25 684.996094 413.410156 684.996094 408.695312 L 684.996094 147.921875 C 684.996094 143.203125 681.160156 139.371094 676.445312 139.371094 L 645.390625 139.371094 C 643.382812 139.371094 641.75 137.738281 641.75 135.726562 C 641.75 133.714844 643.382812 132.082031 645.390625 132.082031 L 676.445312 132.082031 C 685.175781 132.082031 692.28125 139.1875 692.28125 147.921875 L 692.28125 408.695312 C 692.28125 417.429688 685.175781 424.535156 676.445312 424.535156 " fill-opacity="1" fill-rule="nonzero"/></g><g clip-path="url(#2ec7d0a867)"><path fill="#17407a" d="M 688.636719 213.675781 L 631.238281 213.675781 C 629.226562 213.675781 627.597656 212.042969 627.597656 210.03125 C 627.597656 208.019531 629.226562 206.390625 631.238281 206.390625 L 688.636719 206.390625 C 690.652344 206.390625 692.28125 208.019531 692.28125 210.03125 C 692.28125 212.042969 690.652344 213.675781 688.636719 213.675781 " fill-opacity="1" fill-rule="nonzero"/></g><path fill="#17407a" d="M 658.679688 269.699219 L 631.234375 269.699219 C 629.226562 269.699219 627.59375 268.070312 627.59375 266.058594 C 627.59375 264.046875 629.226562 262.414062 631.234375 262.414062 L 658.679688 262.414062 C 660.691406 262.414062 662.320312 264.046875 662.320312 266.058594 C 662.320312 268.070312 660.691406 269.699219 658.679688 269.699219 " fill-opacity="1" fill-rule="nonzero"/><path fill="#17407a" d="M 658.679688 319.105469 L 631.234375 319.105469 C 629.226562 319.105469 627.59375 317.476562 627.59375 315.460938 C 627.59375 313.449219 629.226562 311.820312 631.234375 311.820312 L 658.679688 311.820312 C 660.691406 311.820312 662.320312 313.449219 662.320312 315.460938 C 662.320312 317.476562 660.691406 319.105469 658.679688 319.105469 " fill-opacity="1" fill-rule="nonzero"/><path fill="#17407a" d="M 658.679688 368.507812 L 619.042969 368.507812 C 617.03125 368.507812 615.398438 366.875 615.398438 364.867188 C 615.398438 362.855469 617.03125 361.222656 619.042969 361.222656 L 658.679688 361.222656 C 660.691406 361.222656 662.320312 362.855469 662.320312 364.867188 C 662.320312 366.875 660.691406 368.507812 658.679688 368.507812 " fill-opacity="1" fill-rule="nonzero"/><path fill="#ffffff" d="M 283.816406 158.980469 L 625.269531 158.980469 L 625.269531 79.539062 C 625.269531 79.539062 521.296875 75.085938 427.863281 78.941406 C 369.960938 81.328125 309.070312 78.34375 291.164062 83.714844 C 282.960938 86.175781 286.929688 105.820312 286.386719 120.726562 C 285.667969 140.398438 283.816406 158.980469 283.816406 158.980469 " fill-opacity="1" fill-rule="nonzero"/><path fill="#ffffff" d="M 290.382812 157.1875 L 629.449219 154.753906 L 632.433594 356.304688 L 625.550781 364.179688 L 300.117188 366.074219 L 287.398438 359.960938 L 290.707031 159.53125 L 290.382812 157.1875 " fill-opacity="1" fill-rule="nonzero"/><path fill="#38b6ff" d="M 312.671875 156.34375 L 629.007812 154.9375 L 629.007812 105.710938 C 629.007812 105.710938 488.996094 102.691406 388.964844 104.703125 C 354.542969 105.394531 326.007812 102.1875 314.828125 109.730469 C 309.804688 113.121094 312.671875 156.34375 312.671875 156.34375 " fill-opacity="1" fill-rule="nonzero"/><path fill="#ffce54" d="M 312.324219 155.113281 L 628.570312 154.414062 L 630.308594 351.382812 L 625.800781 362.070312 L 319.015625 362.824219 C 319.015625 362.824219 311.5625 358.089844 311.414062 354.5 C 308.8125 291.808594 312.613281 157.410156 312.613281 157.410156 L 312.324219 155.113281 " fill-opacity="1" fill-rule="nonzero"/><g clip-path="url(#4b1dcb8009)"><path fill="#17407a" d="M 371.496094 178.902344 C 355.480469 178.902344 342.453125 165.875 342.453125 149.859375 L 342.453125 46.390625 C 342.453125 25.925781 359.101562 9.273438 379.566406 9.273438 C 400.03125 9.273438 416.683594 25.925781 416.683594 46.390625 L 416.683594 79.699219 C 416.683594 81.710938 415.050781 83.34375 413.039062 83.34375 C 411.027344 83.34375 409.398438 81.710938 409.398438 79.699219 L 409.398438 46.390625 C 409.398438 29.941406 396.015625 16.5625 379.566406 16.5625 C 363.117188 16.5625 349.738281 29.941406 349.738281 46.390625 L 349.738281 149.859375 C 349.738281 161.855469 359.496094 171.617188 371.496094 171.617188 C 383.492188 171.617188 393.253906 161.855469 393.253906 149.859375 L 393.253906 60.335938 C 393.253906 58.320312 394.882812 56.691406 396.894531 56.691406 C 398.90625 56.691406 400.535156 58.320312 400.535156 60.335938 L 400.535156 149.859375 C 400.535156 165.875 387.507812 178.902344 371.496094 178.902344 " fill-opacity="1" fill-rule="nonzero"/></g><path fill="#17407a" d="M 601.273438 213.675781 L 316.019531 213.675781 C 314.003906 213.675781 312.375 212.042969 312.375 210.03125 C 312.375 208.019531 314.003906 206.390625 316.019531 206.390625 L 601.273438 206.390625 C 603.285156 206.390625 604.917969 208.019531 604.917969 210.03125 C 604.917969 212.042969 603.285156 213.675781 601.273438 213.675781 " fill-opacity="1" fill-rule="nonzero"/><path fill="#17407a" d="M 601.273438 263.078125 L 316.019531 263.078125 C 314.003906 263.078125 312.375 261.445312 312.375 259.4375 C 312.375 257.425781 314.003906 255.792969 316.019531 255.792969 L 601.273438 255.792969 C 603.285156 255.792969 604.917969 257.425781 604.917969 259.4375 C 604.917969 261.445312 603.285156 263.078125 601.273438 263.078125 " fill-opacity="1" fill-rule="nonzero"/><path fill="#17407a" d="M 601.273438 312.484375 L 316.019531 312.484375 C 314.003906 312.484375 312.375 310.851562 312.375 308.839844 C 312.375 306.828125 314.003906 305.195312 316.019531 305.195312 L 601.273438 305.195312 C 603.285156 305.195312 604.917969 306.828125 604.917969 308.839844 C 604.917969 310.851562 603.285156 312.484375 601.273438 312.484375 " fill-opacity="1" fill-rule="nonzero"/><g clip-path="url(#1ffab929bf)"><path fill="#17407a" d="M 331.226562 157.648438 L 286.050781 157.648438 C 284.039062 157.648438 282.410156 156.015625 282.410156 154.003906 C 282.410156 151.996094 284.039062 150.363281 286.050781 150.363281 L 331.226562 150.363281 C 333.238281 150.363281 334.867188 151.996094 334.867188 154.003906 C 334.867188 156.015625 333.238281 157.648438 331.226562 157.648438 " fill-opacity="1" fill-rule="nonzero"/></g><path fill="#17407a" d="M 379.566406 157.648438 L 363.449219 157.648438 C 361.4375 157.648438 359.804688 156.015625 359.804688 154.003906 C 359.804688 151.996094 361.4375 150.363281 363.449219 150.363281 L 379.566406 150.363281 C 381.578125 150.363281 383.210938 151.996094 383.210938 154.003906 C 383.210938 156.015625 381.578125 157.648438 379.566406 157.648438 " fill-opacity="1" fill-rule="nonzero"/><path fill="#17407a" d="M 631.234375 157.648438 L 413.136719 157.648438 C 411.125 157.648438 409.496094 156.015625 409.496094 154.007812 C 409.496094 151.996094 411.125 150.363281 413.136719 150.363281 L 631.234375 150.363281 C 633.25 150.363281 634.878906 151.996094 634.878906 154.007812 C 634.878906 156.015625 633.25 157.648438 631.234375 157.648438 " fill-opacity="1" fill-rule="nonzero"/><g clip-path="url(#435d389d4a)"><path fill="#17407a" d="M 619.042969 368.507812 L 298.246094 368.507812 C 289.515625 368.507812 282.410156 361.402344 282.410156 352.671875 L 282.410156 91.898438 C 282.410156 83.164062 289.515625 76.058594 298.246094 76.058594 L 331.226562 76.058594 C 333.238281 76.058594 334.867188 77.691406 334.867188 79.703125 C 334.867188 81.710938 333.238281 83.34375 331.226562 83.34375 L 298.246094 83.34375 C 293.53125 83.34375 289.695312 87.183594 289.695312 91.898438 L 289.695312 352.671875 C 289.695312 357.386719 293.53125 361.222656 298.246094 361.222656 L 619.042969 361.222656 C 623.757812 361.222656 627.597656 357.386719 627.597656 352.671875 L 627.597656 91.898438 C 627.597656 87.183594 623.757812 83.34375 619.042969 83.34375 L 426.109375 83.34375 C 424.101562 83.34375 422.46875 81.710938 422.46875 79.703125 C 422.46875 77.691406 424.101562 76.058594 426.109375 76.058594 L 619.042969 76.058594 C 627.773438 76.058594 634.878906 83.164062 634.878906 91.898438 L 634.878906 352.671875 C 634.878906 361.402344 627.773438 368.507812 619.042969 368.507812 " fill-opacity="1" fill-rule="nonzero"/></g><path fill="#17407a" d="M 381.925781 83.34375 L 360.359375 83.34375 C 358.347656 83.34375 356.714844 81.714844 356.714844 79.703125 C 356.714844 77.691406 358.347656 76.058594 360.359375 76.058594 L 381.925781 76.058594 C 383.9375 76.058594 385.570312 77.691406 385.570312 79.703125 C 385.570312 81.714844 383.9375 83.34375 381.925781 83.34375 " fill-opacity="1" fill-rule="nonzero"/></svg>